<?xml version="1.0" encoding="utf-8" standalone="no"?>
<!DOCTYPE svg PUBLIC "-//W3C//DTD SVG 1.1//EN" "http://www.w3.org/Graphics/SVG/1.1/DTD/svg11.dtd">
<svg version="1.1" xmlns="http://www.w3.org/2000/svg" xmlns:xlink="http://www.w3.org/1999/xlink" width="913pt" height="626pt" viewBox="0 0 913 626" xml:space="preserve" enable-background="new 0 0 913 626">
<g color-interpolation="linearRGB" transform="scale(0.75,0.75)">
<g id="DETCOG_County_Boundaries_SIMPLIFIED_100m_DougPeu_20231228">
<g transform="matrix(1.3333333 0 0 -1.3333333 608.5 417.5)">
<path d="M-277.74325 272.11084 L-275.46648 273.12292 L-273.41958 271.18417 L-276.0333 268.52077 L-272.01184 263.92862 L-269.96497 264.38734 L-270.95729 262.53511 L-269.29145 260.69012 L-267.59543 262.32163 L-265.5074 261.69341 L-267.07888 259.0701 L-265.61908 258.74639 L-265.40502 255.20371 L-263.28466 258.1842 L-258.38555 256.05008 L-254.64575 257.68446 L-255.17403 255.17095 L-253.87214 253.96675 L-255.37689 251.4702 L-249.50692 251.96323 L-248.84249 250.84163 L-248.85048 246.36887 L-251.33025 244.66161 L-249.17297 242.44706 L-247.96004 243.04557 L-248.06614 241.27862 L-245.47484 241.99749 L-243.77023 238.65969 L-242.07321 239.90663 L-240.69258 238.20606 L-241.75695 236.30823 L-239.51241 234.54734 L-238.64565 231.12096 L-236.38043 230.63571 L-235.23594 234.7325 L-232.23413 234.26921 L-229.00969 231.12711 L-226.68716 231.76688 L-227.99688 235.25173 L-225.09391 237.29826 L-222.00372 235.76257 L-220.63512 238.10181 L-218.34029 236.48344 L-220.66547 234.69264 L-217.24986 233.61294 L-216.87715 232.08931 L-214.96051 233.08278 L-210.17436 228.45435 L-210.04164 225.6769 L-199.36561 227.76628 L-195.65515 226.67818 L-192.45563 223.37791 L-189.52192 223.09498 L-191.04472 221.67255 L-188.62754 222.1998 L-191.00329 219.62882 L-189.67932 218.78784 L-188.21441 220.23625 L-186.05744 216.5319 L-184.2713 217.24398 L-183.72688 213.97897 L-181.9943 214.23628 L-180.95016 216.5799 L-179.62366 214.69687 L-175.22988 216.58513 L-175.2067 215.25332 L-168.74315 211.69071 L-166.80197 212.42725 L-162.02967 208.88635 L-160.97879 210.00577 L-159.80854 206.86252 L-157.48999 207.78429 L-155.8728 206.55539 L-156.38756 208.44997 L-154.76073 209.27829 L-150.27015 205.06807 L-149.96358 200.22636 L-143.54315 199.98315 L-142.99222 198.70702 L-143.54416 201.63903 L-142.36352 202.40771 L-138.67485 200.74056 L-138.91445 199.06089 L-136.89662 200.34962 L-127.46972 199.53417 L-124.21095 195.74618 L-118.66027 193.67559 L-116.88098 195.67955 L-110.20535 192.47757 L-106.58861 194.14108 L-103.23703 193.56725 L-100.5692 195.56138 L-101.03775 197.04575 L-98.372712 194.5403 L-97.98428 198.4292 L-95.974574 196.9102 L-95.458952 198.91724 L-91.198194 199.60661 L-89.010255 201.83814 L-86.074864 196.40633 L-83.811863 195.71571 L-85.693181 193.9277 L-67.471724 184.13008 L-61.331299 184.23857 L-62.516926 180.71298 L-59.481358 181.30992 L-59.294119 184.85136 L-57.117072 184.34163 L-53.6963 182.1272 L-56.134527 180.29013 L-54.754709 178.50592 L-52.689927 179.93814 L-50.411814 178.79473 L-49.507671 182.09371 L-46.292817 178.73769 L-45.983162 181.37855 L-42.237839 179.6545 L-38.910987 182.16537 L-37.248688 179.73186 L-35.505707 180.29992 L-35.184759 182.53402 L-35.042957 179.16924 L-32.136841 180.3316 L-33.836127 182.94136 L-30.425587 181.39627 L-30.691477 185.2107 L-26.996275 187.59829 L-24.830488 186.9869 L-23.574015 189.57678 L-19.826548 187.484 L-22.55493 186.94231 L-24.034569 183.94965 L-22.107901 184.94127 L-18.515728 183.29839 L-17.558956 187.72772 L-15.916464 186.41212 L-17.497302 184.93344 L-15.35847 184.30312 L-16.621113 182.32042 L-14.978852 181.73283 L-13.764684 184.87576 L-12.088359 182.54259 L-12.942284 179.9144 L-11.494503 178.86174 L-13.213959 178.56191 L-11.645736 177.24966 L-13.17705 174.59472 L-15.124776 175.1084 L-13.198454 171.19155 L3.6463562 171.09489 L8.3197314 173.62835 L12.796333 171.51303 L13.706412 173.43158 L18.13382 171.36545 L17.272935 168.65982 L20.249137 167.72514 L23.692676 169.44691 L21.405182 166.59369 L21.601956 163.5191 L23.225339 163.44531 L21.847923 161.92032 L23.545096 161.52677 L21.970906 158.13242 L25.758799 155.23001 L24.47977 152.72115 L26.472105 149.15462 L26.201541 145.95705 L27.455974 146.00624 L25.316059 140.25061 L26.619685 135.57724 L30.014031 132.72402 L34.121681 134.42119 L38.252445 132.54071 L45.505003 137.03007 L46.263065 135.08209 L49.096782 135.93557 L50.252028 139.18771 L46.890759 139.71883 L51.112572 141.71895 L50.099937 144.05043 L55.285222 144.86078 L55.128016 146.9907 L58.70723 146.16648 L59.005143 142.99301 L61.582073 140.84731 L62.61575 142.32355 L60.889858 145.05572 L63.551984 145.82742 L66.993879 139.10154 L69.155795 140.46085 L71.128137 136.24871 L73.050745 136.25696 L73.499199 133.77113 L71.354818 132.62528 L75.554082 132.43415 L74.977364 130.85109 L72.215443 130.81577 L72.615992 127.77425 L74.141275 128.40646 L75.845196 126.79466 L78.21768 128.27566 L78.046974 122.36922 L79.964516 123.41556 L80.982349 120.66492 L84.138667 120.18556 L87.247348 115.99899 L87.71156 118.94099 L89.788146 117.52455 L89.788816 119.66514 L92.390553 117.00743 L89.875756 115.079 L90.265006 113.30126 L94.118512 115.92206 L94.296772 111.29093 L97.323107 110.16769 L93.648772 109.05751 L94.326132 107.3951 L96.982017 106.82387 L96.653321 105.03263 L94.435088 106.38966 L92.169746 103.28804 L94.876817 102.85303 L93.843493 99.185527 L95.797807 94.951052 L98.284541 94.182188 L98.854002 89.846045 L101.81834 89.579126 L100.85298 82.963047 L106.61842 80.119119 L104.88275 78.300848 L105.4913 72.602845 L103.8258 71.001796 L104.14635 68.266826 L105.79255 65.991367 L109.81027 67.492616 L109.88658 64.490769 L107.53223 64.499318 L106.77777 61.936402 L110.07185 58.207452 L109.46016 55.828927 L111.42113 56.33796 L112.96112 54.678534 L110.51816 53.475434 L112.65679 51.249288 L112.22679 46.342503 L114.18743 41.971432 L116.99836 44.480882 L119.912 40.794719 L120.90152 43.48622 L122.45756 36.90869 L126.73856 37.692894 L127.85899 35.878159 L128.82443 39.052148 L130.4202 35.944432 L132.44936 37.163075 L138.12673 34.143557 L138.22349 31.340483 L141.3339 33.277117 L148.57528 32.887474 L149.47512 29.665432 L153.43254 31.036475 L152.10901 29.213989 L154.15214 28.875206 L152.89233 26.868516 L156.47283 26.530452 L158.34736 24.529599 L157.56762 22.826907 L163.25575 24.535636 L163.24939 22.028285 L165.46063 21.45206 L168.73085 14.881836 L171.73892 13.365581 L171.14825 11.360951 L172.78806 11.225728 L170.86044 2.7547556 L171.20082 1.3577047 L175.35224 1.2557302 L174.60465 -5.7566409 L176.98251 -4.8100171 L178.7688 -7.5693726 L181.21069 -6.7774938 L184.5782 -18.381683 L186.52529 -17.117565 L190.04261 -21.445052 L198.54017 -22.93106 L196.75784 -29.147206 L199.48059 -28.691945 L199.60899 -32.45756 L201.50459 -32.400492 L199.08158 -36.970146 L201.74307 -35.194596 L205.05486 -36.398796 L203.25741 -38.30824 L205.10833 -40.624665 L208.36629 -41.461206 L206.06522 -44.123077 L207.24347 -47.285056 L208.8953 -48.914331 L211.30142 -48.5338 L215.04579 -56.002425 L216.37478 -56.604365 L216.45763 -54.788635 L219.18958 -56.479807 L218.33564 -58.313835 L220.55043 -59.768908 L219.53131 -63.61611 L226.1274 -63.629952 L224.46714 -62.507348 L225.89052 -61.126953 L229.64664 -63.007647 L232.1733 -62.122584 L233.00637 -65.303879 L235.22757 -63.415602 L240.89665 -63.293583 L241.72201 -64.573348 L240.33672 -65.983383 L242.27591 -67.728543 L240.91595 -69.543775 L244.17233 -69.869908 L245.73562 -73.241483 L249.67456 -73.444987 L246.69698 -75.189768 L250.32845 -76.903797 L257.64111 -75.342349 L258.67487 -80.18918 L261.62551 -81.066975 L260.7874 -83.344689 L263.09839 -87.655917 L273.06677 -88.386497 L274.71733 -89.506822 L273.4744 -91.457184 L276.91009 -90.689692 L281.13882 -94.049089 L286.11521 -100.14042 L284.51305 -105.15959 L288.14433 -111.68871 L289.76519 -111.49177 L289.65596 -108.4455 L293.9887 -109.70957 L295.4366 -105.08321 L299.24824 -103.12394 L298.45303 -107.69311 L302.06566 -106.93647 L303.59585 -111.29025 L300.45639 -113.42957 L300.88292 -115.31587 L304.4706 -115.66567 L310.25072 -111.69596 L311.24734 -114.48918 L316.08666 -114.63751 L315.49679 -117.512 L323.62039 -116.61639 L324.8145 -119.2569 L328.97595 -119.68431 L327.36858 -121.83068 L328.5013 -129.66024 L331.71422 -131.47221 L331.71613 -134.37021 L336.41222 -134.63813 L335.93835 -137.74641 L339.73012 -138.23783 L343.92827 -141.11156 L343.70612 -144.63453 L340.32043 -143.03876 L339.72258 -143.95574 L347.46855 -150.51509 L347.66382 -152.09799 L345.483 -151.80834 L346.00677 -153.03774 L351.45933 -156.99265 L356.80851 -157.30997 L353.72884 -162.01612 L357.69995 -159.69583 L356.60827 -163.8186 L364.15535 -168.72685 L367.17853 -175.06042 L371.90541 -172.15897 L375.16376 -176.47967 L378.43291 -174.66548 L383.32679 -176.91685 L387.19312 -181.05253 L386.6047 -185.3701 L389.44204 -183.73903 L392.24535 -185.30531 L399.43394 -184.8635 L399.01007 -188.32882 L402.34026 -190.23965 L401.12979 -193.79154 L404.13427 -193.52297 L402.89072 -196.58055 L409.77951 -193.28579 L412.63423 -195.91857 L410.87706 -200.1427 L413.08885 -202.41256 L95.468635 -271.98852 L86.162613 -279.40584 L73.715832 -273.69518 L75.027963 -270.86846 L74.216241 -265.60374 L69.18854 -265.66609 L69.256761 -259.90009 L67.987823 -258.45076 L64.458774 -261.752 L60.104778 -261.40179 L58.593173 -258.60887 L57.048408 -260.42957 L54.777997 -257.32979 L52.225101 -260.27579 L50.515452 -255.92568 L48.469031 -256.90203 L43.83228 -250.7921 L40.580862 -251.09082 L40.371411 -253.73634 L38.431638 -254.27369 L38.864557 -252.33722 L37.441862 -251.1709 L38.771136 -249.22411 L35.272363 -251.21687 L34.986257 -245.70761 L33.285446 -248.39574 L28.024333 -244.80161 L28.66286 -248.27087 L25.993306 -250.42153 L24.705387 -247.38337 L20.152214 -248.60891 L18.030137 -246.33762 L14.527075 -248.57866 L13.028649 -246.42774 L8.3809097 -246.7106 L8.9483439 -243.86153 L5.1920484 -244.32747 L5.0172381 -241.82529 L3.4887871 -243.34766 L1.6566289 -242.4062 L2.6675582 -239.67762 L1.4632692 -236.88823 L1.1696151 -238.53203 L-0.50275657 -238.44034 L-1.7860948 -236.1213 L-3.8467565 -236.05991 L-4.5692646 -239.01359 L-5.2860924 -235.79454 L-7.3706361 -237.31623 L-9.9321037 -232.97062 L-14.311457 -231.00512 L-17.740779 -231.86171 L-17.565517 -235.4137 L-20.422445 -233.46044 L-24.316915 -233.88398 L-27.127258 -231.51087 L-25.873505 -228.24542 L-29.424383 -226.32364 L-29.950343 -228.84873 L-33.498077 -230.92921 L-37.019313 -227.76691 L-36.144291 -225.0838 L-38.086339 -222.70095 L-39.839043 -224.21265 L-41.095675 -220.59314 L-45.932355 -220.40424 L-43.086209 -216.15538 L-47.761141 -215.34464 L-47.791405 -212.30389 L-50.94623 -213.89511 L-51.683257 -211.65051 L-54.794756 -212.05876 L-55.905113 -209.66028 L-56.528026 -212.04064 L-58.25946 -210.45897 L-62.536907 -214.00946 L-67.123441 -207.81492 L-72.300174 -210.15471 L-74.451399 -209.34311 L-78.473095 -203.78778 L-80.153525 -196.57689 L-86.224755 -202.00722 L-86.202961 -207.89799 L-89.43422 -212.03062 L-94.619595 -210.22285 L-94.501552 -208.09896 L-101.53352 -207.95424 L-103.1869 -203.73698 L-100.67116 -202.77226 L-101.34339 -200.03464 L-108.49338 -202.69041 L-109.37496 -199.44387 L-116.44208 -199.14574 L-119.91987 -197.0835 L-119.76 -198.73134 L-122.08482 -199.57257 L-125.93964 -196.34485 L-127.14797 -199.1364 L-128.84978 -197.47483 L-128.29092 -195.49026 L-131.57402 -192.59152 L-132.90214 -195.97701 L-135.06937 -195.02028 L-134.35736 -191.73731 L-137.66941 -193.37394 L-138.32341 -190.35774 L-136.57989 -189.26256 L-139.58499 -188.34481 L-141.04385 -190.67226 L-142.60018 -189.32015 L-143.79337 -190.54862 L-144.28165 -188.30871 L-146.8891 -186.66141 L-149.58212 -187.69938 L-151.25653 -185.01902 L-153.41349 -187.78014 L-163.03533 -188.96415 L-164.83778 -190.41734 L-172.34483 -186.73714 L-177.78962 -188.02409 L-180.61128 -183.93277 L-186.23269 -181.7287 L-190.80384 -177.29603 L-193.47315 -177.54809 L-194.91069 -174.59095 L-197.945 -175.18235 L-201.36624 -173.0772 L-205.20232 -169.47436 L-205.36689 -167.53343 L-207.35315 -169.08747 L-214.26891 -166.6937 L-219.05544 -162.97148 L-217.35663 -162.10635 L-220.54408 -158.75315 L-226.20013 -157.51825 L-226.30541 -160.01631 L-235.13371 -156.02361 L-236.58159 -159.32891 L-241.35833 -157.10995 L-244.80132 -148.47635 L-247.35485 -150.8266 L-249.61616 -148.80082 L-251.5043 -150.08264 L-253.627 -146.64542 L-262.79613 -144.86666 L-264.95637 -138.08839 L-266.52427 -139.77226 L-269.26661 -137.92924 L-272.42534 -139.58526 L-273.56373 -137.04471 L-276.72347 -137.06073 L-275.75718 -132.31474 L-270.46456 -131.7305 L-272.14756 -130.28646 L-270.30578 -126.75487 L-271.15243 -122.97955 L-274.12809 -118.72353 L-275.1361 -112.28381 L-271.37934 -110.80095 L-272.34387 -106.44118 L-270.16847 -106.14405 L-273.4786 -93.847766 L-277.28997 -92.445601 L-279.91146 -86.961925 L-277.87215 -86.94145 L-278.41816 -84.117312 L-281.9085 -80.639483 L-280.74747 -78.18076 L-282.14937 -78.497092 L-285.11682 -71.986191 L-284.04014 -70.106102 L-281.93272 -70.080529 L-284.37273 -68.143702 L-280.25378 -67.568523 L-282.74787 -64.762398 L-282.23166 -63.445332 L-278.04948 -64.05666 L-277.88052 -60.891655 L-279.99552 -61.732972 L-281.64647 -59.360561 L-277.31364 -58.861484 L-281.49343 -56.812046 L-281.2939 -54.717632 L-283.15874 -53.415705 L-281.53475 -51.990115 L-282.79794 -46.334484 L-280.03454 -46.040309 L-278.96662 -43.526944 L-281.83458 -43.006358 L-284.99297 -39.140534 L-286.56828 -32.620268 L-288.64608 -33.633434 L-292.62787 -26.001838 L-293.64995 -27.983936 L-296.79293 -27.85366 L-297.87062 -29.228223 L-300.30212 -27.175255 L-299.38318 -25.968556 L-301.52097 -19.903945 L-306.17556 -20.020402 L-308.08044 -21.868055 L-310.87751 -18.471429 L-313.97891 -17.416546 L-314.48824 -13.153814 L-312.39828 -12.192572 L-313.62617 -9.6970105 L-308.08868 -5.4650985 L-304.43505 3.2623169 L-299.87577 4.4920266 L-293.616 10.593628 L-294.5945 15.413298 L-296.5119 17.197523 L-300.1655 14.936151 L-302.37253 24.288112 L-304.41909 22.543651 L-304.25899 20.304297 L-306.58946 24.741054 L-307.28947 20.867025 L-310.45525 19.918034 L-312.21651 24.958561 L-310.81219 25.2298 L-310.26418 28.537004 L-312.94817 31.703979 L-312.9346 36.382401 L-316.63563 43.760904 L-311.65726 50.430201 L-313.53901 51.685711 L-312.09952 55.074801 L-313.76544 55.874458 L-313.68804 58.797295 L-318.31596 61.581466 L-316.61698 64.414166 L-317.88936 63.749895 L-319.36877 65.652027 L-321.59993 64.812185 L-323.6014 70.319082 L-324.86035 69.102313 L-331.23288 73.124438 L-330.11175 69.784037 L-331.17062 69.103945 L-332.65114 71.044343 L-335.14439 70.875817 L-342.38639 74.743516 L-342.37248 72.02951 L-345.18558 72.126234 L-345.06927 73.838575 L-352.35812 77.347345 L-352.75195 74.252659 L-354.82604 76.191222 L-357.03781 72.107876 L-357.56409 75.153941 L-359.22057 74.962969 L-359.60831 72.510278 L-366.28917 76.698221 L-365.9484 78.910001 L-369.26993 77.415855 L-369.31441 79.439467 L-366.4477 80.674234 L-367.87766 83.13391 L-366.7526 85.000124 L-372.38868 84.197532 L-372.48628 88.495852 L-370.84791 89.741076 L-368.47764 89.025387 L-369.9131 91.264301 L-369.15434 92.894853 L-366.82211 90.607062 L-366.87225 92.352548 L-364.17402 94.385555 L-362.55712 93.80815 L-361.33997 96.139691 L-364.08281 95.325859 L-364.82753 97.866477 L-367.3325 97.93126 L-365.89746 99.504225 L-366.58424 100.89155 L-368.41667 99.36526 L-369.73622 100.47725 L-366.32595 111.29701 L-368.27033 113.03163 L-368.33177 117.29334 L-365.78621 119.51697 L-364.18174 117.99068 L-361.30723 118.55668 L-361.0619 120.44708 L-363.26543 121.04573 L-364.69843 123.82831 L-368.2125 124.68401 L-367.65031 125.97355 L-370.11702 126.52773 L-369.26694 128.06384 L-376.27258 130.99533 L-376.28282 133.77796 L-374.54829 135.38311 L-375.57327 136.85726 L-379.32253 137.53803 L-383.07901 140.68586 L-387.2915 140.47109 L-385.3731 146.28001 L-388.65325 147.3637 L-385.37169 149.08862 L-386.08782 151.2451 L-387.44125 150.48728 L-390.56676 152.52752 L-394.06018 156.59557 L-401.77605 156.75463 L-401.76199 160.86609 L-405.44954 159.91696 L-407.50999 164.37675 L-408.30885 160.88298 L-413.08885 165.01173 L-410.6469 170.4516 L-278.73456 279.40584 L-276.89562 277.76083 L-277.74325 272.11084 Z "  fill="#B2B2B2" fill-rule="evenodd" stroke="#FFFFFF" fill-opacity="1" stroke-opacity="1"  stroke-width="4" stroke-linecap="round" stroke-linejoin="round" stroke-miterlimit="10" />
</g>
<g transform="matrix(1.3333333 0 0 -1.3333333 608.5 417.5)">
<path d="M-277.74325 272.11084 L-275.46648 273.12292 L-273.41958 271.18417 L-276.0333 268.52077 L-272.01184 263.92862 L-269.96497 264.38734 L-270.95729 262.53511 L-269.29145 260.69012 L-267.59543 262.32163 L-265.5074 261.69341 L-267.07888 259.0701 L-265.61908 258.74639 L-265.40502 255.20371 L-263.28466 258.1842 L-258.38555 256.05008 L-254.64575 257.68446 L-255.17403 255.17095 L-253.87214 253.96675 L-255.37689 251.4702 L-249.50692 251.96323 L-248.84249 250.84163 L-248.85048 246.36887 L-251.33025 244.66161 L-249.17297 242.44706 L-247.96004 243.04557 L-248.06614 241.27862 L-245.47484 241.99749 L-243.77023 238.65969 L-242.07321 239.90663 L-240.69258 238.20606 L-241.75695 236.30823 L-239.51241 234.54734 L-238.64565 231.12096 L-236.38043 230.63571 L-235.23594 234.7325 L-232.23413 234.26921 L-229.00969 231.12711 L-226.68716 231.76688 L-227.99688 235.25173 L-225.09391 237.29826 L-222.00372 235.76257 L-220.63512 238.10181 L-218.34029 236.48344 L-220.66547 234.69264 L-217.24986 233.61294 L-216.87715 232.08931 L-214.96051 233.08278 L-210.17436 228.45435 L-210.04164 225.6769 L-199.36561 227.76628 L-195.65515 226.67818 L-192.45563 223.37791 L-189.52192 223.09498 L-191.04472 221.67255 L-188.62754 222.1998 L-191.00329 219.62882 L-189.67932 218.78784 L-188.21441 220.23625 L-186.05744 216.5319 L-184.2713 217.24398 L-183.72688 213.97897 L-181.9943 214.23628 L-180.95016 216.5799 L-179.62366 214.69687 L-175.22988 216.58513 L-175.2067 215.25332 L-168.74315 211.69071 L-166.80197 212.42725 L-162.02967 208.88635 L-160.97879 210.00577 L-159.80854 206.86252 L-157.48999 207.78429 L-155.8728 206.55539 L-156.38756 208.44997 L-154.76073 209.27829 L-150.27015 205.06807 L-149.96358 200.22636 L-143.54315 199.98315 L-142.99222 198.70702 L-143.54416 201.63903 L-142.36352 202.40771 L-138.67485 200.74056 L-138.91445 199.06089 L-136.89662 200.34962 L-127.46972 199.53417 L-124.21095 195.74618 L-118.66027 193.67559 L-116.88098 195.67955 L-110.20535 192.47757 L-106.58861 194.14108 L-103.23703 193.56725 L-100.5692 195.56138 L-101.03775 197.04575 L-98.372712 194.5403 L-97.98428 198.4292 L-95.974574 196.9102 L-95.458952 198.91724 L-91.198194 199.60661 L-89.010255 201.83814 L-86.074864 196.40633 L-83.811863 195.71571 L-85.693181 193.9277 L-67.471724 184.13008 L-61.331299 184.23857 L-62.516926 180.71298 L-59.481358 181.30992 L-59.294119 184.85136 L-57.117072 184.34163 L-53.6963 182.1272 L-56.134527 180.29013 L-54.754709 178.50592 L-52.689927 179.93814 L-50.411814 178.79473 L-49.507671 182.09371 L-46.292817 178.73769 L-45.983162 181.37855 L-42.237839 179.6545 L-38.910987 182.16537 L-37.248688 179.73186 L-35.505707 180.29992 L-35.184759 182.53402 L-35.042957 179.16924 L-32.136841 180.3316 L-33.836127 182.94136 L-30.425587 181.39627 L-30.691477 185.2107 L-26.996275 187.59829 L-24.830488 186.9869 L-23.574015 189.57678 L-19.826548 187.484 L-22.55493 186.94231 L-24.034569 183.94965 L-22.107901 184.94127 L-18.515728 183.29839 L-17.558956 187.72772 L-15.916464 186.41212 L-17.497302 184.93344 L-15.35847 184.30312 L-16.621113 182.32042 L-14.978852 181.73283 L-13.764684 184.87576 L-12.088359 182.54259 L-12.942284 179.9144 L-11.494503 178.86174 L-13.213959 178.56191 L-11.645736 177.24966 L-13.17705 174.59472 L-15.124776 175.1084 L-13.198454 171.19155 L3.6463562 171.09489 L8.3197314 173.62835 L12.796333 171.51303 L13.706412 173.43158 L18.13382 171.36545 L17.272935 168.65982 L20.249137 167.72514 L23.692676 169.44691 L21.405182 166.59369 L21.601956 163.5191 L23.225339 163.44531 L21.847923 161.92032 L23.545096 161.52677 L21.970906 158.13242 L25.758799 155.23001 L24.47977 152.72115 L26.472105 149.15462 L26.201541 145.95705 L27.455974 146.00624 L25.316059 140.25061 L26.619685 135.57724 L30.014031 132.72402 L34.121681 134.42119 L38.252445 132.54071 L45.505003 137.03007 L46.263065 135.08209 L49.096782 135.93557 L50.252028 139.18771 L46.890759 139.71883 L51.112572 141.71895 L50.099937 144.05043 L55.285222 144.86078 L55.128016 146.9907 L58.70723 146.16648 L59.005143 142.99301 L61.582073 140.84731 L62.61575 142.32355 L60.889858 145.05572 L63.551984 145.82742 L66.993879 139.10154 L69.155795 140.46085 L71.128137 136.24871 L73.050745 136.25696 L73.499199 133.77113 L71.354818 132.62528 L75.554082 132.43415 L74.977364 130.85109 L72.215443 130.81577 L72.615992 127.77425 L74.141275 128.40646 L75.845196 126.79466 L78.21768 128.27566 L78.046974 122.36922 L79.964516 123.41556 L80.982349 120.66492 L84.138667 120.18556 L87.247348 115.99899 L87.71156 118.94099 L89.788146 117.52455 L89.788816 119.66514 L92.390553 117.00743 L89.875756 115.079 L90.265006 113.30126 L94.118512 115.92206 L94.296772 111.29093 L97.323107 110.16769 L93.648772 109.05751 L94.326132 107.3951 L96.982017 106.82387 L96.653321 105.03263 L94.435088 106.38966 L92.169746 103.28804 L94.876817 102.85303 L93.843493 99.185527 L95.797807 94.951052 L98.284541 94.182188 L98.854002 89.846045 L101.81834 89.579126 L100.85298 82.963047 L106.61842 80.119119 L104.88275 78.300848 L105.4913 72.602845 L103.8258 71.001796 L104.14635 68.266826 L105.79255 65.991367 L109.81027 67.492616 L109.88658 64.490769 L107.53223 64.499318 L106.77777 61.936402 L110.07185 58.207452 L109.46016 55.828927 L111.42113 56.33796 L112.96112 54.678534 L110.51816 53.475434 L112.65679 51.249288 L112.22679 46.342503 L114.18743 41.971432 L116.99836 44.480882 L119.912 40.794719 L120.90152 43.48622 L122.45756 36.90869 L126.73856 37.692894 L127.85899 35.878159 L128.82443 39.052148 L130.4202 35.944432 L132.44936 37.163075 L138.12673 34.143557 L138.22349 31.340483 L141.3339 33.277117 L148.57528 32.887474 L149.47512 29.665432 L153.43254 31.036475 L152.10901 29.213989 L154.15214 28.875206 L152.89233 26.868516 L156.47283 26.530452 L158.34736 24.529599 L157.56762 22.826907 L163.25575 24.535636 L163.24939 22.028285 L165.46063 21.45206 L168.73085 14.881836 L171.73892 13.365581 L171.14825 11.360951 L172.78806 11.225728 L170.86044 2.7547556 L171.20082 1.3577047 L175.35224 1.2557302 L174.60465 -5.7566409 L176.98251 -4.8100171 L178.7688 -7.5693726 L181.21069 -6.7774938 L184.5782 -18.381683 L186.52529 -17.117565 L190.04261 -21.445052 L198.54017 -22.93106 L196.75784 -29.147206 L199.48059 -28.691945 L199.60899 -32.45756 L201.50459 -32.400492 L199.08158 -36.970146 L201.74307 -35.194596 L205.05486 -36.398796 L203.25741 -38.30824 L205.10833 -40.624665 L208.36629 -41.461206 L206.06522 -44.123077 L207.24347 -47.285056 L208.8953 -48.914331 L211.30142 -48.5338 L215.04579 -56.002425 L216.37478 -56.604365 L216.45763 -54.788635 L219.18958 -56.479807 L218.33564 -58.313835 L220.55043 -59.768908 L219.53131 -63.61611 L226.1274 -63.629952 L224.46714 -62.507348 L225.89052 -61.126953 L229.64664 -63.007647 L232.1733 -62.122584 L233.00637 -65.303879 L235.22757 -63.415602 L240.89665 -63.293583 L241.72201 -64.573348 L240.33672 -65.983383 L242.27591 -67.728543 L240.91595 -69.543775 L244.17233 -69.869908 L245.73562 -73.241483 L249.67456 -73.444987 L246.69698 -75.189768 L250.32845 -76.903797 L257.64111 -75.342349 L258.67487 -80.18918 L261.62551 -81.066975 L260.7874 -83.344689 L263.09839 -87.655917 L273.06677 -88.386497 L274.71733 -89.506822 L273.4744 -91.457184 L276.91009 -90.689692 L281.13882 -94.049089 L286.11521 -100.14042 L284.51305 -105.15959 L288.14433 -111.68871 L289.76519 -111.49177 L289.65596 -108.4455 L293.9887 -109.70957 L295.4366 -105.08321 L299.24824 -103.12394 L298.45303 -107.69311 L302.06566 -106.93647 L303.59585 -111.29025 L300.45639 -113.42957 L300.88292 -115.31587 L304.4706 -115.66567 L310.25072 -111.69596 L311.24734 -114.48918 L316.08666 -114.63751 L315.49679 -117.512 L323.62039 -116.61639 L324.8145 -119.2569 L328.97595 -119.68431 L327.36858 -121.83068 L328.5013 -129.66024 L331.71422 -131.47221 L331.71613 -134.37021 L336.41222 -134.63813 L335.93835 -137.74641 L339.73012 -138.23783 L343.92827 -141.11156 L343.70612 -144.63453 L340.32043 -143.03876 L339.72258 -143.95574 L347.46855 -150.51509 L347.66382 -152.09799 L345.483 -151.80834 L346.00677 -153.03774 L351.45933 -156.99265 L356.80851 -157.30997 L353.72884 -162.01612 L357.69995 -159.69583 L356.60827 -163.8186 L364.15535 -168.72685 L367.17853 -175.06042 L371.90541 -172.15897 L375.16376 -176.47967 L378.43291 -174.66548 L383.32679 -176.91685 L387.19312 -181.05253 L386.6047 -185.3701 L389.44204 -183.73903 L392.24535 -185.30531 L399.43394 -184.8635 L399.01007 -188.32882 L402.34026 -190.23965 L401.12979 -193.79154 L404.13427 -193.52297 L402.89072 -196.58055 L409.77951 -193.28579 L412.63423 -195.91857 L410.87706 -200.1427 L413.08885 -202.41256 L95.468635 -271.98852 L86.162613 -279.40584 L73.715832 -273.69518 L75.027963 -270.86846 L74.216241 -265.60374 L69.18854 -265.66609 L69.256761 -259.90009 L67.987823 -258.45076 L64.458774 -261.752 L60.104778 -261.40179 L58.593173 -258.60887 L57.048408 -260.42957 L54.777997 -257.32979 L52.225101 -260.27579 L50.515452 -255.92568 L48.469031 -256.90203 L43.83228 -250.7921 L40.580862 -251.09082 L40.371411 -253.73634 L38.431638 -254.27369 L38.864557 -252.33722 L37.441862 -251.1709 L38.771136 -249.22411 L35.272363 -251.21687 L34.986257 -245.70761 L33.285446 -248.39574 L28.024333 -244.80161 L28.66286 -248.27087 L25.993306 -250.42153 L24.705387 -247.38337 L20.152214 -248.60891 L18.030137 -246.33762 L14.527075 -248.57866 L13.028649 -246.42774 L8.3809097 -246.7106 L8.9483439 -243.86153 L5.1920484 -244.32747 L5.0172381 -241.82529 L3.4887871 -243.34766 L1.6566289 -242.4062 L2.6675582 -239.67762 L1.4632692 -236.88823 L1.1696151 -238.53203 L-0.50275657 -238.44034 L-1.7860948 -236.1213 L-3.8467565 -236.05991 L-4.5692646 -239.01359 L-5.2860924 -235.79454 L-7.3706361 -237.31623 L-9.9321037 -232.97062 L-14.311457 -231.00512 L-17.740779 -231.86171 L-17.565517 -235.4137 L-20.422445 -233.46044 L-24.316915 -233.88398 L-27.127258 -231.51087 L-25.873505 -228.24542 L-29.424383 -226.32364 L-29.950343 -228.84873 L-33.498077 -230.92921 L-37.019313 -227.76691 L-36.144291 -225.0838 L-38.086339 -222.70095 L-39.839043 -224.21265 L-41.095675 -220.59314 L-45.932355 -220.40424 L-43.086209 -216.15538 L-47.761141 -215.34464 L-47.791405 -212.30389 L-50.94623 -213.89511 L-51.683257 -211.65051 L-54.794756 -212.05876 L-55.905113 -209.66028 L-56.528026 -212.04064 L-58.25946 -210.45897 L-62.536907 -214.00946 L-67.123441 -207.81492 L-72.300174 -210.15471 L-74.451399 -209.34311 L-78.473095 -203.78778 L-80.153525 -196.57689 L-86.224755 -202.00722 L-86.202961 -207.89799 L-89.43422 -212.03062 L-94.619595 -210.22285 L-94.501552 -208.09896 L-101.53352 -207.95424 L-103.1869 -203.73698 L-100.67116 -202.77226 L-101.34339 -200.03464 L-108.49338 -202.69041 L-109.37496 -199.44387 L-116.44208 -199.14574 L-119.91987 -197.0835 L-119.76 -198.73134 L-122.08482 -199.57257 L-125.93964 -196.34485 L-127.14797 -199.1364 L-128.84978 -197.47483 L-128.29092 -195.49026 L-131.57402 -192.59152 L-132.90214 -195.97701 L-135.06937 -195.02028 L-134.35736 -191.73731 L-137.66941 -193.37394 L-138.32341 -190.35774 L-136.57989 -189.26256 L-139.58499 -188.34481 L-141.04385 -190.67226 L-142.60018 -189.32015 L-143.79337 -190.54862 L-144.28165 -188.30871 L-146.8891 -186.66141 L-149.58212 -187.69938 L-151.25653 -185.01902 L-153.41349 -187.78014 L-163.03533 -188.96415 L-164.83778 -190.41734 L-172.34483 -186.73714 L-177.78962 -188.02409 L-180.61128 -183.93277 L-186.23269 -181.7287 L-190.80384 -177.29603 L-193.47315 -177.54809 L-194.91069 -174.59095 L-197.945 -175.18235 L-201.36624 -173.0772 L-205.20232 -169.47436 L-205.36689 -167.53343 L-207.35315 -169.08747 L-214.26891 -166.6937 L-219.05544 -162.97148 L-217.35663 -162.10635 L-220.54408 -158.75315 L-226.20013 -157.51825 L-226.30541 -160.01631 L-235.13371 -156.02361 L-236.58159 -159.32891 L-241.35833 -157.10995 L-244.80132 -148.47635 L-247.35485 -150.8266 L-249.61616 -148.80082 L-251.5043 -150.08264 L-253.627 -146.64542 L-262.79613 -144.86666 L-264.95637 -138.08839 L-266.52427 -139.77226 L-269.26661 -137.92924 L-272.42534 -139.58526 L-273.56373 -137.04471 L-276.72347 -137.06073 L-275.75718 -132.31474 L-270.46456 -131.7305 L-272.14756 -130.28646 L-270.30578 -126.75487 L-271.15243 -122.97955 L-274.12809 -118.72353 L-275.1361 -112.28381 L-271.37934 -110.80095 L-272.34387 -106.44118 L-270.16847 -106.14405 L-273.4786 -93.847766 L-277.28997 -92.445601 L-279.91146 -86.961925 L-277.87215 -86.94145 L-278.41816 -84.117312 L-281.9085 -80.639483 L-280.74747 -78.18076 L-282.14937 -78.497092 L-285.11682 -71.986191 L-284.04014 -70.106102 L-281.93272 -70.080529 L-284.37273 -68.143702 L-280.25378 -67.568523 L-282.74787 -64.762398 L-282.23166 -63.445332 L-278.04948 -64.05666 L-277.88052 -60.891655 L-279.99552 -61.732972 L-281.64647 -59.360561 L-277.31364 -58.861484 L-281.49343 -56.812046 L-281.2939 -54.717632 L-283.15874 -53.415705 L-281.53475 -51.990115 L-282.79794 -46.334484 L-280.03454 -46.040309 L-278.96662 -43.526944 L-281.83458 -43.006358 L-284.99297 -39.140534 L-286.56828 -32.620268 L-288.64608 -33.633434 L-292.62787 -26.001838 L-293.64995 -27.983936 L-296.79293 -27.85366 L-297.87062 -29.228223 L-300.30212 -27.175255 L-299.38318 -25.968556 L-301.52097 -19.903945 L-306.17556 -20.020402 L-308.08044 -21.868055 L-310.87751 -18.471429 L-313.97891 -17.416546 L-314.48824 -13.153814 L-312.39828 -12.192572 L-313.62617 -9.6970105 L-308.08868 -5.4650985 L-304.43505 3.2623169 L-299.87577 4.4920266 L-293.616 10.593628 L-294.5945 15.413298 L-296.5119 17.197523 L-300.1655 14.936151 L-302.37253 24.288112 L-304.41909 22.543651 L-304.25899 20.304297 L-306.58946 24.741054 L-307.28947 20.867025 L-310.45525 19.918034 L-312.21651 24.958561 L-310.81219 25.2298 L-310.26418 28.537004 L-312.94817 31.703979 L-312.9346 36.382401 L-316.63563 43.760904 L-311.65726 50.430201 L-313.53901 51.685711 L-312.09952 55.074801 L-313.76544 55.874458 L-313.68804 58.797295 L-318.31596 61.581466 L-316.61698 64.414166 L-317.88936 63.749895 L-319.36877 65.652027 L-321.59993 64.812185 L-323.6014 70.319082 L-324.86035 69.102313 L-331.23288 73.124438 L-330.11175 69.784037 L-331.17062 69.103945 L-332.65114 71.044343 L-335.14439 70.875817 L-342.38639 74.743516 L-342.37248 72.02951 L-345.18558 72.126234 L-345.06927 73.838575 L-352.35812 77.347345 L-352.75195 74.252659 L-354.82604 76.191222 L-357.03781 72.107876 L-357.56409 75.153941 L-359.22057 74.962969 L-359.60831 72.510278 L-366.28917 76.698221 L-365.9484 78.910001 L-369.26993 77.415855 L-369.31441 79.439467 L-366.4477 80.674234 L-367.87766 83.13391 L-366.7526 85.000124 L-372.38868 84.197532 L-372.48628 88.495852 L-370.84791 89.741076 L-368.47764 89.025387 L-369.9131 91.264301 L-369.15434 92.894853 L-366.82211 90.607062 L-366.87225 92.352548 L-364.17402 94.385555 L-362.55712 93.80815 L-361.33997 96.139691 L-364.08281 95.325859 L-364.82753 97.866477 L-367.3325 97.93126 L-365.89746 99.504225 L-366.58424 100.89155 L-368.41667 99.36526 L-369.73622 100.47725 L-366.32595 111.29701 L-368.27033 113.03163 L-368.33177 117.29334 L-365.78621 119.51697 L-364.18174 117.99068 L-361.30723 118.55668 L-361.0619 120.44708 L-363.26543 121.04573 L-364.69843 123.82831 L-368.2125 124.68401 L-367.65031 125.97355 L-370.11702 126.52773 L-369.26694 128.06384 L-376.27258 130.99533 L-376.28282 133.77796 L-374.54829 135.38311 L-375.57327 136.85726 L-379.32253 137.53803 L-383.07901 140.68586 L-387.2915 140.47109 L-385.3731 146.28001 L-388.65325 147.3637 L-385.37169 149.08862 L-386.08782 151.2451 L-387.44125 150.48728 L-390.56676 152.52752 L-394.06018 156.59557 L-401.77605 156.75463 L-401.76199 160.86609 L-405.44954 159.91696 L-407.50999 164.37675 L-408.30885 160.88298 L-413.08885 165.01173 L-410.6469 170.4516 L-278.73456 279.40584 L-276.89562 277.76083 L-277.74325 272.11084 Z "  stroke="#000000" fill="none" stroke-opacity="1" stroke-width="2" stroke-linecap="round" stroke-linejoin="round" stroke-miterlimit="10" />
</g>
</g>
</g>
</svg>
