<?xml version="1.0" encoding="utf-8" standalone="no"?>
<!DOCTYPE svg PUBLIC "-//W3C//DTD SVG 1.1//EN" "http://www.w3.org/Graphics/SVG/1.1/DTD/svg11.dtd">
<svg version="1.1" xmlns="http://www.w3.org/2000/svg" xmlns:xlink="http://www.w3.org/1999/xlink" width="644pt" height="626pt" viewBox="0 0 644 626" xml:space="preserve" enable-background="new 0 0 644 626">
<g color-interpolation="linearRGB" transform="scale(0.75,0.75)">
<g id="DETCOG_County_Boundaries_SIMPLIFIED_100m_DougPeu_20231228">
<g transform="matrix(1.3333333 0 0 -1.3333333 429 417.5)">
<path d="M75.863687 280.70828 L77.873801 281.6533 L79.925172 275.38109 L83.482574 272.64738 L84.792058 269.188 L88.459159 267.12158 L91.063576 268.38076 L98.773083 266.76369 L99.851796 268.50061 L106.83707 265.58635 L108.37735 266.91068 L106.01016 268.62356 L108.66895 267.88292 L109.81388 268.915 L115.58877 265.3483 L120.46229 265.13806 L121.14313 263.93162 L122.4551 264.8747 L122.57671 262.52979 L127.01366 265.07451 L130.5725 263.41554 L130.2773 265.54083 L133.18212 266.06596 L134.33887 264.77288 L134.83332 267.81756 L144.27934 270.74341 L146.29183 274.42715 L152.25826 273.43341 L150.57567 271.18447 L156.72533 268.29981 L157.19805 264.3436 L159.3373 262.93711 L161.02183 263.42727 L160.56322 262.1493 L165.83637 260.9644 L164.81868 257.77546 L167.26704 255.63382 L169.95377 255.15213 L170.69652 256.69056 L173.09889 255.19352 L171.3898 250.82541 L167.29236 247.19056 L170.16981 239.54943 L169.59997 237.46707 L168.04836 238.15813 L169.78036 235.42149 L175.60921 235.88243 L180.96259 233.43586 L182.42268 234.07672 L182.47844 230.51498 L184.48808 227.66178 L184.756 230.48795 L186.97209 230.70241 L186.69962 229.15473 L195.80122 223.2477 L194.20585 221.69115 L195.71786 220.44372 L197.37696 221.49285 L199.11427 220.87605 L201.47906 216.95264 L202.31017 213.53056 L201.51466 210.75739 L203.87031 209.02209 L203.23081 208.25357 L201.17378 209.8459 L200.83541 208.29946 L203.28542 205.7301 L202.59146 204.42211 L205.85302 203.53608 L204.51647 201.68267 L204.32332 200.03907 L205.39015 199.70123 L202.91753 199.18225 L202.59624 195.07015 L200.46217 197.26452 L199.42704 195.42258 L197.31832 196.25237 L197.51637 193.93205 L194.42927 191.67485 L194.5001 188.85933 L192.87642 187.01161 L196.51594 186.24667 L196.12344 184.1865 L198.66932 182.74773 L199.18165 179.55485 L198.23987 178.75783 L202.02966 178.90832 L201.98491 180.7967 L202.80677 179.94017 L200.03212 175.96941 L200.14917 173.6335 L206.24431 174.34924 L207.31981 172.13235 L209.48334 171.4391 L214.30754 172.99471 L214.3582 174.88983 L216.51174 172.50678 L219.71409 171.91425 L221.08513 168.97131 L224.91413 171.57589 L225.47102 174.59395 L223.58283 174.68101 L226.58437 175.53389 L228.6113 173.83134 L228.50829 172.26324 L229.79526 172.65945 L232.487 169.93217 L231.26929 168.91689 L233.72146 167.52396 L233.17698 165.93839 L235.87747 164.44652 L235.98746 159.70864 L241.07135 153.88277 L240.56466 152.74259 L245.05452 154.10038 L248.399 152.39969 L247.98705 151.20622 L250.9859 151.09064 L250.27194 153.05134 L256.3205 150.40016 L261.74858 152.39361 L262.04021 153.85529 L265.66472 152.16734 L269.14583 152.28382 L269.06552 150.70672 L270.89009 149.5238 L270.52556 148.08916 L266.43704 146.94567 L265.24492 145.31173 L265.64518 143.87167 L268.6067 142.5049 L268.87243 139.33435 L271.05387 137.53581 L269.43044 131.51331 L273.20011 128.63021 L274.0553 131.25695 L275.24876 127.91545 L278.17848 128.58725 L278.03307 125.49841 L284.09331 125.33507 L286.80515 122.17716 L289.2314 120.59338 L290.28203 121.18165 L290.83795 119.50763 L288.29055 118.16862 L290.83847 117.31914 L290.87734 115.02514 L289.32285 112.85105 L292.61769 112.98479 L295.53375 110.54121 L298.4548 110.00464 L299.23911 108.86243 L297.89527 107.62711 L297.87331 105.49961 L303.23968 103.25379 L302.68289 101.98465 L303.75036 101.79625 L159.69484 -12.848569 L140.1654 -25.279659 L-191.09771 -279.7058 L-198.69479 -283.07149 L-206.19984 -282.5214 L-207.78064 -281.12352 L-209.31362 -275.80661 L-214.34617 -274.39776 L-214.48892 -265.13235 L-221.71731 -255.57964 L-224.462 -244.34604 L-230.31058 -239.69563 L-231.94321 -231.64654 L-236.71968 -229.44294 L-234.84436 -227.28574 L-228.45962 -224.46531 L-227.99269 -221.39117 L-223.73867 -215.93606 L-218.8607 -205.17398 L-225.61188 -201.74601 L-227.19369 -198.7157 L-226.59441 -196.14236 L-221.97147 -190.34055 L-210.04889 -188.29977 L-205.68275 -183.07727 L-203.45707 -183.46743 L-202.27276 -187.07472 L-199.93172 -188.01676 L-196.37085 -183.83656 L-197.1283 -175.2938 L-200.1619 -173.37299 L-209.55705 -172.32404 L-215.46169 -161.77917 L-210.34754 -159.50147 L-214.18615 -157.28955 L-216.01957 -151.57832 L-218.8823 -150.63854 L-220.91133 -147.20457 L-230.34971 -153.87854 L-233.12465 -151.462 L-237.59152 -152.87345 L-239.64604 -149.60208 L-242.68649 -148.08008 L-247.19869 -152.87978 L-250.60014 -147.53496 L-252.29163 -151.96918 L-256.06449 -148.126 L-265.9019 -149.70906 L-267.71031 -147.96858 L-269.4857 -142.24278 L-273.88566 -146.32689 L-277.25869 -144.79573 L-278.33941 -140.17517 L-281.58593 -140.25434 L-284.77155 -138.3602 L-289.92039 -141.38238 L-293.11443 -141.1441 L-297.00197 -133.15659 L-299.45592 -122.79494 L-301.60383 -120.00596 L-301.09357 -117.29729 L-303.75036 -114.18785 L-301.04948 -107.45994 L-303.22711 -101.89898 L-301.72536 -98.138489 L-295.98579 -96.959486 L-293.83608 -93.936188 L-289.31076 -96.610142 L-287.20662 -90.451298 L-282.94292 -86.226475 L-279.06055 -87.454031 L-274.75612 -81.277195 L-270.84249 -81.896714 L-267.52389 -78.817222 L-277.42019 -68.199011 L-279.23986 -64.485924 L-281.3622 -40.905234 L-280.88939 -38.483941 L-276.07504 -31.575081 L-267.61937 -27.019529 L-264.12955 -21.420857 L-265.1734 -11.901292 L-262.50175 -7.4919523 L-265.52281 -2.2068677 L-261.04645 0.69621801 L-265.52243 4.3740695 L-263.39545 14.259359 L-254.7645 17.635493 L-251.62995 21.504282 L-247.57904 21.793866 L-246.95852 23.767497 L-249.81197 25.862713 L-249.70488 27.571052 L-246.57775 32.149309 L-240.32551 36.259702 L-236.68953 36.054997 L-234.78602 32.183868 L-231.2846 28.791414 L-222.99037 34.350664 L-224.22993 37.251563 L-228.63673 39.738313 L-224.42419 40.083777 L-220.75854 44.933282 L-222.8502 52.908193 L-216.35249 56.314533 L-215.09365 55.381481 L-215.13772 51.898449 L-213.57463 51.585133 L-211.692 54.201916 L-210.63331 60.862338 L-212.56773 76.368783 L-223.06229 76.606569 L-226.37958 78.623011 L-223.89894 81.556808 L-222.67828 86.316267 L-215.22091 87.185956 L-216.76837 94.530726 L-217.83869 95.350594 L-223.49133 94.388158 L-224.46454 97.181351 L-228.46405 97.057637 L-231.05224 100.34777 L-235.56766 102.019 L-235.26595 110.51566 L-237.5498 113.137 L-236.55856 117.10617 L-241.11128 117.8531 L-242.62607 119.50484 L-243.42507 126.44878 L-240.41284 130.55441 L-246.19473 135.03533 L-249.79594 143.39633 L-248.97424 153.9658 L-250.44903 159.89101 L-248.88662 166.86431 L-249.46197 172.38754 L-252.56792 176.50111 L-256.39544 178.66828 L-267.49187 175.92775 L-270.86849 176.90546 L-273.83708 174.72256 L-275.09179 175.33838 L-274.50302 181.59245 L-271.19286 183.61663 L-267.03308 188.66348 L-264.01158 188.66725 L-259.7574 185.18475 L-257.44707 185.34282 L-256.39645 186.65604 L-256.89657 191.04066 L-259.96764 195.53341 L-261.95802 202.17755 L-267.54521 198.17178 L-270.49105 199.26718 L-272.64864 202.24369 L-272.71496 205.26471 L-269.60049 207.26847 L-271.70775 211.23749 L-268.82883 214.25385 L-200.26725 232.18967 L-203.36204 245.25949 L-67.041376 264.77989 L74.458551 283.07149 L75.863687 280.70828 Z "  fill="#B2B2B2" fill-rule="evenodd" stroke="#FFFFFF" fill-opacity="1" stroke-opacity="1"  stroke-width="4" stroke-linecap="round" stroke-linejoin="round" stroke-miterlimit="10" />
</g>
<g transform="matrix(1.3333333 0 0 -1.3333333 429 417.5)">
<path d="M75.863687 280.70828 L77.873801 281.6533 L79.925172 275.38109 L83.482574 272.64738 L84.792058 269.188 L88.459159 267.12158 L91.063576 268.38076 L98.773083 266.76369 L99.851796 268.50061 L106.83707 265.58635 L108.37735 266.91068 L106.01016 268.62356 L108.66895 267.88292 L109.81388 268.915 L115.58877 265.3483 L120.46229 265.13806 L121.14313 263.93162 L122.4551 264.8747 L122.57671 262.52979 L127.01366 265.07451 L130.5725 263.41554 L130.2773 265.54083 L133.18212 266.06596 L134.33887 264.77288 L134.83332 267.81756 L144.27934 270.74341 L146.29183 274.42715 L152.25826 273.43341 L150.57567 271.18447 L156.72533 268.29981 L157.19805 264.3436 L159.3373 262.93711 L161.02183 263.42727 L160.56322 262.1493 L165.83637 260.9644 L164.81868 257.77546 L167.26704 255.63382 L169.95377 255.15213 L170.69652 256.69056 L173.09889 255.19352 L171.3898 250.82541 L167.29236 247.19056 L170.16981 239.54943 L169.59997 237.46707 L168.04836 238.15813 L169.78036 235.42149 L175.60921 235.88243 L180.96259 233.43586 L182.42268 234.07672 L182.47844 230.51498 L184.48808 227.66178 L184.756 230.48795 L186.97209 230.70241 L186.69962 229.15473 L195.80122 223.2477 L194.20585 221.69115 L195.71786 220.44372 L197.37696 221.49285 L199.11427 220.87605 L201.47906 216.95264 L202.31017 213.53056 L201.51466 210.75739 L203.87031 209.02209 L203.23081 208.25357 L201.17378 209.8459 L200.83541 208.29946 L203.28542 205.7301 L202.59146 204.42211 L205.85302 203.53608 L204.51647 201.68267 L204.32332 200.03907 L205.39015 199.70123 L202.91753 199.18225 L202.59624 195.07015 L200.46217 197.26452 L199.42704 195.42258 L197.31832 196.25237 L197.51637 193.93205 L194.42927 191.67485 L194.5001 188.85933 L192.87642 187.01161 L196.51594 186.24667 L196.12344 184.1865 L198.66932 182.74773 L199.18165 179.55485 L198.23987 178.75783 L202.02966 178.90832 L201.98491 180.7967 L202.80677 179.94017 L200.03212 175.96941 L200.14917 173.6335 L206.24431 174.34924 L207.31981 172.13235 L209.48334 171.4391 L214.30754 172.99471 L214.3582 174.88983 L216.51174 172.50678 L219.71409 171.91425 L221.08513 168.97131 L224.91413 171.57589 L225.47102 174.59395 L223.58283 174.68101 L226.58437 175.53389 L228.6113 173.83134 L228.50829 172.26324 L229.79526 172.65945 L232.487 169.93217 L231.26929 168.91689 L233.72146 167.52396 L233.17698 165.93839 L235.87747 164.44652 L235.98746 159.70864 L241.07135 153.88277 L240.56466 152.74259 L245.05452 154.10038 L248.399 152.39969 L247.98705 151.20622 L250.9859 151.09064 L250.27194 153.05134 L256.3205 150.40016 L261.74858 152.39361 L262.04021 153.85529 L265.66472 152.16734 L269.14583 152.28382 L269.06552 150.70672 L270.89009 149.5238 L270.52556 148.08916 L266.43704 146.94567 L265.24492 145.31173 L265.64518 143.87167 L268.6067 142.5049 L268.87243 139.33435 L271.05387 137.53581 L269.43044 131.51331 L273.20011 128.63021 L274.0553 131.25695 L275.24876 127.91545 L278.17848 128.58725 L278.03307 125.49841 L284.09331 125.33507 L286.80515 122.17716 L289.2314 120.59338 L290.28203 121.18165 L290.83795 119.50763 L288.29055 118.16862 L290.83847 117.31914 L290.87734 115.02514 L289.32285 112.85105 L292.61769 112.98479 L295.53375 110.54121 L298.4548 110.00464 L299.23911 108.86243 L297.89527 107.62711 L297.87331 105.49961 L303.23968 103.25379 L302.68289 101.98465 L303.75036 101.79625 L159.69484 -12.848569 L140.1654 -25.279659 L-191.09771 -279.7058 L-198.69479 -283.07149 L-206.19984 -282.5214 L-207.78064 -281.12352 L-209.31362 -275.80661 L-214.34617 -274.39776 L-214.48892 -265.13235 L-221.71731 -255.57964 L-224.462 -244.34604 L-230.31058 -239.69563 L-231.94321 -231.64654 L-236.71968 -229.44294 L-234.84436 -227.28574 L-228.45962 -224.46531 L-227.99269 -221.39117 L-223.73867 -215.93606 L-218.8607 -205.17398 L-225.61188 -201.74601 L-227.19369 -198.7157 L-226.59441 -196.14236 L-221.97147 -190.34055 L-210.04889 -188.29977 L-205.68275 -183.07727 L-203.45707 -183.46743 L-202.27276 -187.07472 L-199.93172 -188.01676 L-196.37085 -183.83656 L-197.1283 -175.2938 L-200.1619 -173.37299 L-209.55705 -172.32404 L-215.46169 -161.77917 L-210.34754 -159.50147 L-214.18615 -157.28955 L-216.01957 -151.57832 L-218.8823 -150.63854 L-220.91133 -147.20457 L-230.34971 -153.87854 L-233.12465 -151.462 L-237.59152 -152.87345 L-239.64604 -149.60208 L-242.68649 -148.08008 L-247.19869 -152.87978 L-250.60014 -147.53496 L-252.29163 -151.96918 L-256.06449 -148.126 L-265.9019 -149.70906 L-267.71031 -147.96858 L-269.4857 -142.24278 L-273.88566 -146.32689 L-277.25869 -144.79573 L-278.33941 -140.17517 L-281.58593 -140.25434 L-284.77155 -138.3602 L-289.92039 -141.38238 L-293.11443 -141.1441 L-297.00197 -133.15659 L-299.45592 -122.79494 L-301.60383 -120.00596 L-301.09357 -117.29729 L-303.75036 -114.18785 L-301.04948 -107.45994 L-303.22711 -101.89898 L-301.72536 -98.138489 L-295.98579 -96.959486 L-293.83608 -93.936188 L-289.31076 -96.610142 L-287.20662 -90.451298 L-282.94292 -86.226475 L-279.06055 -87.454031 L-274.75612 -81.277195 L-270.84249 -81.896714 L-267.52389 -78.817222 L-277.42019 -68.199011 L-279.23986 -64.485924 L-281.3622 -40.905234 L-280.88939 -38.483941 L-276.07504 -31.575081 L-267.61937 -27.019529 L-264.12955 -21.420857 L-265.1734 -11.901292 L-262.50175 -7.4919523 L-265.52281 -2.2068677 L-261.04645 0.69621801 L-265.52243 4.3740695 L-263.39545 14.259359 L-254.7645 17.635493 L-251.62995 21.504282 L-247.57904 21.793866 L-246.95852 23.767497 L-249.81197 25.862713 L-249.70488 27.571052 L-246.57775 32.149309 L-240.32551 36.259702 L-236.68953 36.054997 L-234.78602 32.183868 L-231.2846 28.791414 L-222.99037 34.350664 L-224.22993 37.251563 L-228.63673 39.738313 L-224.42419 40.083777 L-220.75854 44.933282 L-222.8502 52.908193 L-216.35249 56.314533 L-215.09365 55.381481 L-215.13772 51.898449 L-213.57463 51.585133 L-211.692 54.201916 L-210.63331 60.862338 L-212.56773 76.368783 L-223.06229 76.606569 L-226.37958 78.623011 L-223.89894 81.556808 L-222.67828 86.316267 L-215.22091 87.185956 L-216.76837 94.530726 L-217.83869 95.350594 L-223.49133 94.388158 L-224.46454 97.181351 L-228.46405 97.057637 L-231.05224 100.34777 L-235.56766 102.019 L-235.26595 110.51566 L-237.5498 113.137 L-236.55856 117.10617 L-241.11128 117.8531 L-242.62607 119.50484 L-243.42507 126.44878 L-240.41284 130.55441 L-246.19473 135.03533 L-249.79594 143.39633 L-248.97424 153.9658 L-250.44903 159.89101 L-248.88662 166.86431 L-249.46197 172.38754 L-252.56792 176.50111 L-256.39544 178.66828 L-267.49187 175.92775 L-270.86849 176.90546 L-273.83708 174.72256 L-275.09179 175.33838 L-274.50302 181.59245 L-271.19286 183.61663 L-267.03308 188.66348 L-264.01158 188.66725 L-259.7574 185.18475 L-257.44707 185.34282 L-256.39645 186.65604 L-256.89657 191.04066 L-259.96764 195.53341 L-261.95802 202.17755 L-267.54521 198.17178 L-270.49105 199.26718 L-272.64864 202.24369 L-272.71496 205.26471 L-269.60049 207.26847 L-271.70775 211.23749 L-268.82883 214.25385 L-200.26725 232.18967 L-203.36204 245.25949 L-67.041376 264.77989 L74.458551 283.07149 L75.863687 280.70828 Z "  stroke="#000000" fill="none" stroke-opacity="1" stroke-width="2" stroke-linecap="round" stroke-linejoin="round" stroke-miterlimit="10" />
</g>
</g>
</g>
</svg>
