<?xml version="1.0" encoding="utf-8" standalone="no"?>
<!DOCTYPE svg PUBLIC "-//W3C//DTD SVG 1.1//EN" "http://www.w3.org/Graphics/SVG/1.1/DTD/svg11.dtd">
<svg version="1.1" xmlns="http://www.w3.org/2000/svg" xmlns:xlink="http://www.w3.org/1999/xlink" width="573pt" height="626pt" viewBox="0 0 573 626" xml:space="preserve" enable-background="new 0 0 573 626">
<g color-interpolation="linearRGB" transform="scale(0.75,0.75)">
<g id="DETCOG_County_Boundaries_SIMPLIFIED_100m_DougPeu_20231228">
<g transform="matrix(1.3333333 0 0 -1.3333333 382 417.5)">
<path d="M250.48448 -18.681251 L253.15305 -18.30436 L253.65635 -17.05936 L252.99334 -19.331111 L252.00399 -18.747561 L251.85895 -19.995225 L250.14218 -20.10643 L254.95704 -20.890167 L255.14926 -23.10491 L256.43421 -23.529205 L255.42004 -26.815537 L256.52946 -29.523336 L254.48917 -29.158831 L254.60452 -33.969473 L253.0776 -36.380035 L253.98204 -37.191993 L252.23841 -36.995886 L252.81514 -37.908089 L251.05248 -38.369997 L250.86847 -37.220004 L250.41812 -39.156173 L249.04107 -39.152239 L252.32189 -40.106993 L252.13386 -41.097013 L248.66158 -40.383112 L247.38945 -37.481037 L245.63684 -37.930981 L247.22361 -40.683731 L246.12735 -43.938525 L247.3023 -46.260996 L244.73039 -47.35075 L245.18793 -49.718933 L243.43415 -50.510332 L243.15987 -53.007649 L243.88746 -56.259654 L245.34194 -55.957812 L246.91315 -58.316382 L246.66608 -59.612998 L245.04887 -59.907855 L245.52023 -60.914362 L248.59502 -62.171389 L246.10754 -66.051347 L247.70013 -69.049846 L245.64253 -71.975525 L247.2082 -73.952496 L244.90884 -72.870319 L245.32505 -75.912883 L243.80108 -75.971926 L245.96775 -77.008837 L244.90921 -77.884025 L245.40376 -79.259034 L243.56149 -78.728399 L245.6382 -81.36037 L243.70258 -83.798964 L241.3985 -83.496619 L240.82863 -87.763961 L238.23663 -87.758144 L241.33686 -88.239504 L241.41234 -89.423434 L242.873 -88.801174 L242.62279 -91.731928 L244.09934 -90.839492 L246.03897 -91.820776 L244.59788 -93.971966 L247.09133 -95.629578 L244.998 -95.034235 L244.76035 -96.704687 L246.68175 -97.616625 L247.21127 -96.548346 L249.74794 -98.480407 L249.64759 -101.86866 L251.28052 -100.86418 L250.78531 -102.67231 L253.49722 -104.43333 L252.19416 -107.81316 L249.51374 -108.74862 L250.99689 -109.65193 L250.85318 -110.93192 L249.60973 -110.50489 L250.77282 -111.49725 L247.4966 -114.16468 L246.79139 -112.85357 L245.89738 -113.45861 L247.23711 -114.85101 L245.60239 -115.09266 L247.78151 -118.92567 L247.21991 -120.24465 L243.55312 -122.14965 L242.62393 -120.56152 L244.51771 -119.43324 L242.2188 -118.67689 L241.08076 -120.8766 L239.58128 -120.17675 L238.65541 -121.43823 L239.84823 -122.00365 L237.96546 -121.56616 L236.00574 -124.2794 L237.11995 -126.45807 L238.234 -126.09935 L236.45232 -127.46663 L238.81642 -131.08206 L238.43689 -132.25771 L237.19802 -131.75809 L236.90919 -134.10909 L239.3257 -134.38606 L237.85961 -136.32451 L239.83635 -139.02978 L236.84467 -143.19937 L236.43731 -145.13505 L237.92263 -145.50281 L236.4901 -146.19855 L236.99614 -148.2007 L235.07262 -148.61946 L237.08094 -149.27476 L236.74824 -151.23551 L235.10412 -151.95206 L236.36847 -152.98473 L233.95554 -152.3439 L234.98811 -154.57941 L232.52378 -157.01974 L234.70618 -158.38552 L233.06516 -159.56864 L236.41283 -161.75807 L236.42784 -167.11741 L237.49953 -166.25168 L239.3725 -167.68654 L238.02184 -169.09074 L240.15329 -170.20165 L238.96897 -170.8979 L240.82665 -172.18276 L240.08684 -173.22433 L241.66414 -172.56141 L242.06704 -174.7351 L242.75139 -173.68123 L242.88108 -175.55785 L241.23161 -176.00574 L244.00632 -176.81157 L243.45956 -178.39751 L245.79457 -180.06547 L243.95339 -180.35729 L242.94001 -184.46184 L241.70933 -184.10144 L244.43053 -187.80947 L243.9985 -189.39388 L242.43325 -189.81837 L242.98157 -192.01378 L240.84823 -190.94218 L241.12523 -192.82721 L239.08384 -192.11669 L238.65812 -193.45741 L241.34906 -196.70892 L241.2672 -199.02594 L239.80369 -198.97663 L242.76102 -200.16635 L241.89648 -202.88202 L244.00478 -204.31036 L243.01062 -205.4535 L241.63756 -205.01261 L241.77755 -206.46714 L244.48042 -206.27 L243.87531 -209.26732 L241.67844 -209.2338 L241.30191 -210.68416 L242.45023 -211.06405 L239.48215 -211.89792 L240.6565 -213.10287 L238.18891 -217.19726 L236.05739 -218.10496 L240.25308 -218.31311 L237.6672 -220.59019 L235.16951 -219.99792 L234.69157 -221.27602 L237.03042 -221.7413 L238.73084 -226.10742 L236.39144 -226.20914 L237.29722 -228.55136 L235.42094 -228.64359 L234.73569 -230.03028 L233.67934 -229.30489 L230.72862 -233.20881 L231.86291 -236.12735 L226.68332 -240.9047 L224.92644 -246.16791 L225.97313 -246.61504 L224.94094 -248.3643 L227.22658 -248.72894 L229.1078 -251.10178 L228.83778 -254.51019 L230.66389 -255.68101 L230.25568 -257.08713 L231.23713 -256.37273 L233.24679 -257.77343 L231.17499 -257.20101 L229.10926 -259.72964 L229.04874 -262.5807 L225.97803 -261.99356 L227.22798 -264.31706 L225.492 -264.52057 L224.7083 -266.57926 L226.83422 -266.52113 L226.93436 -267.43871 L228.27009 -266.59011 L228.26838 -271.02657 L230.00539 -270.29716 L231.99434 -271.51934 L233.86405 -275.89392 L234.90946 -274.68779 L236.42163 -276.48594 L234.65727 -281.08135 L232.22739 -281.12854 L233.60501 -282.34016 L228.88238 -282.85389 L227.71918 -281.39857 L228.94405 -279.20054 L227.09971 -277.90221 L227.85102 -276.60039 L225.63241 -275.22699 L225.56513 -276.70154 L224.48586 -276.21271 L221.44506 -270.14745 L219.49102 -270.45647 L218.14987 -269.13383 L217.19275 -266.56551 L219.06145 -264.40379 L216.41567 -263.72445 L214.91253 -261.84328 L216.37224 -260.29263 L213.68274 -259.3147 L211.52134 -260.75661 L213.48907 -257.04559 L211.94964 -257.09194 L211.84538 -254.0339 L209.63424 -254.40362 L211.08167 -249.3555 L204.1808 -248.14871 L201.32439 -244.63436 L199.74317 -245.66095 L197.00842 -236.23721 L195.02536 -236.88029 L193.57472 -234.63942 L191.64367 -235.40817 L192.25079 -229.71344 L188.87942 -229.63063 L188.603 -228.49608 L190.16841 -221.6168 L188.83672 -221.507 L189.31641 -219.87904 L186.87356 -218.64769 L184.21781 -213.31201 L182.42207 -212.84407 L182.42723 -210.80784 L177.80792 -212.19551 L178.44114 -210.81276 L176.91884 -209.18787 L174.0111 -208.9133 L175.03421 -207.28369 L173.37499 -207.00857 L174.44982 -205.52853 L171.236 -206.64196 L170.50523 -204.02533 L164.62455 -203.70891 L162.09856 -205.28165 L162.02 -203.00528 L157.40941 -200.55313 L155.76153 -201.54279 L154.46561 -199.01902 L153.68158 -201.59661 L152.77168 -200.12286 L149.29506 -200.75971 L148.03141 -195.41811 L147.22785 -197.60388 L144.86167 -194.61035 L142.57891 -196.64826 L140.98668 -193.09852 L141.33588 -189.11372 L139.59911 -187.30588 L141.58303 -186.32883 L140.3324 -184.98122 L138.7399 -185.3946 L139.23667 -183.46302 L136.56154 -180.43474 L137.17424 -178.3534 L139.08621 -178.36034 L139.02424 -175.92255 L135.76144 -177.14171 L134.42457 -175.29382 L134.16426 -173.07273 L135.51681 -171.77252 L135.0226 -167.1452 L136.43213 -165.66856 L131.75003 -163.35903 L132.53399 -157.98611 L130.12666 -157.76936 L129.6642 -154.24796 L127.64473 -153.62359 L126.05764 -150.18478 L126.8968 -147.2064 L124.69839 -146.85313 L126.53808 -144.33431 L128.33949 -145.43636 L128.60642 -143.98168 L126.44957 -143.51778 L125.8995 -142.16773 L128.88342 -141.26617 L126.42573 -140.35399 L126.28098 -136.59307 L123.15155 -138.72141 L122.83544 -137.27771 L124.87771 -135.71162 L122.76484 -133.55331 L122.76429 -135.29168 L121.0779 -134.1414 L120.70092 -136.53059 L118.17636 -133.13068 L115.61311 -132.74139 L114.78654 -130.5076 L113.2293 -131.35733 L113.36791 -126.5607 L111.44124 -127.76344 L110.05746 -126.45449 L108.8188 -126.96791 L108.49354 -124.49787 L110.7365 -124.46921 L111.20482 -123.18359 L107.7946 -123.02839 L109.53607 -122.09785 L109.17187 -120.07911 L107.61053 -120.08582 L106.00879 -116.66514 L104.2531 -117.76904 L101.45787 -112.30692 L99.296043 -112.93363 L100.69763 -115.15245 L99.858167 -116.3513 L97.765451 -114.60877 L97.523505 -112.03159 L94.616802 -111.36228 L94.744532 -113.09195 L90.533554 -113.75005 L91.355913 -115.64344 L87.927383 -117.26774 L90.657065 -117.69906 L89.718892 -120.34012 L87.41762 -121.03322 L86.801979 -119.45128 L80.912232 -123.09708 L77.557633 -121.56994 L74.221815 -122.94821 L71.465271 -120.63112 L70.406598 -116.83588 L72.14442 -112.16174 L71.125697 -112.20169 L71.345421 -109.60494 L69.727449 -106.70857 L70.766147 -104.67113 L67.690004 -102.31408 L68.968402 -99.557539 L67.590129 -99.23794 L68.708727 -97.999493 L67.39038 -97.939567 L67.23058 -95.442698 L69.088251 -93.125603 L66.291757 -94.52385 L63.874787 -93.764802 L64.573911 -91.567556 L60.978419 -89.88966 L60.239345 -91.447706 L56.603903 -89.72986 L52.808661 -91.787281 L39.129013 -91.708785 L37.564649 -88.527911 L39.146395 -88.945075 L40.389973 -86.788999 L39.11642 -85.723324 L40.512797 -85.479813 L39.337044 -84.624952 L40.030516 -82.490606 L38.669177 -80.595851 L37.683166 -83.148219 L36.349476 -82.671045 L37.374865 -81.060878 L35.637923 -80.549013 L36.921722 -79.348162 L35.587799 -78.279758 L34.810876 -81.876828 L31.893646 -80.542654 L30.329016 -81.347945 L31.53063 -78.917613 L33.746347 -78.477708 L30.703042 -76.778154 L29.682663 -78.8814 L27.923821 -78.384893 L24.922952 -80.323849 L25.138897 -83.421535 L22.369198 -82.166769 L23.749174 -84.286159 L21.389135 -85.230111 L21.273963 -82.497576 L21.013322 -84.311889 L19.59785 -84.77321 L18.247882 -82.796952 L15.546167 -84.836037 L12.504622 -83.435921 L12.253125 -85.580577 L9.6423164 -82.855155 L8.9081088 -85.534239 L7.058037 -84.60569 L5.3812332 -85.768791 L4.2606875 -84.319825 L6.240766 -82.827957 L3.4627397 -81.029602 L1.694795 -80.615658 L1.5427287 -83.491666 L-0.92245222 -83.976443 L0.040393844 -81.113314 L-4.9462385 -81.201418 L-19.743863 -73.244786 L-18.216042 -71.792738 L-20.053822 -71.231899 L-22.437649 -66.820733 L-24.21447 -68.632951 L-27.674613 -69.192774 L-28.093362 -70.822701 L-29.72543 -69.589116 L-30.040886 -72.747296 L-32.205148 -70.71262 L-31.82464 -71.918059 L-33.991163 -73.537505 L-36.713009 -73.071499 L-39.650175 -74.422439 L-45.071442 -71.822113 L-46.51639 -73.449525 L-51.024087 -71.768001 L-53.670527 -68.691777 L-61.326126 -68.029552 L-62.964781 -69.076129 L-62.770202 -67.712071 L-65.765767 -66.358184 L-66.724558 -66.982427 L-66.276328 -69.363508 L-66.723744 -68.327164 L-71.937773 -68.129651 L-72.186727 -64.197703 L-75.833529 -60.778586 L-77.154668 -61.451268 L-76.736631 -62.989856 L-78.049984 -61.991862 L-79.932845 -62.740436 L-80.883203 -60.187804 L-81.736634 -61.096888 L-85.612226 -58.221313 L-87.188632 -58.819472 L-92.437669 -55.926279 L-92.456267 -54.844785 L-96.024693 -56.378176 L-97.101917 -54.848959 L-97.949866 -56.752217 L-99.356878 -56.961182 L-99.799022 -54.309663 L-101.24954 -54.887942 L-103.00122 -51.879643 L-104.19086 -53.055902 L-105.26606 -52.37294 L-103.33672 -50.285045 L-105.2997 -50.713231 L-104.06304 -49.558065 L-106.4455 -49.328313 L-109.04382 -46.648162 L-112.0571 -45.764517 L-120.72708 -47.461301 L-120.83485 -45.205737 L-124.72173 -41.446957 L-126.2782 -42.25379 L-126.58088 -41.01644 L-129.35467 -40.139634 L-127.46639 -38.685313 L-129.33003 -37.371054 L-130.44145 -39.270741 L-132.951 -38.023609 L-135.3085 -39.685595 L-134.24488 -42.515641 L-136.13104 -43.035191 L-138.74958 -40.483488 L-141.18734 -40.107265 L-142.11677 -43.434264 L-143.95639 -43.04018 L-144.66026 -40.257608 L-146.48304 -38.827613 L-145.61866 -37.286386 L-146.73987 -35.905355 L-148.11802 -36.917997 L-149.50233 -34.207375 L-151.60673 -34.791172 L-151.52056 -33.356227 L-152.50558 -33.842278 L-154.25751 -32.043837 L-152.24368 -30.657371 L-152.2372 -27.025032 L-152.77677 -26.114207 L-157.54378 -26.51459 L-156.32177 -24.48715 L-157.37903 -23.509227 L-156.95002 -21.467995 L-159.9871 -22.795289 L-163.96566 -21.062166 L-165.60871 -23.519897 L-166.55352 -22.523678 L-165.86144 -20.605611 L-167.04695 -20.342728 L-165.77075 -18.212326 L-167.46643 -17.702169 L-168.8013 -19.054962 L-170.19653 -17.529184 L-169.39075 -16.024586 L-170.89027 -16.468942 L-173.09277 -14.827921 L-172.80549 -13.584958 L-174.32036 -12.464698 L-172.17221 -10.555482 L-173.8585 -8.9304535 L-175.87199 -9.6423265 L-175.17563 -4.8679503 L-177.11071 -3.4845196 L-179.85809 -4.0025769 L-179.60506 -1.9271614 L-181.55743 -1.7922463 L-182.74578 -3.9312757 L-182.91215 -2.5171399 L-188.14089 -2.2675863 L-187.16644 -1.3287898 L-188.84201 -0.84156701 L-190.24426 -1.4713923 L-190.83064 1.0408535 L-188.91888 1.0876447 L-191.44561 3.413839 L-189.30658 4.9312129 L-191.74784 5.4306947 L-190.52928 6.0982545 L-190.61405 8.9698204 L-192.21681 10.280889 L-197.92946 9.2205871 L-199.40937 13.923182 L-197.21847 16.975591 L-199.61476 16.778095 L-200.5364 20.135524 L-201.61605 18.976882 L-202.81419 19.556203 L-201.33955 22.294813 L-199.57629 21.774849 L-194.17037 31.649208 L-195.63581 42.238809 L-204.23094 38.967153 L-210.80333 34.663492 L-213.87408 35.395689 L-217.88923 39.265113 L-218.29987 42.0536 L-220.50762 44.214962 L-219.66624 46.188966 L-220.96595 47.076106 L-216.62065 51.007871 L-220.81164 53.917581 L-221.48869 59.961368 L-223.30855 61.098372 L-222.04773 61.439704 L-222.96082 64.918142 L-221.63777 64.545452 L-220.77437 66.141807 L-221.46385 71.315984 L-224.84911 73.204279 L-223.81801 74.148426 L-225.98582 76.788312 L-225.61934 79.484102 L-226.14732 78.558589 L-227.53248 79.31018 L-226.75252 82.112039 L-228.3642 81.390531 L-232.91931 86.950597 L-233.39719 88.721573 L-232.04085 89.417314 L-232.98686 97.2197 L-237.11845 97.056668 L-238.59118 95.476524 L-239.88251 98.818219 L-241.36479 97.892092 L-242.60361 98.653522 L-240.94469 99.942462 L-241.24067 101.26959 L-240.41957 100.83278 L-240.77761 105.18176 L-239.57221 104.66619 L-239.31442 106.32033 L-237.98006 106.10732 L-241.13536 109.57504 L-238.45283 110.11188 L-238.13295 111.929 L-239.41484 112.37323 L-237.72306 112.76816 L-240.75166 116.52113 L-239.58975 120.03184 L-240.22693 125.87887 L-242.04383 125.9794 L-242.61673 124.55006 L-244.29021 126.16955 L-241.06462 128.26475 L-242.24843 131.43873 L-240.97654 131.06374 L-241.48661 132.64503 L-239.20245 134.23713 L-240.82987 134.92018 L-239.95206 136.23611 L-242.68827 135.63199 L-244.07648 140.81669 L-245.66167 139.45948 L-250.00946 146.83073 L-250.64663 150.8412 L-246.12393 151.4284 L-249.12298 156.5791 L-247.12342 156.43835 L-245.71164 160.6737 L-247.99507 166.81192 L-244.88081 167.37238 L-241.55464 172.86565 L-241.96578 174.06583 L-244.57002 174.46175 L-247.17097 182.64909 L-249.47849 185.56221 L-250.34512 183.90205 L-251.19086 185.76059 L-255.18467 186.54753 L-255.03674 188.23739 L-253.28955 188.70503 L-253.23735 191.56594 L-250.47041 197.50702 L-250.67924 201.4225 L-248.37286 202.09407 L-245.82405 200.2844 L-241.42936 201.78919 L-233.80223 199.3747 L-232.05524 201.74191 L-231.53126 200.22828 L-229.29943 201.10534 L-228.13262 203.28235 L-226.95015 201.74748 L-225.66294 202.84057 L-223.59067 201.22281 L-221.35154 202.45619 L-219.18184 207.699 L-221.42124 211.94481 L-224.32781 212.02047 L-224.66016 213.51252 L-227.63718 214.81364 L-228.47725 217.23498 L-233.06383 218.54348 L-235.77182 216.68488 L-235.2201 217.69479 L-236.67342 219.52224 L-238.39705 217.82513 L-238.30158 214.63774 L-243.85893 223.51831 L-246.39469 222.87404 L-245.72115 223.98247 L-246.89197 225.21727 L-256.07884 226.44858 L-255.29392 227.65778 L-257.5532 231.17928 L-256.74177 231.58235 L-258.38585 236.87522 L-254.75827 238.82159 L-253.92032 237.93061 L-252.48308 239.78683 L-251.35874 238.20639 L-249.17371 239.61181 L-245.16677 240.11249 L-244.8474 238.41323 L-239.74608 239.74877 L-240.65412 240.6672 L-239.20096 241.84988 L-241.12613 242.78859 L-238.03965 243.21308 L-239.4078 244.07203 L-238.48499 245.59413 L-239.93815 247.27533 L-238.72365 248.31482 L-237.5781 247.32307 L-237.55158 249.2111 L-234.24752 248.4421 L-233.26469 255.09325 L-230.5669 258.24292 L-235.05596 266.0385 L-234.02786 266.47588 L-232.6364 264.97183 L-232.56596 266.59419 L-229.90341 268.33531 L-229.17691 266.4097 L-224.7373 271.88578 L-227.04972 277.23215 L-225.06111 276.10586 L-225.98678 278.44292 L-225.21597 279.75223 L-226.74351 279.48122 L-225.758 280.21331 L-226.54641 282.85389 L-82.85948 278.75016 L145.57046 276.03857 L144.56534 274.007 L145.32263 272.12388 L146.08233 272.81055 L149.07465 268.6529 L150.04234 268.93683 L149.22515 267.40305 L150.20004 267.5005 L150.62481 265.33045 L152.70509 264.84075 L154.19262 261.9907 L157.08813 260.66084 L157.31581 257.63118 L158.92501 258.26924 L158.28714 256.8982 L159.94898 255.79015 L158.96921 253.95188 L160.76185 251.31493 L159.90606 247.75302 L161.82284 246.80336 L161.19115 245.18415 L162.38583 243.95758 L163.35035 244.36091 L161.39016 241.45794 L164.21986 239.64437 L163.11222 238.60173 L163.70113 237.50009 L166.19464 236.18858 L165.3897 235.87882 L166.21538 235.07208 L164.97184 234.98438 L166.25831 233.27448 L164.59704 233.26897 L165.16127 230.56827 L163.88091 229.32608 L165.40797 227.52157 L163.21325 225.94143 L163.9384 222.59286 L162.2405 221.84889 L163.35914 221.22256 L162.3062 220.87538 L162.10517 217.33163 L163.50515 215.71844 L160.50671 213.14922 L159.58173 213.72484 L160.01194 212.37754 L161.42696 212.44917 L160.44063 211.15079 L167.86967 204.97184 L167.39644 203.90934 L168.84169 204.56953 L167.89244 202.59789 L168.76799 202.29722 L167.33006 202.24712 L167.16045 201.03667 L168.8661 201.14439 L168.29677 199.13007 L171.57899 197.07309 L170.16867 193.57466 L171.45487 194.31909 L171.39665 192.96974 L173.42248 192.76648 L171.53841 191.88843 L171.45372 190.19165 L172.83548 190.08048 L172.71569 187.67245 L174.49704 187.67128 L172.82278 185.89499 L173.75878 185.29661 L173.09524 178.87814 L174.34109 176.19833 L172.44204 173.18789 L174.09334 171.44547 L171.75857 168.05816 L174.00307 165.23613 L172.9377 164.74164 L173.90991 160.02556 L172.18583 160.27767 L172.84285 158.19258 L171.50792 157.68102 L172.4875 155.87915 L170.64676 151.76958 L172.73856 150.50374 L172.24486 149.04166 L173.35512 149.1272 L173.84303 146.70726 L174.72585 147.36042 L175.53291 146.13373 L173.60171 146.12906 L173.85402 144.54407 L178.24487 141.75182 L175.79223 138.07087 L177.84965 137.06845 L176.45935 135.66979 L177.96288 135.25031 L177.2209 134.0248 L178.46555 134.56148 L178.55184 131.7222 L179.69278 131.8461 L180.37501 129.90966 L178.92943 126.41655 L180.33578 124.47906 L178.42186 121.91609 L180.0241 119.76186 L178.54993 120.08395 L179.38438 117.57221 L177.88734 114.44104 L181.75435 111.10631 L183.01902 111.88313 L180.10306 109.76636 L181.84967 107.97507 L181.43452 106.48887 L184.82207 106.16807 L183.50595 101.68101 L184.84619 98.59255 L186.61092 98.871844 L186.42693 96.566237 L184.68501 95.646046 L187.30336 92.77972 L186.4687 90.959057 L190.6987 91.719286 L191.4563 89.860883 L192.6095 92.377391 L193.11902 90.638148 L194.47187 91.92063 L195.60438 89.416386 L199.01741 88.316022 L201.50002 89.281943 L201.11274 90.661705 L202.35638 91.176016 L203.0335 87.938849 L204.43886 87.09488 L205.9321 88.118142 L205.97364 85.290666 L207.04722 86.851723 L207.34047 84.80044 L208.15301 86.296949 L208.45441 84.180538 L209.67279 84.370943 L209.94203 82.959142 L207.87144 82.89873 L207.36772 81.228402 L209.69052 79.289868 L207.80761 79.465825 L207.76178 77.532185 L209.74929 78.338596 L214.42394 75.42163 L215.89352 76.132938 L216.4972 74.826376 L214.71173 73.85353 L217.55161 70.857107 L215.89222 69.767252 L219.38297 68.760828 L218.67415 66.639896 L219.85115 66.34572 L219.09763 65.696724 L220.48463 61.70313 L222.11539 60.769929 L222.11325 62.614505 L223.86556 63.238026 L224.49325 62.140435 L225.43835 62.662038 L224.46879 60.85152 L226.18393 61.806259 L226.73024 60.918639 L228.57784 63.655314 L228.58137 60.700956 L231.731 58.043903 L231.12025 56.656071 L231.96659 56.226935 L233.33996 58.186795 L232.70191 56.313052 L234.23568 55.319924 L235.22653 56.908703 L234.6393 54.938709 L236.05871 55.241895 L235.79857 53.030007 L238.03579 52.593503 L236.87707 50.185342 L238.48884 51.105604 L238.97753 49.828115 L237.48542 48.536757 L239.96037 47.836051 L241.61847 48.855019 L241.5371 47.203913 L245.79606 46.937159 L246.63002 45.077806 L247.65354 46.655988 L248.57273 44.874056 L250.62514 45.906784 L249.96255 40.70784 L248.63381 40.840797 L248.82969 38.197567 L250.71313 37.114647 L249.13731 37.0858 L248.18048 35.531457 L248.57136 33.599076 L250.73661 34.502192 L250.56356 31.782679 L252.67802 31.103726 L252.06025 29.480694 L253.20145 30.510472 L254.69106 29.604227 L252.362 27.961555 L254.01966 27.58197 L252.47849 26.508974 L254.67772 25.855653 L255.08457 23.019569 L252.99139 19.027104 L253.33345 15.424581 L251.99717 14.845688 L253.42021 12.430283 L251.96003 12.233054 L253.93682 11.620927 L253.93505 9.2590273 L255.11633 9.7643473 L254.45014 8.7462619 L255.75402 7.719717 L253.58216 8.3370234 L254.41019 0.62461307 L252.57507 0.018452104 L254.08026 -1.6860195 L255.31066 -0.84129024 L254.59508 -3.4963262 L256.64705 -3.7599735 L254.93586 -3.9809229 L255.0276 -5.8733712 L253.00858 -6.5878461 L256.31373 -7.2385088 L258.38585 -9.8903069 L252.64118 -11.390556 L253.12681 -13.695976 L251.02222 -12.492515 L250.66722 -13.978935 L252.22775 -14.123689 L253.25261 -15.965939 L251.4548 -16.224073 L250.48448 -18.681251 Z "  fill="#B2B2B2" fill-rule="evenodd" stroke="#FFFFFF" fill-opacity="1" stroke-opacity="1"  stroke-width="4" stroke-linecap="round" stroke-linejoin="round" stroke-miterlimit="10" />
</g>
<g transform="matrix(1.3333333 0 0 -1.3333333 382 417.5)">
<path d="M250.48448 -18.681251 L253.15305 -18.30436 L253.65635 -17.05936 L252.99334 -19.331111 L252.00399 -18.747561 L251.85895 -19.995225 L250.14218 -20.10643 L254.95704 -20.890167 L255.14926 -23.10491 L256.43421 -23.529205 L255.42004 -26.815537 L256.52946 -29.523336 L254.48917 -29.158831 L254.60452 -33.969473 L253.0776 -36.380035 L253.98204 -37.191993 L252.23841 -36.995886 L252.81514 -37.908089 L251.05248 -38.369997 L250.86847 -37.220004 L250.41812 -39.156173 L249.04107 -39.152239 L252.32189 -40.106993 L252.13386 -41.097013 L248.66158 -40.383112 L247.38945 -37.481037 L245.63684 -37.930981 L247.22361 -40.683731 L246.12735 -43.938525 L247.3023 -46.260996 L244.73039 -47.35075 L245.18793 -49.718933 L243.43415 -50.510332 L243.15987 -53.007649 L243.88746 -56.259654 L245.34194 -55.957812 L246.91315 -58.316382 L246.66608 -59.612998 L245.04887 -59.907855 L245.52023 -60.914362 L248.59502 -62.171389 L246.10754 -66.051347 L247.70013 -69.049846 L245.64253 -71.975525 L247.2082 -73.952496 L244.90884 -72.870319 L245.32505 -75.912883 L243.80108 -75.971926 L245.96775 -77.008837 L244.90921 -77.884025 L245.40376 -79.259034 L243.56149 -78.728399 L245.6382 -81.36037 L243.70258 -83.798964 L241.3985 -83.496619 L240.82863 -87.763961 L238.23663 -87.758144 L241.33686 -88.239504 L241.41234 -89.423434 L242.873 -88.801174 L242.62279 -91.731928 L244.09934 -90.839492 L246.03897 -91.820776 L244.59788 -93.971966 L247.09133 -95.629578 L244.998 -95.034235 L244.76035 -96.704687 L246.68175 -97.616625 L247.21127 -96.548346 L249.74794 -98.480407 L249.64759 -101.86866 L251.28052 -100.86418 L250.78531 -102.67231 L253.49722 -104.43333 L252.19416 -107.81316 L249.51374 -108.74862 L250.99689 -109.65193 L250.85318 -110.93192 L249.60973 -110.50489 L250.77282 -111.49725 L247.4966 -114.16468 L246.79139 -112.85357 L245.89738 -113.45861 L247.23711 -114.85101 L245.60239 -115.09266 L247.78151 -118.92567 L247.21991 -120.24465 L243.55312 -122.14965 L242.62393 -120.56152 L244.51771 -119.43324 L242.2188 -118.67689 L241.08076 -120.8766 L239.58128 -120.17675 L238.65541 -121.43823 L239.84823 -122.00365 L237.96546 -121.56616 L236.00574 -124.2794 L237.11995 -126.45807 L238.234 -126.09935 L236.45232 -127.46663 L238.81642 -131.08206 L238.43689 -132.25771 L237.19802 -131.75809 L236.90919 -134.10909 L239.3257 -134.38606 L237.85961 -136.32451 L239.83635 -139.02978 L236.84467 -143.19937 L236.43731 -145.13505 L237.92263 -145.50281 L236.4901 -146.19855 L236.99614 -148.2007 L235.07262 -148.61946 L237.08094 -149.27476 L236.74824 -151.23551 L235.10412 -151.95206 L236.36847 -152.98473 L233.95554 -152.3439 L234.98811 -154.57941 L232.52378 -157.01974 L234.70618 -158.38552 L233.06516 -159.56864 L236.41283 -161.75807 L236.42784 -167.11741 L237.49953 -166.25168 L239.3725 -167.68654 L238.02184 -169.09074 L240.15329 -170.20165 L238.96897 -170.8979 L240.82665 -172.18276 L240.08684 -173.22433 L241.66414 -172.56141 L242.06704 -174.7351 L242.75139 -173.68123 L242.88108 -175.55785 L241.23161 -176.00574 L244.00632 -176.81157 L243.45956 -178.39751 L245.79457 -180.06547 L243.95339 -180.35729 L242.94001 -184.46184 L241.70933 -184.10144 L244.43053 -187.80947 L243.9985 -189.39388 L242.43325 -189.81837 L242.98157 -192.01378 L240.84823 -190.94218 L241.12523 -192.82721 L239.08384 -192.11669 L238.65812 -193.45741 L241.34906 -196.70892 L241.2672 -199.02594 L239.80369 -198.97663 L242.76102 -200.16635 L241.89648 -202.88202 L244.00478 -204.31036 L243.01062 -205.4535 L241.63756 -205.01261 L241.77755 -206.46714 L244.48042 -206.27 L243.87531 -209.26732 L241.67844 -209.2338 L241.30191 -210.68416 L242.45023 -211.06405 L239.48215 -211.89792 L240.6565 -213.10287 L238.18891 -217.19726 L236.05739 -218.10496 L240.25308 -218.31311 L237.6672 -220.59019 L235.16951 -219.99792 L234.69157 -221.27602 L237.03042 -221.7413 L238.73084 -226.10742 L236.39144 -226.20914 L237.29722 -228.55136 L235.42094 -228.64359 L234.73569 -230.03028 L233.67934 -229.30489 L230.72862 -233.20881 L231.86291 -236.12735 L226.68332 -240.9047 L224.92644 -246.16791 L225.97313 -246.61504 L224.94094 -248.3643 L227.22658 -248.72894 L229.1078 -251.10178 L228.83778 -254.51019 L230.66389 -255.68101 L230.25568 -257.08713 L231.23713 -256.37273 L233.24679 -257.77343 L231.17499 -257.20101 L229.10926 -259.72964 L229.04874 -262.5807 L225.97803 -261.99356 L227.22798 -264.31706 L225.492 -264.52057 L224.7083 -266.57926 L226.83422 -266.52113 L226.93436 -267.43871 L228.27009 -266.59011 L228.26838 -271.02657 L230.00539 -270.29716 L231.99434 -271.51934 L233.86405 -275.89392 L234.90946 -274.68779 L236.42163 -276.48594 L234.65727 -281.08135 L232.22739 -281.12854 L233.60501 -282.34016 L228.88238 -282.85389 L227.71918 -281.39857 L228.94405 -279.20054 L227.09971 -277.90221 L227.85102 -276.60039 L225.63241 -275.22699 L225.56513 -276.70154 L224.48586 -276.21271 L221.44506 -270.14745 L219.49102 -270.45647 L218.14987 -269.13383 L217.19275 -266.56551 L219.06145 -264.40379 L216.41567 -263.72445 L214.91253 -261.84328 L216.37224 -260.29263 L213.68274 -259.3147 L211.52134 -260.75661 L213.48907 -257.04559 L211.94964 -257.09194 L211.84538 -254.0339 L209.63424 -254.40362 L211.08167 -249.3555 L204.1808 -248.14871 L201.32439 -244.63436 L199.74317 -245.66095 L197.00842 -236.23721 L195.02536 -236.88029 L193.57472 -234.63942 L191.64367 -235.40817 L192.25079 -229.71344 L188.87942 -229.63063 L188.603 -228.49608 L190.16841 -221.6168 L188.83672 -221.507 L189.31641 -219.87904 L186.87356 -218.64769 L184.21781 -213.31201 L182.42207 -212.84407 L182.42723 -210.80784 L177.80792 -212.19551 L178.44114 -210.81276 L176.91884 -209.18787 L174.0111 -208.9133 L175.03421 -207.28369 L173.37499 -207.00857 L174.44982 -205.52853 L171.236 -206.64196 L170.50523 -204.02533 L164.62455 -203.70891 L162.09856 -205.28165 L162.02 -203.00528 L157.40941 -200.55313 L155.76153 -201.54279 L154.46561 -199.01902 L153.68158 -201.59661 L152.77168 -200.12286 L149.29506 -200.75971 L148.03141 -195.41811 L147.22785 -197.60388 L144.86167 -194.61035 L142.57891 -196.64826 L140.98668 -193.09852 L141.33588 -189.11372 L139.59911 -187.30588 L141.58303 -186.32883 L140.3324 -184.98122 L138.7399 -185.3946 L139.23667 -183.46302 L136.56154 -180.43474 L137.17424 -178.3534 L139.08621 -178.36034 L139.02424 -175.92255 L135.76144 -177.14171 L134.42457 -175.29382 L134.16426 -173.07273 L135.51681 -171.77252 L135.0226 -167.1452 L136.43213 -165.66856 L131.75003 -163.35903 L132.53399 -157.98611 L130.12666 -157.76936 L129.6642 -154.24796 L127.64473 -153.62359 L126.05764 -150.18478 L126.8968 -147.2064 L124.69839 -146.85313 L126.53808 -144.33431 L128.33949 -145.43636 L128.60642 -143.98168 L126.44957 -143.51778 L125.8995 -142.16773 L128.88342 -141.26617 L126.42573 -140.35399 L126.28098 -136.59307 L123.15155 -138.72141 L122.83544 -137.27771 L124.87771 -135.71162 L122.76484 -133.55331 L122.76429 -135.29168 L121.0779 -134.1414 L120.70092 -136.53059 L118.17636 -133.13068 L115.61311 -132.74139 L114.78654 -130.5076 L113.2293 -131.35733 L113.36791 -126.5607 L111.44124 -127.76344 L110.05746 -126.45449 L108.8188 -126.96791 L108.49354 -124.49787 L110.7365 -124.46921 L111.20482 -123.18359 L107.7946 -123.02839 L109.53607 -122.09785 L109.17187 -120.07911 L107.61053 -120.08582 L106.00879 -116.66514 L104.2531 -117.76904 L101.45787 -112.30692 L99.296043 -112.93363 L100.69763 -115.15245 L99.858167 -116.3513 L97.765451 -114.60877 L97.523505 -112.03159 L94.616802 -111.36228 L94.744532 -113.09195 L90.533554 -113.75005 L91.355913 -115.64344 L87.927383 -117.26774 L90.657065 -117.69906 L89.718892 -120.34012 L87.41762 -121.03322 L86.801979 -119.45128 L80.912232 -123.09708 L77.557633 -121.56994 L74.221815 -122.94821 L71.465271 -120.63112 L70.406598 -116.83588 L72.14442 -112.16174 L71.125697 -112.20169 L71.345421 -109.60494 L69.727449 -106.70857 L70.766147 -104.67113 L67.690004 -102.31408 L68.968402 -99.557539 L67.590129 -99.23794 L68.708727 -97.999493 L67.39038 -97.939567 L67.23058 -95.442698 L69.088251 -93.125603 L66.291757 -94.52385 L63.874787 -93.764802 L64.573911 -91.567556 L60.978419 -89.88966 L60.239345 -91.447706 L56.603903 -89.72986 L52.808661 -91.787281 L39.129013 -91.708785 L37.564649 -88.527911 L39.146395 -88.945075 L40.389973 -86.788999 L39.11642 -85.723324 L40.512797 -85.479813 L39.337044 -84.624952 L40.030516 -82.490606 L38.669177 -80.595851 L37.683166 -83.148219 L36.349476 -82.671045 L37.374865 -81.060878 L35.637923 -80.549013 L36.921722 -79.348162 L35.587799 -78.279758 L34.810876 -81.876828 L31.893646 -80.542654 L30.329016 -81.347945 L31.53063 -78.917613 L33.746347 -78.477708 L30.703042 -76.778154 L29.682663 -78.8814 L27.923821 -78.384893 L24.922952 -80.323849 L25.138897 -83.421535 L22.369198 -82.166769 L23.749174 -84.286159 L21.389135 -85.230111 L21.273963 -82.497576 L21.013322 -84.311889 L19.59785 -84.77321 L18.247882 -82.796952 L15.546167 -84.836037 L12.504622 -83.435921 L12.253125 -85.580577 L9.6423164 -82.855155 L8.9081088 -85.534239 L7.058037 -84.60569 L5.3812332 -85.768791 L4.2606875 -84.319825 L6.240766 -82.827957 L3.4627397 -81.029602 L1.694795 -80.615658 L1.5427287 -83.491666 L-0.92245222 -83.976443 L0.040393844 -81.113314 L-4.9462385 -81.201418 L-19.743863 -73.244786 L-18.216042 -71.792738 L-20.053822 -71.231899 L-22.437649 -66.820733 L-24.21447 -68.632951 L-27.674613 -69.192774 L-28.093362 -70.822701 L-29.72543 -69.589116 L-30.040886 -72.747296 L-32.205148 -70.71262 L-31.82464 -71.918059 L-33.991163 -73.537505 L-36.713009 -73.071499 L-39.650175 -74.422439 L-45.071442 -71.822113 L-46.51639 -73.449525 L-51.024087 -71.768001 L-53.670527 -68.691777 L-61.326126 -68.029552 L-62.964781 -69.076129 L-62.770202 -67.712071 L-65.765767 -66.358184 L-66.724558 -66.982427 L-66.276328 -69.363508 L-66.723744 -68.327164 L-71.937773 -68.129651 L-72.186727 -64.197703 L-75.833529 -60.778586 L-77.154668 -61.451268 L-76.736631 -62.989856 L-78.049984 -61.991862 L-79.932845 -62.740436 L-80.883203 -60.187804 L-81.736634 -61.096888 L-85.612226 -58.221313 L-87.188632 -58.819472 L-92.437669 -55.926279 L-92.456267 -54.844785 L-96.024693 -56.378176 L-97.101917 -54.848959 L-97.949866 -56.752217 L-99.356878 -56.961182 L-99.799022 -54.309663 L-101.24954 -54.887942 L-103.00122 -51.879643 L-104.19086 -53.055902 L-105.26606 -52.37294 L-103.33672 -50.285045 L-105.2997 -50.713231 L-104.06304 -49.558065 L-106.4455 -49.328313 L-109.04382 -46.648162 L-112.0571 -45.764517 L-120.72708 -47.461301 L-120.83485 -45.205737 L-124.72173 -41.446957 L-126.2782 -42.25379 L-126.58088 -41.01644 L-129.35467 -40.139634 L-127.46639 -38.685313 L-129.33003 -37.371054 L-130.44145 -39.270741 L-132.951 -38.023609 L-135.3085 -39.685595 L-134.24488 -42.515641 L-136.13104 -43.035191 L-138.74958 -40.483488 L-141.18734 -40.107265 L-142.11677 -43.434264 L-143.95639 -43.04018 L-144.66026 -40.257608 L-146.48304 -38.827613 L-145.61866 -37.286386 L-146.73987 -35.905355 L-148.11802 -36.917997 L-149.50233 -34.207375 L-151.60673 -34.791172 L-151.52056 -33.356227 L-152.50558 -33.842278 L-154.25751 -32.043837 L-152.24368 -30.657371 L-152.2372 -27.025032 L-152.77677 -26.114207 L-157.54378 -26.51459 L-156.32177 -24.48715 L-157.37903 -23.509227 L-156.95002 -21.467995 L-159.9871 -22.795289 L-163.96566 -21.062166 L-165.60871 -23.519897 L-166.55352 -22.523678 L-165.86144 -20.605611 L-167.04695 -20.342728 L-165.77075 -18.212326 L-167.46643 -17.702169 L-168.8013 -19.054962 L-170.19653 -17.529184 L-169.39075 -16.024586 L-170.89027 -16.468942 L-173.09277 -14.827921 L-172.80549 -13.584958 L-174.32036 -12.464698 L-172.17221 -10.555482 L-173.8585 -8.9304535 L-175.87199 -9.6423265 L-175.17563 -4.8679503 L-177.11071 -3.4845196 L-179.85809 -4.0025769 L-179.60506 -1.9271614 L-181.55743 -1.7922463 L-182.74578 -3.9312757 L-182.91215 -2.5171399 L-188.14089 -2.2675863 L-187.16644 -1.3287898 L-188.84201 -0.84156701 L-190.24426 -1.4713923 L-190.83064 1.0408535 L-188.91888 1.0876447 L-191.44561 3.413839 L-189.30658 4.9312129 L-191.74784 5.4306947 L-190.52928 6.0982545 L-190.61405 8.9698204 L-192.21681 10.280889 L-197.92946 9.2205871 L-199.40937 13.923182 L-197.21847 16.975591 L-199.61476 16.778095 L-200.5364 20.135524 L-201.61605 18.976882 L-202.81419 19.556203 L-201.33955 22.294813 L-199.57629 21.774849 L-194.17037 31.649208 L-195.63581 42.238809 L-204.23094 38.967153 L-210.80333 34.663492 L-213.87408 35.395689 L-217.88923 39.265113 L-218.29987 42.0536 L-220.50762 44.214962 L-219.66624 46.188966 L-220.96595 47.076106 L-216.62065 51.007871 L-220.81164 53.917581 L-221.48869 59.961368 L-223.30855 61.098372 L-222.04773 61.439704 L-222.96082 64.918142 L-221.63777 64.545452 L-220.77437 66.141807 L-221.46385 71.315984 L-224.84911 73.204279 L-223.81801 74.148426 L-225.98582 76.788312 L-225.61934 79.484102 L-226.14732 78.558589 L-227.53248 79.31018 L-226.75252 82.112039 L-228.3642 81.390531 L-232.91931 86.950597 L-233.39719 88.721573 L-232.04085 89.417314 L-232.98686 97.2197 L-237.11845 97.056668 L-238.59118 95.476524 L-239.88251 98.818219 L-241.36479 97.892092 L-242.60361 98.653522 L-240.94469 99.942462 L-241.24067 101.26959 L-240.41957 100.83278 L-240.77761 105.18176 L-239.57221 104.66619 L-239.31442 106.32033 L-237.98006 106.10732 L-241.13536 109.57504 L-238.45283 110.11188 L-238.13295 111.929 L-239.41484 112.37323 L-237.72306 112.76816 L-240.75166 116.52113 L-239.58975 120.03184 L-240.22693 125.87887 L-242.04383 125.9794 L-242.61673 124.55006 L-244.29021 126.16955 L-241.06462 128.26475 L-242.24843 131.43873 L-240.97654 131.06374 L-241.48661 132.64503 L-239.20245 134.23713 L-240.82987 134.92018 L-239.95206 136.23611 L-242.68827 135.63199 L-244.07648 140.81669 L-245.66167 139.45948 L-250.00946 146.83073 L-250.64663 150.8412 L-246.12393 151.4284 L-249.12298 156.5791 L-247.12342 156.43835 L-245.71164 160.6737 L-247.99507 166.81192 L-244.88081 167.37238 L-241.55464 172.86565 L-241.96578 174.06583 L-244.57002 174.46175 L-247.17097 182.64909 L-249.47849 185.56221 L-250.34512 183.90205 L-251.19086 185.76059 L-255.18467 186.54753 L-255.03674 188.23739 L-253.28955 188.70503 L-253.23735 191.56594 L-250.47041 197.50702 L-250.67924 201.4225 L-248.37286 202.09407 L-245.82405 200.2844 L-241.42936 201.78919 L-233.80223 199.3747 L-232.05524 201.74191 L-231.53126 200.22828 L-229.29943 201.10534 L-228.13262 203.28235 L-226.95015 201.74748 L-225.66294 202.84057 L-223.59067 201.22281 L-221.35154 202.45619 L-219.18184 207.699 L-221.42124 211.94481 L-224.32781 212.02047 L-224.66016 213.51252 L-227.63718 214.81364 L-228.47725 217.23498 L-233.06383 218.54348 L-235.77182 216.68488 L-235.2201 217.69479 L-236.67342 219.52224 L-238.39705 217.82513 L-238.30158 214.63774 L-243.85893 223.51831 L-246.39469 222.87404 L-245.72115 223.98247 L-246.89197 225.21727 L-256.07884 226.44858 L-255.29392 227.65778 L-257.5532 231.17928 L-256.74177 231.58235 L-258.38585 236.87522 L-254.75827 238.82159 L-253.92032 237.93061 L-252.48308 239.78683 L-251.35874 238.20639 L-249.17371 239.61181 L-245.16677 240.11249 L-244.8474 238.41323 L-239.74608 239.74877 L-240.65412 240.6672 L-239.20096 241.84988 L-241.12613 242.78859 L-238.03965 243.21308 L-239.4078 244.07203 L-238.48499 245.59413 L-239.93815 247.27533 L-238.72365 248.31482 L-237.5781 247.32307 L-237.55158 249.2111 L-234.24752 248.4421 L-233.26469 255.09325 L-230.5669 258.24292 L-235.05596 266.0385 L-234.02786 266.47588 L-232.6364 264.97183 L-232.56596 266.59419 L-229.90341 268.33531 L-229.17691 266.4097 L-224.7373 271.88578 L-227.04972 277.23215 L-225.06111 276.10586 L-225.98678 278.44292 L-225.21597 279.75223 L-226.74351 279.48122 L-225.758 280.21331 L-226.54641 282.85389 L-82.85948 278.75016 L145.57046 276.03857 L144.56534 274.007 L145.32263 272.12388 L146.08233 272.81055 L149.07465 268.6529 L150.04234 268.93683 L149.22515 267.40305 L150.20004 267.5005 L150.62481 265.33045 L152.70509 264.84075 L154.19262 261.9907 L157.08813 260.66084 L157.31581 257.63118 L158.92501 258.26924 L158.28714 256.8982 L159.94898 255.79015 L158.96921 253.95188 L160.76185 251.31493 L159.90606 247.75302 L161.82284 246.80336 L161.19115 245.18415 L162.38583 243.95758 L163.35035 244.36091 L161.39016 241.45794 L164.21986 239.64437 L163.11222 238.60173 L163.70113 237.50009 L166.19464 236.18858 L165.3897 235.87882 L166.21538 235.07208 L164.97184 234.98438 L166.25831 233.27448 L164.59704 233.26897 L165.16127 230.56827 L163.88091 229.32608 L165.40797 227.52157 L163.21325 225.94143 L163.9384 222.59286 L162.2405 221.84889 L163.35914 221.22256 L162.3062 220.87538 L162.10517 217.33163 L163.50515 215.71844 L160.50671 213.14922 L159.58173 213.72484 L160.01194 212.37754 L161.42696 212.44917 L160.44063 211.15079 L167.86967 204.97184 L167.39644 203.90934 L168.84169 204.56953 L167.89244 202.59789 L168.76799 202.29722 L167.33006 202.24712 L167.16045 201.03667 L168.8661 201.14439 L168.29677 199.13007 L171.57899 197.07309 L170.16867 193.57466 L171.45487 194.31909 L171.39665 192.96974 L173.42248 192.76648 L171.53841 191.88843 L171.45372 190.19165 L172.83548 190.08048 L172.71569 187.67245 L174.49704 187.67128 L172.82278 185.89499 L173.75878 185.29661 L173.09524 178.87814 L174.34109 176.19833 L172.44204 173.18789 L174.09334 171.44547 L171.75857 168.05816 L174.00307 165.23613 L172.9377 164.74164 L173.90991 160.02556 L172.18583 160.27767 L172.84285 158.19258 L171.50792 157.68102 L172.4875 155.87915 L170.64676 151.76958 L172.73856 150.50374 L172.24486 149.04166 L173.35512 149.1272 L173.84303 146.70726 L174.72585 147.36042 L175.53291 146.13373 L173.60171 146.12906 L173.85402 144.54407 L178.24487 141.75182 L175.79223 138.07087 L177.84965 137.06845 L176.45935 135.66979 L177.96288 135.25031 L177.2209 134.0248 L178.46555 134.56148 L178.55184 131.7222 L179.69278 131.8461 L180.37501 129.90966 L178.92943 126.41655 L180.33578 124.47906 L178.42186 121.91609 L180.0241 119.76186 L178.54993 120.08395 L179.38438 117.57221 L177.88734 114.44104 L181.75435 111.10631 L183.01902 111.88313 L180.10306 109.76636 L181.84967 107.97507 L181.43452 106.48887 L184.82207 106.16807 L183.50595 101.68101 L184.84619 98.59255 L186.61092 98.871844 L186.42693 96.566237 L184.68501 95.646046 L187.30336 92.77972 L186.4687 90.959057 L190.6987 91.719286 L191.4563 89.860883 L192.6095 92.377391 L193.11902 90.638148 L194.47187 91.92063 L195.60438 89.416386 L199.01741 88.316022 L201.50002 89.281943 L201.11274 90.661705 L202.35638 91.176016 L203.0335 87.938849 L204.43886 87.09488 L205.9321 88.118142 L205.97364 85.290666 L207.04722 86.851723 L207.34047 84.80044 L208.15301 86.296949 L208.45441 84.180538 L209.67279 84.370943 L209.94203 82.959142 L207.87144 82.89873 L207.36772 81.228402 L209.69052 79.289868 L207.80761 79.465825 L207.76178 77.532185 L209.74929 78.338596 L214.42394 75.42163 L215.89352 76.132938 L216.4972 74.826376 L214.71173 73.85353 L217.55161 70.857107 L215.89222 69.767252 L219.38297 68.760828 L218.67415 66.639896 L219.85115 66.34572 L219.09763 65.696724 L220.48463 61.70313 L222.11539 60.769929 L222.11325 62.614505 L223.86556 63.238026 L224.49325 62.140435 L225.43835 62.662038 L224.46879 60.85152 L226.18393 61.806259 L226.73024 60.918639 L228.57784 63.655314 L228.58137 60.700956 L231.731 58.043903 L231.12025 56.656071 L231.96659 56.226935 L233.33996 58.186795 L232.70191 56.313052 L234.23568 55.319924 L235.22653 56.908703 L234.6393 54.938709 L236.05871 55.241895 L235.79857 53.030007 L238.03579 52.593503 L236.87707 50.185342 L238.48884 51.105604 L238.97753 49.828115 L237.48542 48.536757 L239.96037 47.836051 L241.61847 48.855019 L241.5371 47.203913 L245.79606 46.937159 L246.63002 45.077806 L247.65354 46.655988 L248.57273 44.874056 L250.62514 45.906784 L249.96255 40.70784 L248.63381 40.840797 L248.82969 38.197567 L250.71313 37.114647 L249.13731 37.0858 L248.18048 35.531457 L248.57136 33.599076 L250.73661 34.502192 L250.56356 31.782679 L252.67802 31.103726 L252.06025 29.480694 L253.20145 30.510472 L254.69106 29.604227 L252.362 27.961555 L254.01966 27.58197 L252.47849 26.508974 L254.67772 25.855653 L255.08457 23.019569 L252.99139 19.027104 L253.33345 15.424581 L251.99717 14.845688 L253.42021 12.430283 L251.96003 12.233054 L253.93682 11.620927 L253.93505 9.2590273 L255.11633 9.7643473 L254.45014 8.7462619 L255.75402 7.719717 L253.58216 8.3370234 L254.41019 0.62461307 L252.57507 0.018452104 L254.08026 -1.6860195 L255.31066 -0.84129024 L254.59508 -3.4963262 L256.64705 -3.7599735 L254.93586 -3.9809229 L255.0276 -5.8733712 L253.00858 -6.5878461 L256.31373 -7.2385088 L258.38585 -9.8903069 L252.64118 -11.390556 L253.12681 -13.695976 L251.02222 -12.492515 L250.66722 -13.978935 L252.22775 -14.123689 L253.25261 -15.965939 L251.4548 -16.224073 L250.48448 -18.681251 Z "  stroke="#000000" fill="none" stroke-opacity="1" stroke-width="2" stroke-linecap="round" stroke-linejoin="round" stroke-miterlimit="10" />
</g>
</g>
</g>
</svg>
