<?xml version="1.0" encoding="utf-8" standalone="no"?>
<!DOCTYPE svg PUBLIC "-//W3C//DTD SVG 1.1//EN" "http://www.w3.org/Graphics/SVG/1.1/DTD/svg11.dtd">
<svg version="1.1" xmlns="http://www.w3.org/2000/svg" xmlns:xlink="http://www.w3.org/1999/xlink" width="233pt" height="626pt" viewBox="0 0 233 626" xml:space="preserve" enable-background="new 0 0 233 626">
<g color-interpolation="linearRGB" transform="scale(0.75,0.75)">
<g id="DETCOG_County_Boundaries_SIMPLIFIED_100m_DougPeu_20231228">
<g transform="matrix(1.3333333 0 0 -1.3333333 155.5 417.5)">
<path d="M-89.44387 -55.079606 L-85.539421 19.099877 L-83.348067 106.5075 L-81.354815 139.04214 L-103.74426 265.65718 L56.459871 275.3826 L62.750511 268.95461 L67.871822 270.38508 L72.141818 276.12069 L77.344602 279.43446 L81.325904 280.71389 L79.693008 282.12445 L81.228478 283.28099 L85.445377 279.55879 L90.440491 280.82629 L91.854096 277.55443 L91.409955 274.41254 L89.51167 272.86023 L85.789331 271.90062 L89.299229 264.69045 L86.950737 263.09345 L83.568288 263.34166 L82.84432 259.72664 L85.391443 250.16029 L88.471066 245.38126 L87.904847 239.22169 L87.121372 237.74251 L84.003736 236.19762 L82.447908 232.57846 L82.390803 229.80163 L78.794505 228.23919 L79.049089 226.3369 L76.089666 228.48218 L74.975204 226.51751 L77.646626 224.54401 L79.096298 221.77006 L80.640022 222.21764 L82.096824 224.36303 L82.710908 224.05908 L82.711477 222.45439 L80.856865 220.20733 L80.843212 216.79003 L87.067143 216.43607 L90.860772 214.27934 L93.525216 213.98932 L93.504713 212.34843 L90.133933 213.40192 L88.708427 212.17588 L91.793998 211.76838 L94.358262 209.47684 L97.912785 208.27551 L98.137765 206.64342 L96.880349 203.71323 L92.554817 203.918 L91.113784 202.36904 L93.803012 198.09768 L97.935566 195.56567 L97.341539 194.16276 L94.811842 193.55119 L95.198085 192.24663 L102.75629 189.5159 L103.74426 187.92517 L96.192758 181.5503 L91.813245 181.97671 L90.562599 181.35665 L87.293352 174.3833 L82.105638 175.8999 L78.697014 171.94247 L73.105484 177.6698 L70.194116 174.85071 L72.605638 172.3899 L72.040371 170.27886 L70.709316 170.16462 L69.456892 173.08333 L67.131973 169.76955 L68.913992 165.4946 L74.553105 163.24056 L72.250054 156.0912 L69.08916 153.77735 L69.603352 152.28002 L73.16523 151.08243 L76.943319 152.47534 L79.609173 150.2772 L82.460546 149.50455 L84.009594 144.04222 L86.95977 143.44113 L91.314568 144.42427 L91.734673 142.3887 L90.741005 138.81108 L92.084555 134.94986 L94.066859 132.43967 L93.093958 126.24595 L85.423247 121.76647 L84.542711 122.59885 L85.546009 125.6533 L83.152736 125.69116 L80.067162 119.9557 L76.978262 117.29509 L77.517058 115.87419 L80.289632 114.05666 L79.565931 110.70124 L82.051764 109.32538 L82.103398 108.22971 L72.759298 106.42517 L68.877411 101.1164 L71.235196 94.663119 L74.977424 94.166993 L74.182968 90.728966 L77.135433 90.640533 L75.145174 85.234187 L77.429538 80.822011 L71.553258 76.131919 L74.564575 74.749857 L75.740421 77.776737 L76.512868 77.752487 L76.558316 74.481088 L80.015951 70.845884 L77.943514 66.258048 L78.889218 63.528656 L74.280686 60.673871 L73.687049 58.867617 L72.429372 58.413849 L75.566271 56.06715 L75.691255 54.792907 L74.516177 53.343207 L68.289302 50.716251 L64.341827 51.404353 L63.380271 50.708118 L64.912121 43.874757 L63.989167 42.417709 L60.865702 41.545072 L64.215867 36.968667 L63.350547 35.890989 L60.180294 36.111787 L59.080102 35.048243 L59.215131 28.152328 L52.831484 25.703955 L52.201478 28.693088 L52.146544 26.617193 L50.256569 24.392738 L48.846385 26.480005 L47.756634 26.032572 L47.588769 23.499428 L51.030354 18.23514 L49.970743 16.704041 L46.15118 16.172612 L45.210638 14.428425 L46.041608 12.739763 L49.474843 10.884159 L50.641099 8.0032772 L49.248606 6.5101965 L46.666178 7.7036413 L45.807765 7.2225236 L47.066715 3.5574792 L46.228917 1.1401403 L46.721542 -2.3643665 L44.700269 -4.9191013 L44.211456 -7.9525382 L42.269786 -10.530407 L44.261325 -13.694586 L41.010955 -17.261726 L39.256488 -22.683859 L36.221147 -24.153787 L34.430288 -26.398551 L32.068615 -25.745355 L32.242858 -28.063971 L30.532187 -28.964526 L29.146814 -29.241281 L26.828805 -27.354844 L23.586093 -32.923001 L20.131777 -33.006756 L18.263927 -35.562522 L17.022967 -34.775558 L18.34639 -37.114171 L18.070844 -38.467808 L16.217134 -39.882245 L15.561304 -42.217667 L11.613581 -45.196382 L12.254847 -46.953765 L14.738332 -47.306323 L15.08431 -48.288316 L13.495533 -47.571519 L13.112011 -49.585119 L10.977962 -51.007048 L10.870869 -52.442465 L9.0003655 -50.938796 L8.2568211 -51.330998 L8.8065345 -52.884244 L11.136413 -53.384281 L10.981041 -55.451461 L12.56679 -57.134452 L12.454457 -58.32204 L9.9517473 -60.533691 L8.6905931 -63.247568 L11.584935 -64.751772 L12.239001 -67.96907 L13.988513 -70.381741 L13.686364 -73.731313 L10.431416 -74.306463 L10.719112 -77.641882 L10.004348 -78.298044 L6.7948862 -78.032915 L6.9128566 -76.722395 L9.2493295 -74.845694 L6.6222485 -73.115736 L2.418215 -74.688161 L4.5173026 -77.296805 L3.6304634 -78.579872 L2.3043535 -78.451765 L1.1312822 -76.098988 L0.3274793 -78.410057 L-1.9688592 -76.293171 L-4.1016842 -76.452621 L-4.1934379 -80.130365 L-2.5853703 -81.169058 L-2.8887636 -82.325652 L-6.8208709 -82.964721 L-8.3939617 -81.058397 L-6.621108 -83.667851 L-7.9623388 -83.942168 L-9.4427647 -82.660897 L-11.869658 -85.469575 L-10.749965 -88.249115 L-11.81292 -90.071791 L-9.4736753 -93.501445 L-10.299933 -95.405072 L-13.646397 -97.745324 L-12.173735 -102.45875 L-18.20178 -105.53266 L-17.409889 -107.16005 L-14.082916 -107.49417 L-14.872893 -110.06856 L-14.390463 -111.61373 L-11.653474 -114.31874 L-7.9990364 -114.8169 L-6.516376 -117.79842 L-4.3301319 -118.54768 L-2.1258477 -116.35833 L-1.319302 -116.76387 L-2.9710926 -119.02672 L-2.6986753 -121.13459 L-3.7461587 -122.74976 L-1.6137307 -122.96755 L-0.66415735 -124.04851 L-0.84786923 -125.21392 L-3.23868 -126.25299 L-5.1271004 -128.88269 L-4.0784472 -129.81795 L-2.2158185 -128.71765 L-1.9849038 -130.11747 L-3.2845904 -131.22738 L-5.4590914 -130.99283 L-6.0864571 -132.79219 L-2.4968439 -139.50347 L-3.8171934 -140.20642 L-5.5449668 -138.35713 L-6.5728674 -139.58258 L-2.9824036 -144.15058 L-3.7849059 -148.06983 L-0.81404157 -149.39808 L2.7991297 -154.33096 L2.2588936 -155.19534 L0.2065957 -154.56024 L-1.3607212 -155.11946 L-1.3718121 -156.45495 L1.0993359 -159.67896 L-1.6401405 -162.66134 L-0.26318496 -163.76079 L2.9202167 -162.35127 L3.6866882 -164.09279 L2.9726679 -166.76573 L0.085612051 -168.9546 L0.99552326 -171.65049 L-2.413865 -171.24169 L-4.3474245 -169.44214 L-5.0111433 -171.75744 L-6.6669735 -172.87436 L-6.9400894 -175.93596 L-8.0143903 -175.6581 L-7.8395608 -173.6554 L-9.6750703 -170.13797 L-11.438633 -171.07751 L-11.713671 -175.01335 L-9.3028725 -177.42266 L-12.110789 -177.98637 L-12.961715 -181.46754 L-15.675406 -180.63042 L-16.344821 -185.373 L-19.704953 -187.85 L-19.410422 -189.23982 L-16.857356 -189.65858 L-20.272872 -192.19785 L-18.192411 -192.41063 L-18.046886 -193.39945 L-21.354923 -193.37005 L-20.982562 -195.55755 L-22.174828 -196.29154 L-23.266346 -193.73001 L-21.680719 -192.21208 L-23.822983 -191.20257 L-25.148928 -192.09775 L-25.17181 -194.09954 L-28.324351 -195.2727 L-28.152778 -197.75156 L-26.056672 -197.97292 L-26.72272 -198.97594 L-28.189144 -198.62003 L-26.611233 -201.87964 L-26.587616 -210.01203 L-27.706114 -209.70695 L-28.106318 -207.12541 L-29.017477 -207.87342 L-27.946801 -210.47665 L-24.501375 -213.47365 L-26.960172 -213.43281 L-27.713804 -215.8929 L-28.954857 -212.86833 L-29.81002 -213.21867 L-28.859981 -216.71902 L-30.737261 -217.36896 L-27.950219 -219.35232 L-30.833143 -222.05118 L-29.336068 -222.48876 L-29.093469 -224.27605 L-29.90735 -224.43513 L-31.637075 -222.67857 L-32.487697 -223.14174 L-30.810046 -225.84117 L-28.466055 -225.94418 L-32.565114 -229.6154 L-30.760205 -231.77412 L-28.442616 -230.92758 L-28.009173 -229.6237 L-26.717966 -230.80838 L-26.998026 -232.72484 L-24.883833 -231.67505 L-25.39135 -232.84623 L-27.556227 -233.59529 L-26.402388 -234.86098 L-28.258098 -236.12575 L-27.293124 -237.06412 L-25.558099 -235.7314 L-24.235493 -236.74505 L-24.632959 -237.62872 L-22.945596 -238.12409 L-24.272308 -239.13951 L-24.025096 -239.86973 L-22.227454 -240.10332 L-23.531417 -242.07232 L-19.79225 -239.27345 L-18.668374 -239.68778 L-19.163872 -241.22689 L-20.755135 -242.3815 L-20.193087 -243.55456 L-17.802549 -244.66258 L-21.284194 -245.97268 L-20.456487 -248.65554 L-18.28897 -246.92892 L-16.201507 -248.36417 L-17.950787 -249.72583 L-15.104981 -249.83445 L-13.012089 -251.51806 L-11.268614 -250.26148 L-10.878436 -252.47465 L-7.9856747 -251.55753 L-6.4488218 -253.71412 L-5.7200327 -253.41677 L-6.1314649 -251.9404 L-4.5273044 -254.28731 L-5.3066298 -255.79544 L-4.8058904 -256.94128 L-3.3805147 -256.18764 L-3.0336661 -253.8409 L-1.3520827 -254.28927 L-0.71686053 -256.13464 L-1.3905995 -258.49862 L-3.1332785 -259.24584 L-2.6559128 -261.05612 L-0.53278794 -260.81618 L-0.88188833 -258.959 L1.2774426 -258.4586 L-1.3847552 -262.80341 L-2.0902496 -265.66889 L-3.8278501 -265.28455 L-2.6272935 -266.16235 L-2.9816395 -268.85912 L-1.2882172 -268.61723 L-2.9326439 -269.96082 L-1.581864 -269.9974 L-2.6358297 -271.08337 L-2.2685071 -272.58151 L0.094452788 -272.8299 L-0.89242604 -274.67263 L0.046303546 -275.4006 L1.5746888 -274.6651 L-0.49359895 -276.63961 L-0.79991305 -275.44331 L-1.5621962 -275.87727 L-1.4051098 -277.14037 L-2.8420437 -278.46309 L-2.3464941 -279.93146 L-3.3460868 -279.94501 L-1.7849018 -281.91265 L-4.011111 -281.95511 L-2.4865593 -282.74799 L-103.26458 -283.28099 L-102.67677 -274.33721 L-101.97396 -274.17841 L-102.62937 -273.55952 L-89.44387 -55.079606 Z "  fill="#B2B2B2" fill-rule="evenodd" stroke="#FFFFFF" fill-opacity="1" stroke-opacity="1"  stroke-width="4" stroke-linecap="round" stroke-linejoin="round" stroke-miterlimit="10" />
</g>
<g transform="matrix(1.3333333 0 0 -1.3333333 155.5 417.5)">
<path d="M-89.44387 -55.079606 L-85.539421 19.099877 L-83.348067 106.5075 L-81.354815 139.04214 L-103.74426 265.65718 L56.459871 275.3826 L62.750511 268.95461 L67.871822 270.38508 L72.141818 276.12069 L77.344602 279.43446 L81.325904 280.71389 L79.693008 282.12445 L81.228478 283.28099 L85.445377 279.55879 L90.440491 280.82629 L91.854096 277.55443 L91.409955 274.41254 L89.51167 272.86023 L85.789331 271.90062 L89.299229 264.69045 L86.950737 263.09345 L83.568288 263.34166 L82.84432 259.72664 L85.391443 250.16029 L88.471066 245.38126 L87.904847 239.22169 L87.121372 237.74251 L84.003736 236.19762 L82.447908 232.57846 L82.390803 229.80163 L78.794505 228.23919 L79.049089 226.3369 L76.089666 228.48218 L74.975204 226.51751 L77.646626 224.54401 L79.096298 221.77006 L80.640022 222.21764 L82.096824 224.36303 L82.710908 224.05908 L82.711477 222.45439 L80.856865 220.20733 L80.843212 216.79003 L87.067143 216.43607 L90.860772 214.27934 L93.525216 213.98932 L93.504713 212.34843 L90.133933 213.40192 L88.708427 212.17588 L91.793998 211.76838 L94.358262 209.47684 L97.912785 208.27551 L98.137765 206.64342 L96.880349 203.71323 L92.554817 203.918 L91.113784 202.36904 L93.803012 198.09768 L97.935566 195.56567 L97.341539 194.16276 L94.811842 193.55119 L95.198085 192.24663 L102.75629 189.5159 L103.74426 187.92517 L96.192758 181.5503 L91.813245 181.97671 L90.562599 181.35665 L87.293352 174.3833 L82.105638 175.8999 L78.697014 171.94247 L73.105484 177.6698 L70.194116 174.85071 L72.605638 172.3899 L72.040371 170.27886 L70.709316 170.16462 L69.456892 173.08333 L67.131973 169.76955 L68.913992 165.4946 L74.553105 163.24056 L72.250054 156.0912 L69.08916 153.77735 L69.603352 152.28002 L73.16523 151.08243 L76.943319 152.47534 L79.609173 150.2772 L82.460546 149.50455 L84.009594 144.04222 L86.95977 143.44113 L91.314568 144.42427 L91.734673 142.3887 L90.741005 138.81108 L92.084555 134.94986 L94.066859 132.43967 L93.093958 126.24595 L85.423247 121.76647 L84.542711 122.59885 L85.546009 125.6533 L83.152736 125.69116 L80.067162 119.9557 L76.978262 117.29509 L77.517058 115.87419 L80.289632 114.05666 L79.565931 110.70124 L82.051764 109.32538 L82.103398 108.22971 L72.759298 106.42517 L68.877411 101.1164 L71.235196 94.663119 L74.977424 94.166993 L74.182968 90.728966 L77.135433 90.640533 L75.145174 85.234187 L77.429538 80.822011 L71.553258 76.131919 L74.564575 74.749857 L75.740421 77.776737 L76.512868 77.752487 L76.558316 74.481088 L80.015951 70.845884 L77.943514 66.258048 L78.889218 63.528656 L74.280686 60.673871 L73.687049 58.867617 L72.429372 58.413849 L75.566271 56.06715 L75.691255 54.792907 L74.516177 53.343207 L68.289302 50.716251 L64.341827 51.404353 L63.380271 50.708118 L64.912121 43.874757 L63.989167 42.417709 L60.865702 41.545072 L64.215867 36.968667 L63.350547 35.890989 L60.180294 36.111787 L59.080102 35.048243 L59.215131 28.152328 L52.831484 25.703955 L52.201478 28.693088 L52.146544 26.617193 L50.256569 24.392738 L48.846385 26.480005 L47.756634 26.032572 L47.588769 23.499428 L51.030354 18.23514 L49.970743 16.704041 L46.15118 16.172612 L45.210638 14.428425 L46.041608 12.739763 L49.474843 10.884159 L50.641099 8.0032772 L49.248606 6.5101965 L46.666178 7.7036413 L45.807765 7.2225236 L47.066715 3.5574792 L46.228917 1.1401403 L46.721542 -2.3643665 L44.700269 -4.9191013 L44.211456 -7.9525382 L42.269786 -10.530407 L44.261325 -13.694586 L41.010955 -17.261726 L39.256488 -22.683859 L36.221147 -24.153787 L34.430288 -26.398551 L32.068615 -25.745355 L32.242858 -28.063971 L30.532187 -28.964526 L29.146814 -29.241281 L26.828805 -27.354844 L23.586093 -32.923001 L20.131777 -33.006756 L18.263927 -35.562522 L17.022967 -34.775558 L18.34639 -37.114171 L18.070844 -38.467808 L16.217134 -39.882245 L15.561304 -42.217667 L11.613581 -45.196382 L12.254847 -46.953765 L14.738332 -47.306323 L15.08431 -48.288316 L13.495533 -47.571519 L13.112011 -49.585119 L10.977962 -51.007048 L10.870869 -52.442465 L9.0003655 -50.938796 L8.2568211 -51.330998 L8.8065345 -52.884244 L11.136413 -53.384281 L10.981041 -55.451461 L12.56679 -57.134452 L12.454457 -58.32204 L9.9517473 -60.533691 L8.6905931 -63.247568 L11.584935 -64.751772 L12.239001 -67.96907 L13.988513 -70.381741 L13.686364 -73.731313 L10.431416 -74.306463 L10.719112 -77.641882 L10.004348 -78.298044 L6.7948862 -78.032915 L6.9128566 -76.722395 L9.2493295 -74.845694 L6.6222485 -73.115736 L2.418215 -74.688161 L4.5173026 -77.296805 L3.6304634 -78.579872 L2.3043535 -78.451765 L1.1312822 -76.098988 L0.3274793 -78.410057 L-1.9688592 -76.293171 L-4.1016842 -76.452621 L-4.1934379 -80.130365 L-2.5853703 -81.169058 L-2.8887636 -82.325652 L-6.8208709 -82.964721 L-8.3939617 -81.058397 L-6.621108 -83.667851 L-7.9623388 -83.942168 L-9.4427647 -82.660897 L-11.869658 -85.469575 L-10.749965 -88.249115 L-11.81292 -90.071791 L-9.4736753 -93.501445 L-10.299933 -95.405072 L-13.646397 -97.745324 L-12.173735 -102.45875 L-18.20178 -105.53266 L-17.409889 -107.16005 L-14.082916 -107.49417 L-14.872893 -110.06856 L-14.390463 -111.61373 L-11.653474 -114.31874 L-7.9990364 -114.8169 L-6.516376 -117.79842 L-4.3301319 -118.54768 L-2.1258477 -116.35833 L-1.319302 -116.76387 L-2.9710926 -119.02672 L-2.6986753 -121.13459 L-3.7461587 -122.74976 L-1.6137307 -122.96755 L-0.66415735 -124.04851 L-0.84786923 -125.21392 L-3.23868 -126.25299 L-5.1271004 -128.88269 L-4.0784472 -129.81795 L-2.2158185 -128.71765 L-1.9849038 -130.11747 L-3.2845904 -131.22738 L-5.4590914 -130.99283 L-6.0864571 -132.79219 L-2.4968439 -139.50347 L-3.8171934 -140.20642 L-5.5449668 -138.35713 L-6.5728674 -139.58258 L-2.9824036 -144.15058 L-3.7849059 -148.06983 L-0.81404157 -149.39808 L2.7991297 -154.33096 L2.2588936 -155.19534 L0.2065957 -154.56024 L-1.3607212 -155.11946 L-1.3718121 -156.45495 L1.0993359 -159.67896 L-1.6401405 -162.66134 L-0.26318496 -163.76079 L2.9202167 -162.35127 L3.6866882 -164.09279 L2.9726679 -166.76573 L0.085612051 -168.9546 L0.99552326 -171.65049 L-2.413865 -171.24169 L-4.3474245 -169.44214 L-5.0111433 -171.75744 L-6.6669735 -172.87436 L-6.9400894 -175.93596 L-8.0143903 -175.6581 L-7.8395608 -173.6554 L-9.6750703 -170.13797 L-11.438633 -171.07751 L-11.713671 -175.01335 L-9.3028725 -177.42266 L-12.110789 -177.98637 L-12.961715 -181.46754 L-15.675406 -180.63042 L-16.344821 -185.373 L-19.704953 -187.85 L-19.410422 -189.23982 L-16.857356 -189.65858 L-20.272872 -192.19785 L-18.192411 -192.41063 L-18.046886 -193.39945 L-21.354923 -193.37005 L-20.982562 -195.55755 L-22.174828 -196.29154 L-23.266346 -193.73001 L-21.680719 -192.21208 L-23.822983 -191.20257 L-25.148928 -192.09775 L-25.17181 -194.09954 L-28.324351 -195.2727 L-28.152778 -197.75156 L-26.056672 -197.97292 L-26.72272 -198.97594 L-28.189144 -198.62003 L-26.611233 -201.87964 L-26.587616 -210.01203 L-27.706114 -209.70695 L-28.106318 -207.12541 L-29.017477 -207.87342 L-27.946801 -210.47665 L-24.501375 -213.47365 L-26.960172 -213.43281 L-27.713804 -215.8929 L-28.954857 -212.86833 L-29.81002 -213.21867 L-28.859981 -216.71902 L-30.737261 -217.36896 L-27.950219 -219.35232 L-30.833143 -222.05118 L-29.336068 -222.48876 L-29.093469 -224.27605 L-29.90735 -224.43513 L-31.637075 -222.67857 L-32.487697 -223.14174 L-30.810046 -225.84117 L-28.466055 -225.94418 L-32.565114 -229.6154 L-30.760205 -231.77412 L-28.442616 -230.92758 L-28.009173 -229.6237 L-26.717966 -230.80838 L-26.998026 -232.72484 L-24.883833 -231.67505 L-25.39135 -232.84623 L-27.556227 -233.59529 L-26.402388 -234.86098 L-28.258098 -236.12575 L-27.293124 -237.06412 L-25.558099 -235.7314 L-24.235493 -236.74505 L-24.632959 -237.62872 L-22.945596 -238.12409 L-24.272308 -239.13951 L-24.025096 -239.86973 L-22.227454 -240.10332 L-23.531417 -242.07232 L-19.79225 -239.27345 L-18.668374 -239.68778 L-19.163872 -241.22689 L-20.755135 -242.3815 L-20.193087 -243.55456 L-17.802549 -244.66258 L-21.284194 -245.97268 L-20.456487 -248.65554 L-18.28897 -246.92892 L-16.201507 -248.36417 L-17.950787 -249.72583 L-15.104981 -249.83445 L-13.012089 -251.51806 L-11.268614 -250.26148 L-10.878436 -252.47465 L-7.9856747 -251.55753 L-6.4488218 -253.71412 L-5.7200327 -253.41677 L-6.1314649 -251.9404 L-4.5273044 -254.28731 L-5.3066298 -255.79544 L-4.8058904 -256.94128 L-3.3805147 -256.18764 L-3.0336661 -253.8409 L-1.3520827 -254.28927 L-0.71686053 -256.13464 L-1.3905995 -258.49862 L-3.1332785 -259.24584 L-2.6559128 -261.05612 L-0.53278794 -260.81618 L-0.88188833 -258.959 L1.2774426 -258.4586 L-1.3847552 -262.80341 L-2.0902496 -265.66889 L-3.8278501 -265.28455 L-2.6272935 -266.16235 L-2.9816395 -268.85912 L-1.2882172 -268.61723 L-2.9326439 -269.96082 L-1.581864 -269.9974 L-2.6358297 -271.08337 L-2.2685071 -272.58151 L0.094452788 -272.8299 L-0.89242604 -274.67263 L0.046303546 -275.4006 L1.5746888 -274.6651 L-0.49359895 -276.63961 L-0.79991305 -275.44331 L-1.5621962 -275.87727 L-1.4051098 -277.14037 L-2.8420437 -278.46309 L-2.3464941 -279.93146 L-3.3460868 -279.94501 L-1.7849018 -281.91265 L-4.011111 -281.95511 L-2.4865593 -282.74799 L-103.26458 -283.28099 L-102.67677 -274.33721 L-101.97396 -274.17841 L-102.62937 -273.55952 L-89.44387 -55.079606 Z "  stroke="#000000" fill="none" stroke-opacity="1" stroke-width="2" stroke-linecap="round" stroke-linejoin="round" stroke-miterlimit="10" />
</g>
</g>
</g>
</svg>
