<?xml version="1.0" encoding="utf-8" standalone="no"?>
<!DOCTYPE svg PUBLIC "-//W3C//DTD SVG 1.1//EN" "http://www.w3.org/Graphics/SVG/1.1/DTD/svg11.dtd">
<svg version="1.1" xmlns="http://www.w3.org/2000/svg" xmlns:xlink="http://www.w3.org/1999/xlink" width="550pt" height="626pt" viewBox="0 0 550 626" xml:space="preserve" enable-background="new 0 0 550 626">
<g color-interpolation="linearRGB" transform="scale(0.75,0.75)">
<g id="DETCOG_County_Boundaries_SIMPLIFIED_100m_DougPeu_20231228">
<g transform="matrix(1.3333333 0 0 -1.3333333 367 417.5)">
<path d="M26.189276 281.07725 L26.836078 279.9125 L30.192306 279.98815 L30.812915 278.41719 L33.920164 278.55329 L35.53913 275.90407 L36.980449 276.90725 L38.736462 275.33413 L40.7294 277.15344 L43.393037 270.45481 L47.124056 268.72364 L48.22675 271.2984 L55.082342 268.19789 L55.164096 270.13775 L59.565731 269.17391 L62.031489 266.57487 L60.712282 265.90306 L64.429244 263.01258 L69.799659 261.1537 L71.342082 262.36049 L71.469882 260.85326 L74.448779 258.05549 L77.105533 256.42074 L79.461814 256.87999 L80.578134 254.58364 L82.650978 254.77937 L86.200686 251.3372 L90.56598 249.62563 L92.754155 246.44948 L96.985267 247.4479 L102.81484 244.59006 L104.21453 245.71853 L111.68634 246.63797 L113.36132 248.78211 L114.66158 246.70068 L116.75283 247.50672 L118.77764 246.2275 L119.15682 244.48811 L120.08338 245.44207 L121.29195 244.3921 L122.42482 246.19947 L124.75842 245.4868 L123.4045 244.63634 L123.91236 242.29412 L126.48432 243.56504 L125.93141 241.01566 L127.61437 240.27272 L128.64571 242.90171 L131.1952 240.6507 L130.76122 239.10958 L132.08275 237.8193 L133.02107 239.98707 L136.01452 237.48059 L137.81985 238.13384 L137.69571 239.41347 L140.39638 237.81204 L145.88433 237.58053 L146.56891 235.05945 L152.12122 237.12178 L152.64324 234.99588 L150.68964 234.24673 L151.97358 230.97183 L157.43423 230.85945 L157.34256 229.21015 L161.36925 227.80633 L163.87847 231.01551 L163.85544 235.57977 L168.49709 239.83331 L169.88778 234.19239 L173.00411 229.89331 L174.67464 229.26307 L178.69462 231.08002 L182.25628 226.26967 L185.57791 229.02679 L186.92245 227.79855 L187.40618 229.64702 L188.26842 227.78448 L190.68465 228.1015 L191.25698 226.35847 L193.70685 227.59412 L193.73035 225.23284 L197.36066 224.60326 L195.15049 221.30382 L198.9064 221.15714 L199.88223 218.34642 L201.24329 219.52032 L202.75138 217.66992 L202.06887 215.59179 L204.71497 213.17275 L207.54279 214.72704 L208.27658 216.68118 L210.74128 215.1929 L209.75244 212.68305 L211.8829 210.85443 L214.97149 211.16249 L217.17867 209.64827 L217.03366 212.39421 L219.56547 213.10721 L223.10305 211.54841 L225.09548 208.17087 L226.70809 209.35755 L227.26379 206.85561 L227.86916 209.15502 L229.437 209.09524 L230.31873 207.32454 L231.73923 207.23694 L231.64578 208.57343 L232.60293 207.53717 L232.05907 204.48142 L160.57495 165.29299 L243.08936 -282.87243 L108.3619 -281.5679 L16.268161 -282.78357 L15.3604 -279.4994 L11.753991 -276.74927 L3.6370483 -277.60811 L0.52567223 -276.86627 L-2.1015521 -264.70572 L-1.4867471 -261.65626 L5.7547717 -257.42746 L9.0092787 -251.07577 L23.686416 -246.06692 L26.659035 -236.76762 L18.253581 -232.20161 L11.922762 -233.84011 L5.8983097 -231.46703 L-5.8435013 -231.77188 L-8.2874617 -228.81024 L-13.433419 -226.52566 L-16.858246 -223.17427 L-23.752617 -222.36098 L-31.822558 -218.32707 L-51.739534 -221.20664 L-56.166772 -218.42033 L-61.61561 -209.61611 L-67.021607 -208.62283 L-73.734523 -204.50922 L-88.687351 -204.72262 L-95.108723 -201.89275 L-101.23005 -201.06421 L-113.54651 -203.33737 L-121.10314 -201.36457 L-125.15454 -195.41805 L-121.61223 -192.04002 L-121.9683 -187.64324 L-113.04619 -184.07737 L-109.67339 -180.83741 L-104.92232 -180.01121 L-103.62354 -178.23639 L-105.76076 -160.55668 L-109.9375 -160.35191 L-109.47507 -155.16052 L-113.58584 -152.35712 L-116.07772 -141.8981 L-114.23866 -139.94335 L-109.63784 -142.37631 L-107.25455 -142.10486 L-104.41404 -138.60154 L-105.32428 -134.84942 L-107.04852 -133.89416 L-113.08614 -137.12441 L-115.05758 -131.98606 L-127.64295 -129.03269 L-127.97355 -127.04715 L-122.56854 -123.39756 L-122.16453 -120.47022 L-126.09459 -118.4498 L-131.39962 -121.90724 L-137.6405 -122.07359 L-138.30895 -120.89858 L-136.79258 -116.25463 L-138.15494 -114.35268 L-142.20501 -115.93625 L-146.38437 -119.6754 L-151.34797 -120.32896 L-156.28411 -123.43629 L-164.06662 -121.1243 L-165.53126 -127.93534 L-168.33652 -130.63432 L-176.6326 -132.95876 L-182.72472 -130.31076 L-183.68346 -126.99124 L-179.55263 -120.40165 L-180.58424 -119.07532 L-185.11437 -117.87618 L-185.96025 -115.98026 L-182.70623 -107.12093 L-178.27389 -102.06324 L-185.53081 -99.520449 L-197.1391 -102.09114 L-196.95811 -97.562742 L-198.91015 -91.36752 L-204.70014 -84.208556 L-205.71607 -81.050275 L-205.30136 -77.834189 L-201.89236 -71.511662 L-204.39837 -59.652515 L-196.99051 -55.39527 L-193.31132 -46.72405 L-193.84474 -42.354349 L-199.1716 -31.507314 L-193.36441 -27.130498 L-193.05345 -25.597413 L-197.79868 -24.016388 L-200.33834 -19.91545 L-205.86937 -16.730658 L-211.12752 -10.305943 L-218.96252 -7.8831205 L-223.19851 -4.3983865 L-227.70672 1.5401529 L-229.11846 6.0093306 L-234.57803 5.8123369 L-238.05531 10.680007 L-243.08936 11.556083 L-46.753319 194.37403 L25.810865 282.87243 L26.189276 281.07725 Z "  fill="#B2B2B2" fill-rule="evenodd" stroke="#FFFFFF" fill-opacity="1" stroke-opacity="1"  stroke-width="4" stroke-linecap="round" stroke-linejoin="round" stroke-miterlimit="10" />
</g>
<g transform="matrix(1.3333333 0 0 -1.3333333 367 417.5)">
<path d="M26.189276 281.07725 L26.836078 279.9125 L30.192306 279.98815 L30.812915 278.41719 L33.920164 278.55329 L35.53913 275.90407 L36.980449 276.90725 L38.736462 275.33413 L40.7294 277.15344 L43.393037 270.45481 L47.124056 268.72364 L48.22675 271.2984 L55.082342 268.19789 L55.164096 270.13775 L59.565731 269.17391 L62.031489 266.57487 L60.712282 265.90306 L64.429244 263.01258 L69.799659 261.1537 L71.342082 262.36049 L71.469882 260.85326 L74.448779 258.05549 L77.105533 256.42074 L79.461814 256.87999 L80.578134 254.58364 L82.650978 254.77937 L86.200686 251.3372 L90.56598 249.62563 L92.754155 246.44948 L96.985267 247.4479 L102.81484 244.59006 L104.21453 245.71853 L111.68634 246.63797 L113.36132 248.78211 L114.66158 246.70068 L116.75283 247.50672 L118.77764 246.2275 L119.15682 244.48811 L120.08338 245.44207 L121.29195 244.3921 L122.42482 246.19947 L124.75842 245.4868 L123.4045 244.63634 L123.91236 242.29412 L126.48432 243.56504 L125.93141 241.01566 L127.61437 240.27272 L128.64571 242.90171 L131.1952 240.6507 L130.76122 239.10958 L132.08275 237.8193 L133.02107 239.98707 L136.01452 237.48059 L137.81985 238.13384 L137.69571 239.41347 L140.39638 237.81204 L145.88433 237.58053 L146.56891 235.05945 L152.12122 237.12178 L152.64324 234.99588 L150.68964 234.24673 L151.97358 230.97183 L157.43423 230.85945 L157.34256 229.21015 L161.36925 227.80633 L163.87847 231.01551 L163.85544 235.57977 L168.49709 239.83331 L169.88778 234.19239 L173.00411 229.89331 L174.67464 229.26307 L178.69462 231.08002 L182.25628 226.26967 L185.57791 229.02679 L186.92245 227.79855 L187.40618 229.64702 L188.26842 227.78448 L190.68465 228.1015 L191.25698 226.35847 L193.70685 227.59412 L193.73035 225.23284 L197.36066 224.60326 L195.15049 221.30382 L198.9064 221.15714 L199.88223 218.34642 L201.24329 219.52032 L202.75138 217.66992 L202.06887 215.59179 L204.71497 213.17275 L207.54279 214.72704 L208.27658 216.68118 L210.74128 215.1929 L209.75244 212.68305 L211.8829 210.85443 L214.97149 211.16249 L217.17867 209.64827 L217.03366 212.39421 L219.56547 213.10721 L223.10305 211.54841 L225.09548 208.17087 L226.70809 209.35755 L227.26379 206.85561 L227.86916 209.15502 L229.437 209.09524 L230.31873 207.32454 L231.73923 207.23694 L231.64578 208.57343 L232.60293 207.53717 L232.05907 204.48142 L160.57495 165.29299 L243.08936 -282.87243 L108.3619 -281.5679 L16.268161 -282.78357 L15.3604 -279.4994 L11.753991 -276.74927 L3.6370483 -277.60811 L0.52567223 -276.86627 L-2.1015521 -264.70572 L-1.4867471 -261.65626 L5.7547717 -257.42746 L9.0092787 -251.07577 L23.686416 -246.06692 L26.659035 -236.76762 L18.253581 -232.20161 L11.922762 -233.84011 L5.8983097 -231.46703 L-5.8435013 -231.77188 L-8.2874617 -228.81024 L-13.433419 -226.52566 L-16.858246 -223.17427 L-23.752617 -222.36098 L-31.822558 -218.32707 L-51.739534 -221.20664 L-56.166772 -218.42033 L-61.61561 -209.61611 L-67.021607 -208.62283 L-73.734523 -204.50922 L-88.687351 -204.72262 L-95.108723 -201.89275 L-101.23005 -201.06421 L-113.54651 -203.33737 L-121.10314 -201.36457 L-125.15454 -195.41805 L-121.61223 -192.04002 L-121.9683 -187.64324 L-113.04619 -184.07737 L-109.67339 -180.83741 L-104.92232 -180.01121 L-103.62354 -178.23639 L-105.76076 -160.55668 L-109.9375 -160.35191 L-109.47507 -155.16052 L-113.58584 -152.35712 L-116.07772 -141.8981 L-114.23866 -139.94335 L-109.63784 -142.37631 L-107.25455 -142.10486 L-104.41404 -138.60154 L-105.32428 -134.84942 L-107.04852 -133.89416 L-113.08614 -137.12441 L-115.05758 -131.98606 L-127.64295 -129.03269 L-127.97355 -127.04715 L-122.56854 -123.39756 L-122.16453 -120.47022 L-126.09459 -118.4498 L-131.39962 -121.90724 L-137.6405 -122.07359 L-138.30895 -120.89858 L-136.79258 -116.25463 L-138.15494 -114.35268 L-142.20501 -115.93625 L-146.38437 -119.6754 L-151.34797 -120.32896 L-156.28411 -123.43629 L-164.06662 -121.1243 L-165.53126 -127.93534 L-168.33652 -130.63432 L-176.6326 -132.95876 L-182.72472 -130.31076 L-183.68346 -126.99124 L-179.55263 -120.40165 L-180.58424 -119.07532 L-185.11437 -117.87618 L-185.96025 -115.98026 L-182.70623 -107.12093 L-178.27389 -102.06324 L-185.53081 -99.520449 L-197.1391 -102.09114 L-196.95811 -97.562742 L-198.91015 -91.36752 L-204.70014 -84.208556 L-205.71607 -81.050275 L-205.30136 -77.834189 L-201.89236 -71.511662 L-204.39837 -59.652515 L-196.99051 -55.39527 L-193.31132 -46.72405 L-193.84474 -42.354349 L-199.1716 -31.507314 L-193.36441 -27.130498 L-193.05345 -25.597413 L-197.79868 -24.016388 L-200.33834 -19.91545 L-205.86937 -16.730658 L-211.12752 -10.305943 L-218.96252 -7.8831205 L-223.19851 -4.3983865 L-227.70672 1.5401529 L-229.11846 6.0093306 L-234.57803 5.8123369 L-238.05531 10.680007 L-243.08936 11.556083 L-46.753319 194.37403 L25.810865 282.87243 L26.189276 281.07725 Z "  stroke="#000000" fill="none" stroke-opacity="1" stroke-width="2" stroke-linecap="round" stroke-linejoin="round" stroke-miterlimit="10" />
</g>
</g>
</g>
</svg>
