<?xml version="1.0" encoding="utf-8" standalone="no"?>
<!DOCTYPE svg PUBLIC "-//W3C//DTD SVG 1.1//EN" "http://www.w3.org/Graphics/SVG/1.1/DTD/svg11.dtd">
<svg version="1.1" xmlns="http://www.w3.org/2000/svg" xmlns:xlink="http://www.w3.org/1999/xlink" width="515pt" height="626pt" viewBox="0 0 515 626" xml:space="preserve" enable-background="new 0 0 515 626">
<g color-interpolation="linearRGB" transform="scale(0.75,0.75)">
<g id="DETCOG_County_Boundaries_SIMPLIFIED_100m_DougPeu_20231228">
<g transform="matrix(1.3333333 0 0 -1.3333333 343.5 417.5)">
<path d="M-71.964988 282.91245 L-72.619008 279.53306 L-66.373678 277.47483 L-65.294723 274.27463 L-60.958108 273.00461 L-59.863316 269.76303 L-57.948064 270.96254 L-55.902328 267.76384 L-53.619737 268.70817 L-51.240845 264.87195 L-47.474669 264.35464 L-47.646247 267.61356 L-40.475059 266.49817 L-37.451802 264.37642 L-39.258902 262.24108 L-35.954978 259.00269 L-33.140288 260.42158 L-27.73435 259.47535 L-25.486108 261.36266 L-21.223168 255.10331 L-15.297604 253.52977 L-14.220772 255.15677 L-11.137046 251.24042 L-9.3797503 251.84206 L-5.1996787 245.11661 L7.3783576 233.88777 L7.2695517 231.97277 L3.9183099 231.55931 L3.0043346 229.66608 L4.2229651 225.35733 L9.1627854 224.66097 L7.5742101 221.20093 L4.5058654 221.0486 L5.9203506 216.1523 L11.423016 210.20555 L15.669417 208.53585 L17.432066 204.68412 L26.071323 201.02819 L22.872411 196.00133 L26.35422 195.04383 L27.855441 189.90852 L35.537493 185.86056 L38.953766 181.35615 L67.024207 177.57071 L72.464535 178.4194 L76.381571 184.07734 L79.145257 185.23069 L79.69119 181.81296 L83.912883 179.91972 L85.84964 170.73645 L84.631007 169.36549 L81.802037 169.9748 L83.563317 167.51686 L92.071475 164.73154 L112.17319 165.47442 L115.83672 163.09823 L113.50826 159.37705 L107.20699 157.18877 L109.10725 150.56764 L103.43544 150.23011 L103.65039 139.83539 L95.272287 133.65518 L90.876502 135.85307 L89.50554 130.54331 L83.825839 129.49877 L80.605164 131.80547 L73.532739 128.36718 L74.836515 124.2555 L78.427133 127.2368 L80.69221 125.45116 L75.904721 112.85137 L84.514564 108.19865 L95.031012 98.098405 L102.88685 93.898472 L105.28059 93.746143 L109.7199 98.18545 L116.00892 92.483987 L117.66277 93.397962 L117.88039 97.380281 L122.90725 95.574093 L116.76107 79.610779 L125.60565 77.381639 L133.72262 77.490444 L134.83245 76.119482 L121.40572 51.638008 L121.60157 42.34593 L131.02422 40.974967 L137.37852 36.927363 L144.47271 27.89642 L152.41559 27.200058 L156.50751 15.223983 L157.46421 -4.5692934 L152.50263 -5.8336092 L155.83211 -10.705983 L169.65054 -9.7288837 L179.31256 -4.919635 L182.81614 -5.4854291 L187.843 -3.3310586 L182.42443 -12.253196 L181.03171 -19.151531 L157.9212 -26.180434 L156.74609 -28.854914 L157.39893 -42.803914 L148.62912 -52.640027 L152.48087 -60.01711 L149.49957 -63.825339 L142.623 -66.958968 L137.74846 -79.689334 L142.0572 -87.088179 L150.08713 -87.523406 L157.07251 -91.135783 L167.03919 -110.54687 L174.50332 -107.58733 L177.8328 -108.15313 L182.05449 -115.94584 L183.68659 -125.08559 L206.53023 -124.02963 L206.53596 -129.98188 L212.96055 -137.50862 L210.93175 -142.75577 L212.32447 -146.62928 L204.86034 -149.71939 L210.4499 -155.04072 L210.51828 -164.10361 L208.40744 -169.19576 L215.32753 -169.47866 L218.78758 -175.00603 L228.77602 -171.06723 L230.7891 -173.06021 L227.62267 -178.7925 L231.40914 -181.73027 L231.77335 -183.98204 L223.18336 -188.36747 L223.18336 -195.91865 L219.44519 -201.63964 L224.88075 -208.80134 L224.22791 -229.34402 L226.44756 -236.3294 L-89.976013 -255.50153 L-221.98065 -282.91245 L-225.05474 -281.07538 L-230.95049 -270.48808 L-231.77335 -263.60996 L-224.16822 -237.84206 L-221.13485 -233.0971 L-220.48227 -183.70398 L-215.24322 -164.34232 L-211.21274 -156.82056 L-210.48108 -143.32922 L-211.32911 -137.46922 L-216.22734 -129.79038 L-215.91158 -126.35141 L-218.44099 -120.18466 L-218.1427 -109.06141 L-219.849 -100.43396 L-228.24358 -91.098467 L-228.3998 -87.687077 L-225.26168 -83.693095 L-226.20245 -77.75721 L-222.33353 -67.154475 L-224.62723 -59.915346 L-217.60286 -47.382072 L-221.98418 -37.901723 L-216.61892 -30.862963 L-212.0772 -18.235944 L-202.79043 -10.687093 L-201.55673 -7.5094711 L-206.16495 11.350915 L-210.35447 16.89204 L-212.50035 24.832677 L-223.98657 44.692045 L-174.48355 94.176085 L-161.49793 110.6105 L-161.6692 233.21826 L-154.15492 233.66001 L-146.51206 236.68193 L-136.62817 245.84414 L-129.5227 250.57997 L-121.78041 252.73015 L-116.69062 257.66115 L-101.80326 258.17405 L-96.612268 268.04521 L-74.513443 282.869 L-71.964988 282.91245 Z "  fill="#B2B2B2" fill-rule="evenodd" stroke="#FFFFFF" fill-opacity="1" stroke-opacity="1"  stroke-width="4" stroke-linecap="round" stroke-linejoin="round" stroke-miterlimit="10" />
</g>
<g transform="matrix(1.3333333 0 0 -1.3333333 343.5 417.5)">
<path d="M-71.964988 282.91245 L-72.619008 279.53306 L-66.373678 277.47483 L-65.294723 274.27463 L-60.958108 273.00461 L-59.863316 269.76303 L-57.948064 270.96254 L-55.902328 267.76384 L-53.619737 268.70817 L-51.240845 264.87195 L-47.474669 264.35464 L-47.646247 267.61356 L-40.475059 266.49817 L-37.451802 264.37642 L-39.258902 262.24108 L-35.954978 259.00269 L-33.140288 260.42158 L-27.73435 259.47535 L-25.486108 261.36266 L-21.223168 255.10331 L-15.297604 253.52977 L-14.220772 255.15677 L-11.137046 251.24042 L-9.3797503 251.84206 L-5.1996787 245.11661 L7.3783576 233.88777 L7.2695517 231.97277 L3.9183099 231.55931 L3.0043346 229.66608 L4.2229651 225.35733 L9.1627854 224.66097 L7.5742101 221.20093 L4.5058654 221.0486 L5.9203506 216.1523 L11.423016 210.20555 L15.669417 208.53585 L17.432066 204.68412 L26.071323 201.02819 L22.872411 196.00133 L26.35422 195.04383 L27.855441 189.90852 L35.537493 185.86056 L38.953766 181.35615 L67.024207 177.57071 L72.464535 178.4194 L76.381571 184.07734 L79.145257 185.23069 L79.69119 181.81296 L83.912883 179.91972 L85.84964 170.73645 L84.631007 169.36549 L81.802037 169.9748 L83.563317 167.51686 L92.071475 164.73154 L112.17319 165.47442 L115.83672 163.09823 L113.50826 159.37705 L107.20699 157.18877 L109.10725 150.56764 L103.43544 150.23011 L103.65039 139.83539 L95.272287 133.65518 L90.876502 135.85307 L89.50554 130.54331 L83.825839 129.49877 L80.605164 131.80547 L73.532739 128.36718 L74.836515 124.2555 L78.427133 127.2368 L80.69221 125.45116 L75.904721 112.85137 L84.514564 108.19865 L95.031012 98.098405 L102.88685 93.898472 L105.28059 93.746143 L109.7199 98.18545 L116.00892 92.483987 L117.66277 93.397962 L117.88039 97.380281 L122.90725 95.574093 L116.76107 79.610779 L125.60565 77.381639 L133.72262 77.490444 L134.83245 76.119482 L121.40572 51.638008 L121.60157 42.34593 L131.02422 40.974967 L137.37852 36.927363 L144.47271 27.89642 L152.41559 27.200058 L156.50751 15.223983 L157.46421 -4.5692934 L152.50263 -5.8336092 L155.83211 -10.705983 L169.65054 -9.7288837 L179.31256 -4.919635 L182.81614 -5.4854291 L187.843 -3.3310586 L182.42443 -12.253196 L181.03171 -19.151531 L157.9212 -26.180434 L156.74609 -28.854914 L157.39893 -42.803914 L148.62912 -52.640027 L152.48087 -60.01711 L149.49957 -63.825339 L142.623 -66.958968 L137.74846 -79.689334 L142.0572 -87.088179 L150.08713 -87.523406 L157.07251 -91.135783 L167.03919 -110.54687 L174.50332 -107.58733 L177.8328 -108.15313 L182.05449 -115.94584 L183.68659 -125.08559 L206.53023 -124.02963 L206.53596 -129.98188 L212.96055 -137.50862 L210.93175 -142.75577 L212.32447 -146.62928 L204.86034 -149.71939 L210.4499 -155.04072 L210.51828 -164.10361 L208.40744 -169.19576 L215.32753 -169.47866 L218.78758 -175.00603 L228.77602 -171.06723 L230.7891 -173.06021 L227.62267 -178.7925 L231.40914 -181.73027 L231.77335 -183.98204 L223.18336 -188.36747 L223.18336 -195.91865 L219.44519 -201.63964 L224.88075 -208.80134 L224.22791 -229.34402 L226.44756 -236.3294 L-89.976013 -255.50153 L-221.98065 -282.91245 L-225.05474 -281.07538 L-230.95049 -270.48808 L-231.77335 -263.60996 L-224.16822 -237.84206 L-221.13485 -233.0971 L-220.48227 -183.70398 L-215.24322 -164.34232 L-211.21274 -156.82056 L-210.48108 -143.32922 L-211.32911 -137.46922 L-216.22734 -129.79038 L-215.91158 -126.35141 L-218.44099 -120.18466 L-218.1427 -109.06141 L-219.849 -100.43396 L-228.24358 -91.098467 L-228.3998 -87.687077 L-225.26168 -83.693095 L-226.20245 -77.75721 L-222.33353 -67.154475 L-224.62723 -59.915346 L-217.60286 -47.382072 L-221.98418 -37.901723 L-216.61892 -30.862963 L-212.0772 -18.235944 L-202.79043 -10.687093 L-201.55673 -7.5094711 L-206.16495 11.350915 L-210.35447 16.89204 L-212.50035 24.832677 L-223.98657 44.692045 L-174.48355 94.176085 L-161.49793 110.6105 L-161.6692 233.21826 L-154.15492 233.66001 L-146.51206 236.68193 L-136.62817 245.84414 L-129.5227 250.57997 L-121.78041 252.73015 L-116.69062 257.66115 L-101.80326 258.17405 L-96.612268 268.04521 L-74.513443 282.869 L-71.964988 282.91245 Z "  stroke="#000000" fill="none" stroke-opacity="1" stroke-width="2" stroke-linecap="round" stroke-linejoin="round" stroke-miterlimit="10" />
</g>
</g>
</g>
</svg>
