<?xml version="1.0" encoding="utf-8" standalone="no"?>
<!DOCTYPE svg PUBLIC "-//W3C//DTD SVG 1.1//EN" "http://www.w3.org/Graphics/SVG/1.1/DTD/svg11.dtd">
<svg version="1.1" xmlns="http://www.w3.org/2000/svg" xmlns:xlink="http://www.w3.org/1999/xlink" width="498pt" height="626pt" viewBox="0 0 498 626" xml:space="preserve" enable-background="new 0 0 498 626">
<g color-interpolation="linearRGB" transform="scale(0.75,0.75)">
<g id="DETCOG_County_Boundaries_SIMPLIFIED_100m_DougPeu_20231228">
<g transform="matrix(1.3333333 0 0 -1.3333333 332 417.5)">
<path d="M-118.25803 278.98056 L-106.57093 263.17368 L-117.26035 243.99388 L-111.62972 235.78293 L-107.96946 219.58223 L-96.960406 212.35898 L-87.848749 210.01687 L-82.739037 203.45561 L-76.562857 202.14509 L-72.956867 196.84057 L-66.590501 196.94622 L-65.006221 191.93084 L-59.947043 185.26651 L-55.193346 181.35589 L-46.400796 178.63696 L-40.500015 171.42705 L-34.293011 167.85303 L-31.442958 163.25089 L-26.117792 161.47664 L-26.466756 159.75619 L-32.983669 154.84446 L-27.005786 142.67174 L-26.407178 137.768 L-30.536023 128.03702 L-38.849233 123.25947 L-36.036953 109.95096 L-39.862587 102.85572 L-40.32798 99.246577 L-39.187885 95.702305 L-32.690269 87.668404 L-30.499658 80.716029 L-30.702774 75.63419 L-17.675766 78.519061 L-9.5319389 75.665497 L-14.505973 69.989688 L-18.157691 60.047604 L-17.208433 57.919976 L-12.124647 56.574282 L-10.966955 55.085852 L-15.602639 47.690912 L-14.763105 44.240891 L-9.519945 41.210206 L-3.8592382 41.67948 L3.9913122 45.372739 L6.4116763 54.274888 L15.145338 51.680334 L20.68475 55.167422 L26.254974 55.900862 L30.945122 60.096994 L35.490169 61.874101 L37.019031 59.739706 L35.317341 54.528194 L36.067482 53.209571 L43.071093 53.396256 L49.024477 57.276246 L53.434852 55.008903 L52.981467 51.723797 L46.915886 47.628174 L47.286883 45.399967 L61.410385 42.085653 L63.622766 36.31931 L70.398281 39.944346 L72.370991 38.803825 L73.354729 34.661654 L70.167067 30.730178 L67.492503 30.425553 L62.329396 33.15585 L60.265571 30.962205 L63.061992 19.224928 L67.675161 16.078912 L67.156214 10.253054 L71.84342 10.023251 L74.241843 -9.8171938 L72.784329 -11.808918 L67.452604 -12.736099 L63.667596 -16.372027 L53.655063 -20.3737 L54.054654 -25.307839 L50.07942 -29.098716 L54.286595 -35.439173 L60.41315 -37.972122 L68.11632 -37.739933 L75.650542 -35.374101 L83.506203 -36.28284 L91.003465 -39.540446 L108.02697 -39.361175 L115.3171 -43.917326 L121.38379 -45.032 L127.49856 -54.912225 L132.46688 -58.039076 L154.81802 -54.807574 L163.87423 -59.334494 L171.6112 -60.247172 L175.4546 -64.008163 L181.22947 -66.571945 L183.97212 -69.895552 L197.14896 -69.553437 L203.90969 -72.216548 L211.14916 -70.401514 L219.95644 -75.044927 L220.87575 -76.723236 L217.11105 -85.937667 L200.55111 -91.616194 L197.06128 -98.611102 L190.09517 -102.13113 L188.2585 -104.8388 L190.64575 -120.12047 L194.37615 -121.33243 L203.7203 -120.36987 L207.76747 -123.45611 L208.78617 -127.14165 L144.83744 -159.51556 L127.30889 -169.79671 L111.51153 -175.91324 L-85.742249 -270.78687 L-113.3204 -282.86859 L-112.66084 -279.96287 L-114.61546 -276.8197 L-110.94621 -269.51781 L-108.43126 -267.39557 L-108.64488 -265.90161 L-100.66373 -264.85662 L-99.653716 -261.25815 L-97.348153 -260.06443 L-97.371596 -257.90269 L-93.191885 -255.68345 L-93.670077 -252.01063 L-95.147219 -250.75743 L-97.448548 -251.63187 L-98.228057 -249.86351 L-103.8413 -249.68542 L-106.37468 -247.89746 L-106.20156 -243.82541 L-108.92424 -241.64348 L-113.28119 -241.02241 L-113.51631 -236.94937 L-118.51607 -231.66282 L-121.03919 -224.80903 L-123.91276 -224.86492 L-130.68216 -221.27881 L-131.20139 -222.56016 L-144.85758 -220.36572 L-147.62408 -218.25589 L-147.20889 -216.34942 L-148.83151 -214.69715 L-153.3223 -213.43464 L-156.19312 -209.89656 L-164.49101 -209.08376 L-169.06175 -204.77856 L-176.30893 -202.15767 L-178.52292 -198.99605 L-180.32318 -198.57813 L-182.45306 -194.14365 L-184.97002 -192.37727 L-184.54067 -190.49929 L-186.97896 -186.18297 L-188.39406 -185.89872 L-188.83778 -182.85986 L-198.57266 -170.00437 L-198.52704 -165.59926 L-197.15396 -163.68777 L-203.20108 -155.22324 L-204.60527 -148.61276 L-206.43618 -146.44014 L-205.59401 -142.96554 L-210.24536 -138.21845 L-212.46427 -131.99045 L-214.61934 -130.48208 L-214.84114 -123.41913 L-216.24067 -121.95404 L-217.01761 -116.5501 L-215.16119 -113.37485 L-220.87575 -103.15176 L-212.78042 -31.69476 L-187.3616 238.74491 L-184.71684 240.87911 L-182.89224 245.88369 L-176.223 251.24269 L-178.36264 257.98537 L-173.26073 265.25251 L-173.34833 268.97995 L-175.83976 272.74377 L-174.79952 275.45791 L-164.21145 279.51002 L-155.88594 279.88972 L-147.75934 278.13887 L-125.61886 282.86859 L-122.4147 282.43379 L-118.25803 278.98056 Z "  fill="#B2B2B2" fill-rule="evenodd" stroke="#FFFFFF" fill-opacity="1" stroke-opacity="1"  stroke-width="4" stroke-linecap="round" stroke-linejoin="round" stroke-miterlimit="10" />
</g>
<g transform="matrix(1.3333333 0 0 -1.3333333 332 417.5)">
<path d="M-118.25803 278.98056 L-106.57093 263.17368 L-117.26035 243.99388 L-111.62972 235.78293 L-107.96946 219.58223 L-96.960406 212.35898 L-87.848749 210.01687 L-82.739037 203.45561 L-76.562857 202.14509 L-72.956867 196.84057 L-66.590501 196.94622 L-65.006221 191.93084 L-59.947043 185.26651 L-55.193346 181.35589 L-46.400796 178.63696 L-40.500015 171.42705 L-34.293011 167.85303 L-31.442958 163.25089 L-26.117792 161.47664 L-26.466756 159.75619 L-32.983669 154.84446 L-27.005786 142.67174 L-26.407178 137.768 L-30.536023 128.03702 L-38.849233 123.25947 L-36.036953 109.95096 L-39.862587 102.85572 L-40.32798 99.246577 L-39.187885 95.702305 L-32.690269 87.668404 L-30.499658 80.716029 L-30.702774 75.63419 L-17.675766 78.519061 L-9.5319389 75.665497 L-14.505973 69.989688 L-18.157691 60.047604 L-17.208433 57.919976 L-12.124647 56.574282 L-10.966955 55.085852 L-15.602639 47.690912 L-14.763105 44.240891 L-9.519945 41.210206 L-3.8592382 41.67948 L3.9913122 45.372739 L6.4116763 54.274888 L15.145338 51.680334 L20.68475 55.167422 L26.254974 55.900862 L30.945122 60.096994 L35.490169 61.874101 L37.019031 59.739706 L35.317341 54.528194 L36.067482 53.209571 L43.071093 53.396256 L49.024477 57.276246 L53.434852 55.008903 L52.981467 51.723797 L46.915886 47.628174 L47.286883 45.399967 L61.410385 42.085653 L63.622766 36.31931 L70.398281 39.944346 L72.370991 38.803825 L73.354729 34.661654 L70.167067 30.730178 L67.492503 30.425553 L62.329396 33.15585 L60.265571 30.962205 L63.061992 19.224928 L67.675161 16.078912 L67.156214 10.253054 L71.84342 10.023251 L74.241843 -9.8171938 L72.784329 -11.808918 L67.452604 -12.736099 L63.667596 -16.372027 L53.655063 -20.3737 L54.054654 -25.307839 L50.07942 -29.098716 L54.286595 -35.439173 L60.41315 -37.972122 L68.11632 -37.739933 L75.650542 -35.374101 L83.506203 -36.28284 L91.003465 -39.540446 L108.02697 -39.361175 L115.3171 -43.917326 L121.38379 -45.032 L127.49856 -54.912225 L132.46688 -58.039076 L154.81802 -54.807574 L163.87423 -59.334494 L171.6112 -60.247172 L175.4546 -64.008163 L181.22947 -66.571945 L183.97212 -69.895552 L197.14896 -69.553437 L203.90969 -72.216548 L211.14916 -70.401514 L219.95644 -75.044927 L220.87575 -76.723236 L217.11105 -85.937667 L200.55111 -91.616194 L197.06128 -98.611102 L190.09517 -102.13113 L188.2585 -104.8388 L190.64575 -120.12047 L194.37615 -121.33243 L203.7203 -120.36987 L207.76747 -123.45611 L208.78617 -127.14165 L144.83744 -159.51556 L127.30889 -169.79671 L111.51153 -175.91324 L-85.742249 -270.78687 L-113.3204 -282.86859 L-112.66084 -279.96287 L-114.61546 -276.8197 L-110.94621 -269.51781 L-108.43126 -267.39557 L-108.64488 -265.90161 L-100.66373 -264.85662 L-99.653716 -261.25815 L-97.348153 -260.06443 L-97.371596 -257.90269 L-93.191885 -255.68345 L-93.670077 -252.01063 L-95.147219 -250.75743 L-97.448548 -251.63187 L-98.228057 -249.86351 L-103.8413 -249.68542 L-106.37468 -247.89746 L-106.20156 -243.82541 L-108.92424 -241.64348 L-113.28119 -241.02241 L-113.51631 -236.94937 L-118.51607 -231.66282 L-121.03919 -224.80903 L-123.91276 -224.86492 L-130.68216 -221.27881 L-131.20139 -222.56016 L-144.85758 -220.36572 L-147.62408 -218.25589 L-147.20889 -216.34942 L-148.83151 -214.69715 L-153.3223 -213.43464 L-156.19312 -209.89656 L-164.49101 -209.08376 L-169.06175 -204.77856 L-176.30893 -202.15767 L-178.52292 -198.99605 L-180.32318 -198.57813 L-182.45306 -194.14365 L-184.97002 -192.37727 L-184.54067 -190.49929 L-186.97896 -186.18297 L-188.39406 -185.89872 L-188.83778 -182.85986 L-198.57266 -170.00437 L-198.52704 -165.59926 L-197.15396 -163.68777 L-203.20108 -155.22324 L-204.60527 -148.61276 L-206.43618 -146.44014 L-205.59401 -142.96554 L-210.24536 -138.21845 L-212.46427 -131.99045 L-214.61934 -130.48208 L-214.84114 -123.41913 L-216.24067 -121.95404 L-217.01761 -116.5501 L-215.16119 -113.37485 L-220.87575 -103.15176 L-212.78042 -31.69476 L-187.3616 238.74491 L-184.71684 240.87911 L-182.89224 245.88369 L-176.223 251.24269 L-178.36264 257.98537 L-173.26073 265.25251 L-173.34833 268.97995 L-175.83976 272.74377 L-174.79952 275.45791 L-164.21145 279.51002 L-155.88594 279.88972 L-147.75934 278.13887 L-125.61886 282.86859 L-122.4147 282.43379 L-118.25803 278.98056 Z "  stroke="#000000" fill="none" stroke-opacity="1" stroke-width="2" stroke-linecap="round" stroke-linejoin="round" stroke-miterlimit="10" />
</g>
</g>
</g>
</svg>
