<?xml version="1.0" encoding="utf-8" standalone="no"?>
<!DOCTYPE svg PUBLIC "-//W3C//DTD SVG 1.1//EN" "http://www.w3.org/Graphics/SVG/1.1/DTD/svg11.dtd">
<svg version="1.1" xmlns="http://www.w3.org/2000/svg" xmlns:xlink="http://www.w3.org/1999/xlink" width="406pt" height="626pt" viewBox="0 0 406 626" xml:space="preserve" enable-background="new 0 0 406 626">
<g color-interpolation="linearRGB" transform="scale(0.75,0.75)">
<g id="DETCOG_County_Boundaries_SIMPLIFIED_100m_DougPeu_20231228">
<g transform="matrix(1.3333333 0 0 -1.3333333 271 417.5)">
<path d="M150.79253 210.94428 L180.12347 194.00694 L180.27019 88.910793 L169.13933 74.823741 L126.70695 32.407624 L136.55256 15.384816 L138.39194 8.5783594 L141.98307 3.8286861 L145.93309 -12.337826 L144.8756 -15.06158 L136.91528 -21.532211 L133.02226 -32.355683 L128.42334 -38.389081 L132.17886 -46.515329 L126.1578 -57.258445 L128.12388 -63.463592 L124.80757 -72.551913 L125.61397 -77.639962 L122.92407 -81.063474 L123.05798 -83.987607 L130.25355 -91.989686 L131.71612 -99.384856 L131.46045 -108.91935 L138.27791 -128.59931 L137.65627 -140.32246 L134.20146 -146.76986 L129.71073 -163.36605 L129.15135 -205.70424 L126.55124 -209.77146 L120.03238 -231.85888 L120.96241 -238.29909 L125.91477 -247.01706 L128.44834 -248.11451 L127.69109 -252.59538 L129.60199 -253.17403 L126.4144 -257.19349 L127.3397 -259.16121 L124.98603 -264.03719 L122.81221 -264.30065 L122.60156 -266.11929 L121.05491 -265.05139 L117.76707 -268.30026 L112.43517 -268.62815 L111.893 -269.47274 L113.68755 -270.34368 L112.81915 -271.05797 L109.2246 -270.07109 L109.13784 -268.88974 L107.97781 -270.33902 L107.61339 -267.89003 L106.24665 -270.53206 L48.779039 -283.04248 L46.74132 -280.95127 L48.360194 -277.05958 L45.730148 -274.634 L39.383517 -277.66946 L40.529201 -274.85252 L37.761183 -275.09995 L38.876382 -271.8276 L35.808287 -270.06715 L36.198798 -266.87456 L29.575966 -267.28161 L26.993277 -265.83859 L24.379244 -267.3413 L24.921353 -263.36352 L21.359308 -259.55333 L16.850589 -257.47914 L13.838727 -259.15056 L10.836811 -255.16991 L6.4819508 -257.843 L3.6966941 -252.0079 L-3.256409 -247.48594 L-2.2506495 -243.68764 L-5.9092216 -245.82531 L-3.0719303 -241.48955 L-8.0001164 -241.1972 L-13.023558 -237.55356 L-13.506103 -236.42091 L-11.496915 -236.68777 L-11.676816 -235.22944 L-18.813168 -229.18633 L-18.26237 -228.34151 L-15.143135 -229.81169 L-14.938473 -226.56598 L-18.806215 -223.91842 L-22.299568 -223.46568 L-21.86299 -220.60203 L-26.189493 -220.35519 L-26.191252 -217.68527 L-29.151313 -216.01591 L-30.19488 -208.80255 L-28.687391 -206.84518 L-32.547956 -206.43133 L-33.648087 -203.99863 L-41.132338 -204.82375 L-40.588894 -202.17549 L-45.047352 -202.03883 L-45.965534 -199.46545 L-51.290747 -203.12273 L-54.596074 -202.80047 L-54.989027 -201.06262 L-52.096654 -199.09167 L-53.506416 -195.08054 L-56.834722 -195.77763 L-56.102096 -191.56807 L-59.61375 -193.37314 L-60.954375 -197.64053 L-64.925156 -196.46607 L-64.843246 -199.28626 L-66.431334 -199.40094 L-69.692234 -193.3582 L-68.201535 -188.81935 L-72.961782 -183.03616 L-76.6915 -180.10937 L-79.837744 -180.82632 L-78.702376 -179.02264 L-80.240807 -177.98424 L-89.406884 -177.3174 L-91.535997 -173.34548 L-90.763846 -171.24702 L-93.482271 -170.43831 L-94.434666 -165.97294 L-101.17181 -167.4115 L-104.51748 -165.83236 L-101.77866 -164.21584 L-105.40317 -164.03741 L-106.84343 -160.93119 L-109.84353 -160.63072 L-108.59068 -158.95153 L-110.37528 -157.35654 L-109.09243 -156.00451 L-109.97778 -154.79629 L-115.12054 -154.99438 L-117.11573 -156.72624 L-117.87287 -153.80859 L-122.13854 -153.6784 L-120.43029 -147.42181 L-121.88117 -146.41908 L-122.98933 -147.84083 L-122.94326 -145.78309 L-127.2517 -141.4928 L-129.38652 -142.2716 L-129.38458 -137.23859 L-130.89992 -138.2013 L-131.01353 -137.16034 L-133.42531 -137.22628 L-132.53622 -134.89076 L-130.56682 -134.6599 L-131.98484 -132.02396 L-128.50123 -132.69005 L-128.43257 -129.45563 L-126.08907 -126.58698 L-123.73868 -127.23637 L-126.01858 -125.64732 L-127.132 -126.45779 L-126.6689 -124.86259 L-128.74056 -123.53434 L-128.43422 -119.66761 L-130.5684 -116.97571 L-133.16138 -116.56204 L-131.9904 -114.57756 L-133.1687 -114.03693 L-131.18472 -108.09938 L-125.30865 -102.67963 L-126.59546 -99.368647 L-123.24796 -94.939787 L-122.04958 -95.762721 L-121.27218 -94.189569 L-119.1436 -94.084933 L-120.17118 -91.427762 L-117.56277 -91.426517 L-119.44628 -86.359156 L-122.09963 -85.831307 L-121.55742 -84.38135 L-118.72388 -85.053262 L-115.79029 -82.469991 L-120.55015 -82.233848 L-118.13202 -81.204094 L-115.33261 -76.559152 L-116.66489 -75.192173 L-113.2977 -74.246183 L-114.60043 -73.81521 L-114.17326 -72.169821 L-111.68099 -72.207853 L-110.99797 -68.884585 L-114.06083 -69.031145 L-114.21964 -67.381025 L-112.66195 -67.881202 L-111.53411 -66.584352 L-113.9259 -64.963944 L-112.94511 -61.88311 L-116.30011 -60.533414 L-114.6398 -60.589357 L-114.54693 -57.960779 L-117.60999 -54.397156 L-117.11675 -52.751048 L-114.80087 -53.557107 L-115.1151 -51.418605 L-112.6949 -52.634303 L-113.31696 -50.143686 L-111.54123 -49.662122 L-111.05111 -47.864656 L-114.13822 -43.658027 L-112.74206 -44.066886 L-112.92897 -41.528598 L-109.52447 -38.881597 L-112.15264 -37.187117 L-111.53236 -35.387919 L-114.68018 -34.473734 L-112.80891 -33.965609 L-112.95604 -31.836655 L-113.73241 -33.032235 L-114.18949 -30.566261 L-115.97888 -31.318312 L-115.13959 -30.136692 L-117.24707 -28.679065 L-115.90349 -27.889191 L-118.32155 -26.6289 L-116.78927 -25.03588 L-118.91409 -23.408085 L-120.12989 -24.390224 L-120.14691 -18.310242 L-123.94473 -15.826407 L-122.08305 -14.484198 L-124.57175 -12.817841 L-121.76322 -10.166294 L-122.93463 -7.6301853 L-120.19725 -8.3571803 L-121.6316 -7.1856585 L-119.7664 -6.3727554 L-119.38897 -4.148345 L-121.66734 -3.4049333 L-119.48517 -2.9298639 L-120.05925 -0.65849509 L-118.4341 0.13079799 L-120.11915 0.54800652 L-119.65702 2.7439741 L-116.26305 7.474233 L-118.5056 10.543268 L-116.84236 12.742369 L-119.58381 13.056584 L-119.25615 15.723716 L-117.85069 15.156906 L-117.42013 16.490641 L-120.10212 20.592227 L-118.08087 22.143353 L-119.42275 21.802298 L-120.59413 24.269114 L-118.38551 27.286102 L-116.24957 26.789789 L-117.60279 27.43124 L-116.55242 28.862349 L-114.85132 28.068392 L-113.56025 30.563887 L-110.95221 29.705833 L-113.10064 28.425831 L-112.04651 26.624157 L-107.88666 28.785311 L-107.24954 30.281648 L-109.72168 34.630069 L-107.86714 34.904208 L-109.38703 36.483846 L-108.37279 37.17024 L-107.57276 35.682829 L-103.856 38.708934 L-105.17549 39.834739 L-103.76484 39.350281 L-103.6018 40.802394 L-105.28438 41.827163 L-102.24354 42.888416 L-100.76527 46.722715 L-103.84183 48.720533 L-103.28003 50.77179 L-105.13254 49.632248 L-105.01869 53.476101 L-107.89646 55.667958 L-108.49718 54.456031 L-110.67695 55.490594 L-110.40733 57.385665 L-108.03252 56.710268 L-110.86126 58.590773 L-109.22639 61.031224 L-111.42684 62.144457 L-113.10193 61.132019 L-112.81808 64.456858 L-114.47515 63.750926 L-114.56077 65.094053 L-118.07788 65.64014 L-115.13735 65.633541 L-114.49084 70.474694 L-111.87694 70.131694 L-109.68105 72.898196 L-112.03701 75.884076 L-109.94701 75.282089 L-110.50806 76.84199 L-109.30719 77.834861 L-111.76521 79.011201 L-110.03631 79.078183 L-110.50849 82.529867 L-107.89995 81.302175 L-109.67614 83.54498 L-107.34187 86.864063 L-109.1486 90.265757 L-106.32664 94.667437 L-109.81489 96.093491 L-110.34963 97.235338 L-108.51496 97.569843 L-108.23467 99.040809 L-110.01715 101.71653 L-111.66721 101.3741 L-112.49263 105.06338 L-112.18147 107.89651 L-110.19187 108.79432 L-110.71093 111.48094 L-107.79319 112.71723 L-109.12613 115.35199 L-107.88245 119.04445 L-109.68259 122.16735 L-107.69432 122.67779 L-106.25113 119.38549 L-102.31195 118.57559 L-102.09863 119.69874 L-105.82061 120.78187 L-104.2584 120.77741 L-103.74749 122.97393 L-103.53874 121.6693 L-101.53906 122.19332 L-102.19334 123.22818 L-100.21525 123.0057 L-101.24131 123.92684 L-99.509073 126.66154 L-99.639935 132.11905 L-97.325293 131.70553 L-98.583894 134.77744 L-97.43335 138.50567 L-98.891085 138.98702 L-99.109146 141.49957 L-103.17008 141.34776 L-104.60502 142.60199 L-101.36022 143.25044 L-100.50528 145.42081 L-104.25282 143.75566 L-104.01053 145.84656 L-101.04277 147.08593 L-102.20544 149.1759 L-103.97581 149.34012 L-103.57306 151.02641 L-101.18548 149.66113 L-101.73641 152.27655 L-95.222049 153.94077 L-97.570028 156.9869 L-101.31961 157.72506 L-99.0291 158.53561 L-99.133174 160.68252 L-97.191895 160.85641 L-99.519783 161.23228 L-98.707981 164.24433 L-100.10382 163.28601 L-101.81141 165.21968 L-99.729529 165.90735 L-100.6689 174.65681 L-98.205006 173.9565 L-99.684203 175.12108 L-98.928441 176.27606 L-100.26856 175.70279 L-100.26655 178.38229 L-102.50915 179.07673 L-100.85263 179.30047 L-102.46702 182.04067 L-100.95106 182.6974 L-101.33911 186.78434 L-98.964471 191.31366 L-99.426026 194.5311 L-101.92098 195.27227 L-100.17258 196.48954 L-102.05314 196.92017 L-99.410898 198.78372 L-100.9977 199.81632 L-102.49951 198.75772 L-101.69462 200.48485 L-104.0934 201.2551 L-103.92812 204.37221 L-106.51689 203.47539 L-106.58861 206.64052 L-103.92372 207.30404 L-106.06042 208.53257 L-106.28264 211.53123 L-104.77523 211.38039 L-104.02354 217.27842 L-106.35193 216.10682 L-107.39471 218.12836 L-108.55587 216.33797 L-109.50197 218.44734 L-114.33361 218.74997 L-114.2413 220.62309 L-116.12236 219.4671 L-118.93011 220.26203 L-117.23736 221.72703 L-117.79176 223.1763 L-119.62025 222.13229 L-118.30573 224.86427 L-120.84377 225.35947 L-120.54866 227.86878 L-122.15893 227.52483 L-121.49274 229.75972 L-122.61682 227.9573 L-124.35683 229.08397 L-123.63299 231.20967 L-125.19103 228.98627 L-126.15117 229.47311 L-125.4583 231.04756 L-129.03144 234.0619 L-129.03545 237.41351 L-131.13149 234.30885 L-131.75125 235.31582 L-133.69702 234.23271 L-132.59709 236.28668 L-133.66928 235.69494 L-134.38137 236.94012 L-136.3693 236.23275 L-136.36687 234.14014 L-138.21691 235.19883 L-139.79041 239.72942 L-138.93557 240.46569 L-140.27084 240.79942 L-139.46671 243.20554 L-143.42685 244.3473 L-141.54433 245.5837 L-144.76607 248.98304 L-142.74051 250.0867 L-143.42537 251.56895 L-145.09255 250.762 L-150.39579 254.07119 L-152.65055 253.15635 L-152.59856 255.35 L-150.46246 255.15038 L-153.0976 257.34958 L-152.52615 259.24451 L-150.17713 259.31305 L-150.48258 260.91469 L-151.86479 260.69868 L-152.20672 263.09967 L-153.12851 261.40193 L-153.46119 263.72905 L-154.67914 261.95808 L-154.72626 265.16575 L-156.42029 264.0049 L-158.01462 264.96235 L-158.78279 268.63481 L-160.19366 268.05134 L-159.7543 266.48605 L-162.57074 265.39024 L-166.4427 266.63857 L-167.72749 269.47955 L-169.26226 268.02461 L-169.8403 269.99773 L-171.14856 267.14283 L-172.00803 269.25113 L-176.80682 268.38867 L-175.85993 270.45415 L-178.83035 273.7059 L-176.85421 274.74983 L-176.64547 277.36546 L-178.67009 277.07854 L-180.27019 283.04248 L87.902268 247.22529 L150.79253 210.94428 Z "  fill="#B2B2B2" fill-rule="evenodd" stroke="#FFFFFF" fill-opacity="1" stroke-opacity="1"  stroke-width="4" stroke-linecap="round" stroke-linejoin="round" stroke-miterlimit="10" />
</g>
<g transform="matrix(1.3333333 0 0 -1.3333333 271 417.5)">
<path d="M150.79253 210.94428 L180.12347 194.00694 L180.27019 88.910793 L169.13933 74.823741 L126.70695 32.407624 L136.55256 15.384816 L138.39194 8.5783594 L141.98307 3.8286861 L145.93309 -12.337826 L144.8756 -15.06158 L136.91528 -21.532211 L133.02226 -32.355683 L128.42334 -38.389081 L132.17886 -46.515329 L126.1578 -57.258445 L128.12388 -63.463592 L124.80757 -72.551913 L125.61397 -77.639962 L122.92407 -81.063474 L123.05798 -83.987607 L130.25355 -91.989686 L131.71612 -99.384856 L131.46045 -108.91935 L138.27791 -128.59931 L137.65627 -140.32246 L134.20146 -146.76986 L129.71073 -163.36605 L129.15135 -205.70424 L126.55124 -209.77146 L120.03238 -231.85888 L120.96241 -238.29909 L125.91477 -247.01706 L128.44834 -248.11451 L127.69109 -252.59538 L129.60199 -253.17403 L126.4144 -257.19349 L127.3397 -259.16121 L124.98603 -264.03719 L122.81221 -264.30065 L122.60156 -266.11929 L121.05491 -265.05139 L117.76707 -268.30026 L112.43517 -268.62815 L111.893 -269.47274 L113.68755 -270.34368 L112.81915 -271.05797 L109.2246 -270.07109 L109.13784 -268.88974 L107.97781 -270.33902 L107.61339 -267.89003 L106.24665 -270.53206 L48.779039 -283.04248 L46.74132 -280.95127 L48.360194 -277.05958 L45.730148 -274.634 L39.383517 -277.66946 L40.529201 -274.85252 L37.761183 -275.09995 L38.876382 -271.8276 L35.808287 -270.06715 L36.198798 -266.87456 L29.575966 -267.28161 L26.993277 -265.83859 L24.379244 -267.3413 L24.921353 -263.36352 L21.359308 -259.55333 L16.850589 -257.47914 L13.838727 -259.15056 L10.836811 -255.16991 L6.4819508 -257.843 L3.6966941 -252.0079 L-3.256409 -247.48594 L-2.2506495 -243.68764 L-5.9092216 -245.82531 L-3.0719303 -241.48955 L-8.0001164 -241.1972 L-13.023558 -237.55356 L-13.506103 -236.42091 L-11.496915 -236.68777 L-11.676816 -235.22944 L-18.813168 -229.18633 L-18.26237 -228.34151 L-15.143135 -229.81169 L-14.938473 -226.56598 L-18.806215 -223.91842 L-22.299568 -223.46568 L-21.86299 -220.60203 L-26.189493 -220.35519 L-26.191252 -217.68527 L-29.151313 -216.01591 L-30.19488 -208.80255 L-28.687391 -206.84518 L-32.547956 -206.43133 L-33.648087 -203.99863 L-41.132338 -204.82375 L-40.588894 -202.17549 L-45.047352 -202.03883 L-45.965534 -199.46545 L-51.290747 -203.12273 L-54.596074 -202.80047 L-54.989027 -201.06262 L-52.096654 -199.09167 L-53.506416 -195.08054 L-56.834722 -195.77763 L-56.102096 -191.56807 L-59.61375 -193.37314 L-60.954375 -197.64053 L-64.925156 -196.46607 L-64.843246 -199.28626 L-66.431334 -199.40094 L-69.692234 -193.3582 L-68.201535 -188.81935 L-72.961782 -183.03616 L-76.6915 -180.10937 L-79.837744 -180.82632 L-78.702376 -179.02264 L-80.240807 -177.98424 L-89.406884 -177.3174 L-91.535997 -173.34548 L-90.763846 -171.24702 L-93.482271 -170.43831 L-94.434666 -165.97294 L-101.17181 -167.4115 L-104.51748 -165.83236 L-101.77866 -164.21584 L-105.40317 -164.03741 L-106.84343 -160.93119 L-109.84353 -160.63072 L-108.59068 -158.95153 L-110.37528 -157.35654 L-109.09243 -156.00451 L-109.97778 -154.79629 L-115.12054 -154.99438 L-117.11573 -156.72624 L-117.87287 -153.80859 L-122.13854 -153.6784 L-120.43029 -147.42181 L-121.88117 -146.41908 L-122.98933 -147.84083 L-122.94326 -145.78309 L-127.2517 -141.4928 L-129.38652 -142.2716 L-129.38458 -137.23859 L-130.89992 -138.2013 L-131.01353 -137.16034 L-133.42531 -137.22628 L-132.53622 -134.89076 L-130.56682 -134.6599 L-131.98484 -132.02396 L-128.50123 -132.69005 L-128.43257 -129.45563 L-126.08907 -126.58698 L-123.73868 -127.23637 L-126.01858 -125.64732 L-127.132 -126.45779 L-126.6689 -124.86259 L-128.74056 -123.53434 L-128.43422 -119.66761 L-130.5684 -116.97571 L-133.16138 -116.56204 L-131.9904 -114.57756 L-133.1687 -114.03693 L-131.18472 -108.09938 L-125.30865 -102.67963 L-126.59546 -99.368647 L-123.24796 -94.939787 L-122.04958 -95.762721 L-121.27218 -94.189569 L-119.1436 -94.084933 L-120.17118 -91.427762 L-117.56277 -91.426517 L-119.44628 -86.359156 L-122.09963 -85.831307 L-121.55742 -84.38135 L-118.72388 -85.053262 L-115.79029 -82.469991 L-120.55015 -82.233848 L-118.13202 -81.204094 L-115.33261 -76.559152 L-116.66489 -75.192173 L-113.2977 -74.246183 L-114.60043 -73.81521 L-114.17326 -72.169821 L-111.68099 -72.207853 L-110.99797 -68.884585 L-114.06083 -69.031145 L-114.21964 -67.381025 L-112.66195 -67.881202 L-111.53411 -66.584352 L-113.9259 -64.963944 L-112.94511 -61.88311 L-116.30011 -60.533414 L-114.6398 -60.589357 L-114.54693 -57.960779 L-117.60999 -54.397156 L-117.11675 -52.751048 L-114.80087 -53.557107 L-115.1151 -51.418605 L-112.6949 -52.634303 L-113.31696 -50.143686 L-111.54123 -49.662122 L-111.05111 -47.864656 L-114.13822 -43.658027 L-112.74206 -44.066886 L-112.92897 -41.528598 L-109.52447 -38.881597 L-112.15264 -37.187117 L-111.53236 -35.387919 L-114.68018 -34.473734 L-112.80891 -33.965609 L-112.95604 -31.836655 L-113.73241 -33.032235 L-114.18949 -30.566261 L-115.97888 -31.318312 L-115.13959 -30.136692 L-117.24707 -28.679065 L-115.90349 -27.889191 L-118.32155 -26.6289 L-116.78927 -25.03588 L-118.91409 -23.408085 L-120.12989 -24.390224 L-120.14691 -18.310242 L-123.94473 -15.826407 L-122.08305 -14.484198 L-124.57175 -12.817841 L-121.76322 -10.166294 L-122.93463 -7.6301853 L-120.19725 -8.3571803 L-121.6316 -7.1856585 L-119.7664 -6.3727554 L-119.38897 -4.148345 L-121.66734 -3.4049333 L-119.48517 -2.9298639 L-120.05925 -0.65849509 L-118.4341 0.13079799 L-120.11915 0.54800652 L-119.65702 2.7439741 L-116.26305 7.474233 L-118.5056 10.543268 L-116.84236 12.742369 L-119.58381 13.056584 L-119.25615 15.723716 L-117.85069 15.156906 L-117.42013 16.490641 L-120.10212 20.592227 L-118.08087 22.143353 L-119.42275 21.802298 L-120.59413 24.269114 L-118.38551 27.286102 L-116.24957 26.789789 L-117.60279 27.43124 L-116.55242 28.862349 L-114.85132 28.068392 L-113.56025 30.563887 L-110.95221 29.705833 L-113.10064 28.425831 L-112.04651 26.624157 L-107.88666 28.785311 L-107.24954 30.281648 L-109.72168 34.630069 L-107.86714 34.904208 L-109.38703 36.483846 L-108.37279 37.17024 L-107.57276 35.682829 L-103.856 38.708934 L-105.17549 39.834739 L-103.76484 39.350281 L-103.6018 40.802394 L-105.28438 41.827163 L-102.24354 42.888416 L-100.76527 46.722715 L-103.84183 48.720533 L-103.28003 50.77179 L-105.13254 49.632248 L-105.01869 53.476101 L-107.89646 55.667958 L-108.49718 54.456031 L-110.67695 55.490594 L-110.40733 57.385665 L-108.03252 56.710268 L-110.86126 58.590773 L-109.22639 61.031224 L-111.42684 62.144457 L-113.10193 61.132019 L-112.81808 64.456858 L-114.47515 63.750926 L-114.56077 65.094053 L-118.07788 65.64014 L-115.13735 65.633541 L-114.49084 70.474694 L-111.87694 70.131694 L-109.68105 72.898196 L-112.03701 75.884076 L-109.94701 75.282089 L-110.50806 76.84199 L-109.30719 77.834861 L-111.76521 79.011201 L-110.03631 79.078183 L-110.50849 82.529867 L-107.89995 81.302175 L-109.67614 83.54498 L-107.34187 86.864063 L-109.1486 90.265757 L-106.32664 94.667437 L-109.81489 96.093491 L-110.34963 97.235338 L-108.51496 97.569843 L-108.23467 99.040809 L-110.01715 101.71653 L-111.66721 101.3741 L-112.49263 105.06338 L-112.18147 107.89651 L-110.19187 108.79432 L-110.71093 111.48094 L-107.79319 112.71723 L-109.12613 115.35199 L-107.88245 119.04445 L-109.68259 122.16735 L-107.69432 122.67779 L-106.25113 119.38549 L-102.31195 118.57559 L-102.09863 119.69874 L-105.82061 120.78187 L-104.2584 120.77741 L-103.74749 122.97393 L-103.53874 121.6693 L-101.53906 122.19332 L-102.19334 123.22818 L-100.21525 123.0057 L-101.24131 123.92684 L-99.509073 126.66154 L-99.639935 132.11905 L-97.325293 131.70553 L-98.583894 134.77744 L-97.43335 138.50567 L-98.891085 138.98702 L-99.109146 141.49957 L-103.17008 141.34776 L-104.60502 142.60199 L-101.36022 143.25044 L-100.50528 145.42081 L-104.25282 143.75566 L-104.01053 145.84656 L-101.04277 147.08593 L-102.20544 149.1759 L-103.97581 149.34012 L-103.57306 151.02641 L-101.18548 149.66113 L-101.73641 152.27655 L-95.222049 153.94077 L-97.570028 156.9869 L-101.31961 157.72506 L-99.0291 158.53561 L-99.133174 160.68252 L-97.191895 160.85641 L-99.519783 161.23228 L-98.707981 164.24433 L-100.10382 163.28601 L-101.81141 165.21968 L-99.729529 165.90735 L-100.6689 174.65681 L-98.205006 173.9565 L-99.684203 175.12108 L-98.928441 176.27606 L-100.26856 175.70279 L-100.26655 178.38229 L-102.50915 179.07673 L-100.85263 179.30047 L-102.46702 182.04067 L-100.95106 182.6974 L-101.33911 186.78434 L-98.964471 191.31366 L-99.426026 194.5311 L-101.92098 195.27227 L-100.17258 196.48954 L-102.05314 196.92017 L-99.410898 198.78372 L-100.9977 199.81632 L-102.49951 198.75772 L-101.69462 200.48485 L-104.0934 201.2551 L-103.92812 204.37221 L-106.51689 203.47539 L-106.58861 206.64052 L-103.92372 207.30404 L-106.06042 208.53257 L-106.28264 211.53123 L-104.77523 211.38039 L-104.02354 217.27842 L-106.35193 216.10682 L-107.39471 218.12836 L-108.55587 216.33797 L-109.50197 218.44734 L-114.33361 218.74997 L-114.2413 220.62309 L-116.12236 219.4671 L-118.93011 220.26203 L-117.23736 221.72703 L-117.79176 223.1763 L-119.62025 222.13229 L-118.30573 224.86427 L-120.84377 225.35947 L-120.54866 227.86878 L-122.15893 227.52483 L-121.49274 229.75972 L-122.61682 227.9573 L-124.35683 229.08397 L-123.63299 231.20967 L-125.19103 228.98627 L-126.15117 229.47311 L-125.4583 231.04756 L-129.03144 234.0619 L-129.03545 237.41351 L-131.13149 234.30885 L-131.75125 235.31582 L-133.69702 234.23271 L-132.59709 236.28668 L-133.66928 235.69494 L-134.38137 236.94012 L-136.3693 236.23275 L-136.36687 234.14014 L-138.21691 235.19883 L-139.79041 239.72942 L-138.93557 240.46569 L-140.27084 240.79942 L-139.46671 243.20554 L-143.42685 244.3473 L-141.54433 245.5837 L-144.76607 248.98304 L-142.74051 250.0867 L-143.42537 251.56895 L-145.09255 250.762 L-150.39579 254.07119 L-152.65055 253.15635 L-152.59856 255.35 L-150.46246 255.15038 L-153.0976 257.34958 L-152.52615 259.24451 L-150.17713 259.31305 L-150.48258 260.91469 L-151.86479 260.69868 L-152.20672 263.09967 L-153.12851 261.40193 L-153.46119 263.72905 L-154.67914 261.95808 L-154.72626 265.16575 L-156.42029 264.0049 L-158.01462 264.96235 L-158.78279 268.63481 L-160.19366 268.05134 L-159.7543 266.48605 L-162.57074 265.39024 L-166.4427 266.63857 L-167.72749 269.47955 L-169.26226 268.02461 L-169.8403 269.99773 L-171.14856 267.14283 L-172.00803 269.25113 L-176.80682 268.38867 L-175.85993 270.45415 L-178.83035 273.7059 L-176.85421 274.74983 L-176.64547 277.36546 L-178.67009 277.07854 L-180.27019 283.04248 L87.902268 247.22529 L150.79253 210.94428 Z "  stroke="#000000" fill="none" stroke-opacity="1" stroke-width="2" stroke-linecap="round" stroke-linejoin="round" stroke-miterlimit="10" />
</g>
</g>
</g>
</svg>
