<?xml version="1.0" encoding="utf-8" standalone="no"?>
<!DOCTYPE svg PUBLIC "-//W3C//DTD SVG 1.1//EN" "http://www.w3.org/Graphics/SVG/1.1/DTD/svg11.dtd">
<svg version="1.1" xmlns="http://www.w3.org/2000/svg" xmlns:xlink="http://www.w3.org/1999/xlink" width="904pt" height="626pt" viewBox="0 0 904 626" xml:space="preserve" enable-background="new 0 0 904 626">
<g color-interpolation="linearRGB" transform="scale(0.75,0.75)">
<g id="DETCOG_County_Boundaries_SIMPLIFIED_100m_DougPeu_20231228">
<g transform="matrix(1.3333333 0 0 -1.3333333 603 417.5)">
<path d="M82.999144 279.85408 L86.20049 281.51657 L158.70923 281.79063 L165.9798 279.73226 L172.71582 273.23623 L180.87128 254.27113 L192.5232 238.77289 L195.5453 231.03628 L201.05519 225.73821 L206.36946 208.52905 L212.50633 200.41762 L216.05372 199.0676 L223.21809 204.50499 L226.9266 203.63663 L234.76714 185.91177 L253.41083 183.99571 L263.90551 188.51973 L271.91736 176.9373 L267.56739 174.22019 L259.25579 161.51559 L260.97319 159.4892 L267.47929 163.54248 L268.2236 161.24977 L265.20925 157.74716 L270.38255 152.14257 L273.68343 152.13 L272.94319 158.2446 L278.51432 157.77752 L279.62413 162.49316 L282.70327 160.31971 L282.03624 157.44466 L289.86225 161.19213 L290.2422 157.24291 L293.54587 165.61292 L296.24606 166.7119 L299.19635 162.23933 L301.2221 151.60126 L294.68043 143.02475 L294.85854 136.47023 L297.30342 135.20509 L300.95827 137.857 L306.0528 137.64054 L307.11594 136.45942 L304.90098 132.24228 L310.02224 129.1089 L313.78134 123.25731 L314.90593 128.99523 L318.58788 127.17929 L318.82208 123.64026 L309.276 110.25787 L317.17962 108.17576 L315.05551 99.918356 L321.63102 94.820418 L317.72799 94.108217 L317.87544 91.881433 L324.76451 90.461756 L328.11 83.319991 L323.40001 78.036298 L326.15148 73.957622 L325.66899 62.67903 L330.04595 60.195463 L329.99289 56.326322 L327.29547 54.428475 L329.39885 52.276776 L334.94652 54.195184 L341.76463 49.699237 L343.90344 45.447514 L350.6788 40.512824 L352.6149 33.531502 L357.82887 32.509548 L359.51189 35.638492 L366.87017 33.451349 L371.04052 26.997064 L368.91808 16.266477 L371.30974 12.531618 L368.75266 10.046745 L369.01684 6.5470984 L375.63888 6.8768213 L377.14582 4.2715323 L374.39473 1.9282255 L381.83187 2.0155764 L386.60523 -3.6131681 L383.35545 -12.465087 L378.30927 -16.573534 L381.54281 -17.264661 L382.12402 -22.897317 L379.92878 -20.968369 L377.66248 -21.876755 L376.35584 -29.225163 L371.61498 -31.922017 L370.19734 -38.311089 L375.48507 -42.083977 L385.3467 -58.766119 L394.98079 -64.698451 L398.07992 -83.815416 L392.86388 -93.995359 L398.98372 -94.958667 L400.7103 -100.76537 L416.0025 -97.368879 L419.09406 -100.5583 L413.58027 -113.94982 L406.20002 -123.07849 L407.24079 -126.56423 L399.69179 -132.38296 L397.93942 -136.34675 L393.28803 -138.31139 L397.50892 -146.04525 L392.45717 -148.74825 L392.02947 -143.5367 L386.21695 -140.65307 L381.06219 -150.26872 L381.45149 -157.10421 L388.93985 -169.73848 L391.63221 -172.19459 L396.58478 -172.66092 L398.68929 -176.51648 L396.35063 -178.35858 L392.35784 -175.12422 L390.64622 -177.05855 L393.10168 -187.63754 L390.47636 -192.56315 L393.11986 -197.84309 L387.17576 -202.72771 L391.76158 -207.64828 L392.67572 -211.45617 L380.10077 -213.63993 L388.10593 -217.89917 L389.39148 -221.58384 L387.77841 -222.47727 L378.95987 -218.94074 L372.64512 -229.04773 L366.05914 -234.14491 L367.49844 -239.95971 L365.67109 -242.39575 L370.27175 -255.46398 L369.05694 -262.01029 L364.76917 -257.4782 L363.42914 -259.3438 L356.46927 -257.43244 L351.6788 -250.27684 L349.06404 -252.459 L342.80416 -251.36331 L339.5375 -253.00269 L335.71903 -249.25638 L337.81158 -246.78374 L334.31857 -244.32941 L326.00678 -243.03525 L326.20546 -246.80896 L321.84436 -246.20994 L319.08969 -241.76773 L316.44653 -242.86123 L314.07765 -239.15725 L311.85985 -240.54624 L310.59212 -236.7926 L305.57048 -235.32197 L304.31669 -231.61328 L299.23777 -231.06098 L296.98672 -229.05602 L298.01809 -225.39569 L295.09194 -225.3213 L269.30588 -242.53541 L263.2949 -253.96586 L246.05587 -254.55979 L240.16207 -260.2697 L231.19678 -262.75954 L222.9689 -268.24346 L211.52371 -278.85297 L202.67355 -282.35224 L193.97229 -282.86377 L69.389008 -210.96907 L-292.37128 -161.46345 L-290.87594 -158.84983 L-296.11828 -158.38498 L-295.29058 -156.3008 L-297.95879 -153.4289 L-293.53593 -150.22049 L-295.43667 -151.50194 L-301.51662 -145.71354 L-299.09584 -141.81782 L-300.34766 -137.74306 L-298.0884 -138.23673 L-300.54394 -134.93518 L-297.61073 -131.00728 L-299.76605 -128.0379 L-297.5506 -122.68446 L-298.59616 -119.71674 L-300.34473 -119.90662 L-300.47699 -115.55522 L-302.38448 -116.37774 L-301.24737 -114.49954 L-303.55162 -113.85665 L-301.42089 -111.71311 L-304.57403 -110.17683 L-300.81519 -104.53551 L-307.54449 -100.25618 L-307.93116 -97.827075 L-304.97146 -97.819924 L-306.20835 -95.939934 L-307.56132 -96.940944 L-308.30906 -93.232236 L-310.01063 -93.363303 L-309.254 -91.122571 L-312.45983 -89.182568 L-309.63877 -82.88437 L-311.14004 -80.122873 L-309.09418 -79.33887 L-310.1011 -76.143311 L-307.45883 -76.529716 L-308.94881 -69.301963 L-307.31606 -68.544119 L-310.75592 -64.219162 L-307.17771 -59.027869 L-309.70844 -56.357481 L-306.79801 -51.743764 L-308.70737 -47.636761 L-307.69044 -37.799998 L-309.12494 -36.882949 L-306.559 -34.160654 L-309.28905 -34.158867 L-309.10546 -30.468407 L-311.22311 -30.298042 L-311.09332 -27.697567 L-308.20584 -26.351895 L-311.31056 -26.040398 L-311.22135 -23.972407 L-313.19254 -25.113298 L-311.03113 -19.751708 L-316.06136 -16.599244 L-315.18883 -13.512147 L-317.80286 -13.677251 L-317.54294 -11.82214 L-315.33919 -11.745348 L-316.68104 -11.284554 L-315.22624 -8.2628807 L-317.44118 -9.2746599 L-316.71592 -7.6463054 L-328.10147 1.8233753 L-326.58985 3.8132375 L-328.75846 3.7034572 L-329.41779 5.7682687 L-328.00019 4.8861058 L-323.40486 8.8236207 L-325.55043 11.295958 L-325.24235 16.726999 L-323.62864 17.259084 L-325.34303 18.218983 L-322.74088 19.35916 L-323.85223 24.491085 L-320.48865 26.912774 L-322.82898 29.678314 L-320.86674 31.582052 L-321.73146 35.721075 L-319.18546 35.729517 L-321.15706 38.350063 L-319.25125 38.48447 L-320.51665 39.720849 L-319.28302 40.19558 L-323.10452 42.20557 L-324.00707 43.893902 L-322.30952 45.491828 L-326.64624 48.271225 L-323.64211 52.720264 L-325.1203 52.102134 L-326.95124 53.981939 L-325.98312 56.46349 L-328.92072 57.918892 L-327.60917 63.377793 L-330.35651 67.419109 L-328.85496 70.23638 L-331.40184 71.934548 L-330.42427 74.035775 L-332.89047 73.057896 L-333.2394 77.701067 L-337.67698 79.739177 L-339.95672 84.107076 L-343.14491 84.857576 L-343.79589 88.183342 L-345.28998 88.033993 L-344.03759 90.384617 L-345.52063 89.949464 L-350.10658 96.321365 L-351.27087 95.268997 L-352.2265 106.3092 L-356.29787 106.57951 L-356.31824 110.39761 L-358.30516 109.92515 L-357.10176 112.5113 L-360.96743 112.6377 L-365.1819 118.82685 L-365.59077 120.7919 L-363.31985 121.32883 L-365.09377 122.31716 L-360.10721 123.87042 L-361.83118 126.38124 L-359.35388 127.66007 L-361.59959 127.65787 L-360.32113 129.62581 L-363.68291 135.44066 L-362.7987 139.78562 L-367.25895 146.19217 L-367.30245 149.36153 L-371.24766 149.67872 L-372.44652 154.06252 L-376.16728 153.90106 L-375.26988 155.88565 L-379.73145 160.34442 L-380.83406 159.52279 L-378.07078 163.90904 L-383.38678 169.63224 L-381.84558 174.90736 L-383.44631 176.66008 L-384.86364 175.72331 L-385.74458 179.47275 L-383.93525 181.47733 L-386.36252 181.31011 L-388.25088 184.24128 L-391.25067 183.11521 L-392.80511 186.64217 L-395.85555 187.65347 L-395.11777 188.99652 L-396.80991 188.71286 L-396.10572 193.42116 L-399.6391 192.40291 L-402.5546 194.26367 L-405.14004 197.68212 L-404.37613 199.34054 L-407.3006 197.99246 L-408.24527 200.62899 L-411.06103 200.23574 L-411.36919 206.92855 L-419.09406 212.15983 L-418.32605 280.26644 L-240.91312 280.8979 L-225.63228 278.59242 L-222.06364 280.76087 L-118.58546 279.95012 L41.403549 282.36678 L62.238656 281.66031 L62.226983 279.66119 L69.138814 279.32899 L69.73306 280.75022 L78.482989 279.66211 L78.596462 282.86358 L82.95621 282.86377 L82.999144 279.85408 Z "  fill="#B2B2B2" fill-rule="evenodd" stroke="#FFFFFF" fill-opacity="1" stroke-opacity="1"  stroke-width="4" stroke-linecap="round" stroke-linejoin="round" stroke-miterlimit="10" />
</g>
<g transform="matrix(1.3333333 0 0 -1.3333333 603 417.5)">
<path d="M82.999144 279.85408 L86.20049 281.51657 L158.70923 281.79063 L165.9798 279.73226 L172.71582 273.23623 L180.87128 254.27113 L192.5232 238.77289 L195.5453 231.03628 L201.05519 225.73821 L206.36946 208.52905 L212.50633 200.41762 L216.05372 199.0676 L223.21809 204.50499 L226.9266 203.63663 L234.76714 185.91177 L253.41083 183.99571 L263.90551 188.51973 L271.91736 176.9373 L267.56739 174.22019 L259.25579 161.51559 L260.97319 159.4892 L267.47929 163.54248 L268.2236 161.24977 L265.20925 157.74716 L270.38255 152.14257 L273.68343 152.13 L272.94319 158.2446 L278.51432 157.77752 L279.62413 162.49316 L282.70327 160.31971 L282.03624 157.44466 L289.86225 161.19213 L290.2422 157.24291 L293.54587 165.61292 L296.24606 166.7119 L299.19635 162.23933 L301.2221 151.60126 L294.68043 143.02475 L294.85854 136.47023 L297.30342 135.20509 L300.95827 137.857 L306.0528 137.64054 L307.11594 136.45942 L304.90098 132.24228 L310.02224 129.1089 L313.78134 123.25731 L314.90593 128.99523 L318.58788 127.17929 L318.82208 123.64026 L309.276 110.25787 L317.17962 108.17576 L315.05551 99.918356 L321.63102 94.820418 L317.72799 94.108217 L317.87544 91.881433 L324.76451 90.461756 L328.11 83.319991 L323.40001 78.036298 L326.15148 73.957622 L325.66899 62.67903 L330.04595 60.195463 L329.99289 56.326322 L327.29547 54.428475 L329.39885 52.276776 L334.94652 54.195184 L341.76463 49.699237 L343.90344 45.447514 L350.6788 40.512824 L352.6149 33.531502 L357.82887 32.509548 L359.51189 35.638492 L366.87017 33.451349 L371.04052 26.997064 L368.91808 16.266477 L371.30974 12.531618 L368.75266 10.046745 L369.01684 6.5470984 L375.63888 6.8768213 L377.14582 4.2715323 L374.39473 1.9282255 L381.83187 2.0155764 L386.60523 -3.6131681 L383.35545 -12.465087 L378.30927 -16.573534 L381.54281 -17.264661 L382.12402 -22.897317 L379.92878 -20.968369 L377.66248 -21.876755 L376.35584 -29.225163 L371.61498 -31.922017 L370.19734 -38.311089 L375.48507 -42.083977 L385.3467 -58.766119 L394.98079 -64.698451 L398.07992 -83.815416 L392.86388 -93.995359 L398.98372 -94.958667 L400.7103 -100.76537 L416.0025 -97.368879 L419.09406 -100.5583 L413.58027 -113.94982 L406.20002 -123.07849 L407.24079 -126.56423 L399.69179 -132.38296 L397.93942 -136.34675 L393.28803 -138.31139 L397.50892 -146.04525 L392.45717 -148.74825 L392.02947 -143.5367 L386.21695 -140.65307 L381.06219 -150.26872 L381.45149 -157.10421 L388.93985 -169.73848 L391.63221 -172.19459 L396.58478 -172.66092 L398.68929 -176.51648 L396.35063 -178.35858 L392.35784 -175.12422 L390.64622 -177.05855 L393.10168 -187.63754 L390.47636 -192.56315 L393.11986 -197.84309 L387.17576 -202.72771 L391.76158 -207.64828 L392.67572 -211.45617 L380.10077 -213.63993 L388.10593 -217.89917 L389.39148 -221.58384 L387.77841 -222.47727 L378.95987 -218.94074 L372.64512 -229.04773 L366.05914 -234.14491 L367.49844 -239.95971 L365.67109 -242.39575 L370.27175 -255.46398 L369.05694 -262.01029 L364.76917 -257.4782 L363.42914 -259.3438 L356.46927 -257.43244 L351.6788 -250.27684 L349.06404 -252.459 L342.80416 -251.36331 L339.5375 -253.00269 L335.71903 -249.25638 L337.81158 -246.78374 L334.31857 -244.32941 L326.00678 -243.03525 L326.20546 -246.80896 L321.84436 -246.20994 L319.08969 -241.76773 L316.44653 -242.86123 L314.07765 -239.15725 L311.85985 -240.54624 L310.59212 -236.7926 L305.57048 -235.32197 L304.31669 -231.61328 L299.23777 -231.06098 L296.98672 -229.05602 L298.01809 -225.39569 L295.09194 -225.3213 L269.30588 -242.53541 L263.2949 -253.96586 L246.05587 -254.55979 L240.16207 -260.2697 L231.19678 -262.75954 L222.9689 -268.24346 L211.52371 -278.85297 L202.67355 -282.35224 L193.97229 -282.86377 L69.389008 -210.96907 L-292.37128 -161.46345 L-290.87594 -158.84983 L-296.11828 -158.38498 L-295.29058 -156.3008 L-297.95879 -153.4289 L-293.53593 -150.22049 L-295.43667 -151.50194 L-301.51662 -145.71354 L-299.09584 -141.81782 L-300.34766 -137.74306 L-298.0884 -138.23673 L-300.54394 -134.93518 L-297.61073 -131.00728 L-299.76605 -128.0379 L-297.5506 -122.68446 L-298.59616 -119.71674 L-300.34473 -119.90662 L-300.47699 -115.55522 L-302.38448 -116.37774 L-301.24737 -114.49954 L-303.55162 -113.85665 L-301.42089 -111.71311 L-304.57403 -110.17683 L-300.81519 -104.53551 L-307.54449 -100.25618 L-307.93116 -97.827075 L-304.97146 -97.819924 L-306.20835 -95.939934 L-307.56132 -96.940944 L-308.30906 -93.232236 L-310.01063 -93.363303 L-309.254 -91.122571 L-312.45983 -89.182568 L-309.63877 -82.88437 L-311.14004 -80.122873 L-309.09418 -79.33887 L-310.1011 -76.143311 L-307.45883 -76.529716 L-308.94881 -69.301963 L-307.31606 -68.544119 L-310.75592 -64.219162 L-307.17771 -59.027869 L-309.70844 -56.357481 L-306.79801 -51.743764 L-308.70737 -47.636761 L-307.69044 -37.799998 L-309.12494 -36.882949 L-306.559 -34.160654 L-309.28905 -34.158867 L-309.10546 -30.468407 L-311.22311 -30.298042 L-311.09332 -27.697567 L-308.20584 -26.351895 L-311.31056 -26.040398 L-311.22135 -23.972407 L-313.19254 -25.113298 L-311.03113 -19.751708 L-316.06136 -16.599244 L-315.18883 -13.512147 L-317.80286 -13.677251 L-317.54294 -11.82214 L-315.33919 -11.745348 L-316.68104 -11.284554 L-315.22624 -8.2628807 L-317.44118 -9.2746599 L-316.71592 -7.6463054 L-328.10147 1.8233753 L-326.58985 3.8132375 L-328.75846 3.7034572 L-329.41779 5.7682687 L-328.00019 4.8861058 L-323.40486 8.8236207 L-325.55043 11.295958 L-325.24235 16.726999 L-323.62864 17.259084 L-325.34303 18.218983 L-322.74088 19.35916 L-323.85223 24.491085 L-320.48865 26.912774 L-322.82898 29.678314 L-320.86674 31.582052 L-321.73146 35.721075 L-319.18546 35.729517 L-321.15706 38.350063 L-319.25125 38.48447 L-320.51665 39.720849 L-319.28302 40.19558 L-323.10452 42.20557 L-324.00707 43.893902 L-322.30952 45.491828 L-326.64624 48.271225 L-323.64211 52.720264 L-325.1203 52.102134 L-326.95124 53.981939 L-325.98312 56.46349 L-328.92072 57.918892 L-327.60917 63.377793 L-330.35651 67.419109 L-328.85496 70.23638 L-331.40184 71.934548 L-330.42427 74.035775 L-332.89047 73.057896 L-333.2394 77.701067 L-337.67698 79.739177 L-339.95672 84.107076 L-343.14491 84.857576 L-343.79589 88.183342 L-345.28998 88.033993 L-344.03759 90.384617 L-345.52063 89.949464 L-350.10658 96.321365 L-351.27087 95.268997 L-352.2265 106.3092 L-356.29787 106.57951 L-356.31824 110.39761 L-358.30516 109.92515 L-357.10176 112.5113 L-360.96743 112.6377 L-365.1819 118.82685 L-365.59077 120.7919 L-363.31985 121.32883 L-365.09377 122.31716 L-360.10721 123.87042 L-361.83118 126.38124 L-359.35388 127.66007 L-361.59959 127.65787 L-360.32113 129.62581 L-363.68291 135.44066 L-362.7987 139.78562 L-367.25895 146.19217 L-367.30245 149.36153 L-371.24766 149.67872 L-372.44652 154.06252 L-376.16728 153.90106 L-375.26988 155.88565 L-379.73145 160.34442 L-380.83406 159.52279 L-378.07078 163.90904 L-383.38678 169.63224 L-381.84558 174.90736 L-383.44631 176.66008 L-384.86364 175.72331 L-385.74458 179.47275 L-383.93525 181.47733 L-386.36252 181.31011 L-388.25088 184.24128 L-391.25067 183.11521 L-392.80511 186.64217 L-395.85555 187.65347 L-395.11777 188.99652 L-396.80991 188.71286 L-396.10572 193.42116 L-399.6391 192.40291 L-402.5546 194.26367 L-405.14004 197.68212 L-404.37613 199.34054 L-407.3006 197.99246 L-408.24527 200.62899 L-411.06103 200.23574 L-411.36919 206.92855 L-419.09406 212.15983 L-418.32605 280.26644 L-240.91312 280.8979 L-225.63228 278.59242 L-222.06364 280.76087 L-118.58546 279.95012 L41.403549 282.36678 L62.238656 281.66031 L62.226983 279.66119 L69.138814 279.32899 L69.73306 280.75022 L78.482989 279.66211 L78.596462 282.86358 L82.95621 282.86377 L82.999144 279.85408 Z "  stroke="#000000" fill="none" stroke-opacity="1" stroke-width="2" stroke-linecap="round" stroke-linejoin="round" stroke-miterlimit="10" />
</g>
</g>
</g>
</svg>
