<?xml version="1.0" encoding="utf-8" standalone="no"?>
<!DOCTYPE svg PUBLIC "-//W3C//DTD SVG 1.1//EN" "http://www.w3.org/Graphics/SVG/1.1/DTD/svg11.dtd">
<svg version="1.1" xmlns="http://www.w3.org/2000/svg" xmlns:xlink="http://www.w3.org/1999/xlink" width="584pt" height="626pt" viewBox="0 0 584 626" xml:space="preserve" enable-background="new 0 0 584 626">
<g color-interpolation="linearRGB" transform="scale(0.75,0.75)">
<g id="DETCOG_County_Boundaries_SIMPLIFIED_100m_DougPeu_20231228">
<g transform="matrix(1.3333333 0 0 -1.3333333 389.5 417.5)">
<path d="M166.26278 280.76075 L168.02993 280.78127 L171.44306 276.59041 L168.37281 275.5337 L166.84872 276.93842 L164.59581 275.10348 L164.56069 271.04233 L166.36356 269.38896 L164.20332 264.61545 L165.04095 262.84887 L163.01484 260.25077 L164.18359 258.43958 L166.15236 259.81524 L165.43982 257.12196 L167.73972 257.06248 L168.4092 254.7378 L170.94118 255.46282 L169.81706 253.33148 L168.33973 253.86653 L165.86632 252.00392 L165.90843 250.39737 L163.76714 252.49787 L163.07049 251.0008 L164.38843 248.94518 L162.21221 249.60228 L160.70796 248.459 L160.79758 244.51257 L165.97225 245.24945 L164.93929 243.53602 L166.25219 241.27771 L163.63069 240.15592 L163.62237 238.33323 L166.7278 239.64989 L166.39774 237.6272 L172.57059 233.76955 L172.87762 236.02011 L174.27472 236.26299 L175.18153 233.51865 L176.98676 237.18432 L178.79725 235.35591 L179.13748 238.23059 L183.63568 236.59595 L186.16228 233.31504 L188.37945 233.36474 L188.27307 235.84279 L194.99281 232.28145 L197.28194 232.43618 L198.52629 230.66695 L199.61351 231.27143 L198.52484 234.34735 L204.43492 230.65314 L205.59081 231.7703 L207.46534 226.67727 L209.47693 227.48532 L210.83522 225.73891 L212.06081 226.28991 L210.43711 223.76091 L214.527 221.43692 L214.62369 218.50322 L216.14127 217.84674 L214.80047 214.85182 L216.52238 213.39032 L211.98581 207.39358 L215.38435 200.6119 L215.37189 196.31648 L217.83616 193.40877 L217.33301 190.37232 L216.04366 190.12329 L217.66515 185.48605 L220.56734 186.36671 L221.21004 189.92359 L223.34972 185.85005 L223.19632 187.89236 L225.05719 189.51839 L227.13906 180.87975 L229.7886 183.11851 L232.24498 181.30631 L232.87039 175.85857 L227.25558 171.25783 L223.19312 170.21003 L219.83356 162.19031 L214.75148 158.30929 L215.87627 156.00309 L213.95917 155.13504 L214.37798 151.37611 L219.83676 147.13112 L221.59006 148.8266 L225.86359 148.93352 L227.82636 143.3654 L226.98266 142.25749 L229.20975 140.37474 L230.20456 141.63462 L233.09024 141.51501 L234.02864 143.33484 L237.68446 136.32802 L239.59215 137.25824 L241.0385 131.27176 L243.93832 127.72242 L246.55758 127.29326 L245.5976 124.94173 L243.05383 124.66676 L244.21361 119.47413 L242.72257 118.16525 L244.43474 116.96991 L244.25155 115.04696 L248.08915 113.1653 L244.11104 112.70708 L245.62683 110.52889 L247.56868 111.30133 L247.41356 108.39543 L243.57375 108.95671 L243.0998 107.74747 L245.38971 105.17107 L241.60796 104.64298 L243.84822 102.86472 L241.91332 102.84124 L240.92479 101.11507 L243.64931 95.13719 L244.93644 95.427625 L243.87046 93.170189 L247.07506 89.977078 L247.57636 87.384144 L245.70401 87.365344 L248.11088 82.330598 L251.61023 81.043223 L254.64937 69.753593 L252.65207 69.480792 L253.53763 65.477941 L250.08843 64.116474 L251.01391 58.20395 L253.74596 54.296359 L254.52331 50.830107 L252.8323 47.587642 L254.37752 46.261821 L249.52102 45.727769 L248.52476 41.508006 L251.53855 41.378788 L252.57727 39.050097 L255.4774 40.570546 L257.99925 38.879233 L259.26398 40.497742 L260.31302 37.6418 L174.51834 -66.992369 L-57.615315 -283.14319 L-63.494094 -275.93047 L-73.168777 -273.42684 L-85.031361 -265.32742 L-88.5427 -248.80066 L-94.480436 -240.11472 L-83.232985 -219.85999 L-96.311567 -202.24621 L-100.69087 -199.34066 L-110.12781 -200.0513 L-126.65977 -204.16324 L-135.15242 -202.31682 L-143.6922 -202.67755 L-155.22147 -207.05948 L-156.19115 -209.88902 L-153.57356 -213.80897 L-153.47357 -217.69796 L-158.85646 -225.39249 L-156.59272 -232.46842 L-163.64711 -238.16308 L-165.5408 -243.39866 L-168.25113 -245.63436 L-171.75568 -243.5838 L-177.33734 -231.69064 L-182.42543 -228.93445 L-184.35766 -229.85578 L-188.71377 -236.78822 L-187.96819 -244.54367 L-191.75414 -248.48945 L-200.66493 -249.92446 L-209.0319 -248.4034 L-217.86445 -250.98072 L-229.90415 -245.55267 L-231.15832 -242.6049 L-230.66877 -236.74449 L-224.30298 -227.72816 L-226.19625 -225.06542 L-231.06357 -223.78818 L-231.12274 -221.73687 L-229.00043 -220.59256 L-223.64628 -224.14634 L-218.90306 -225.3957 L-215.40038 -224.6975 L-214.7751 -217.22624 L-217.44618 -215.02739 L-230.32898 -211.17865 L-235.95834 -204.33462 L-236.66817 -197.1666 L-244.3368 -195.45132 L-244.18946 -193.64473 L-240.42639 -190.58453 L-243.15473 -183.90516 L-239.38449 -175.08221 L-240.42949 -171.55756 L-249.55902 -165.34497 L-260.31302 -164.42023 L-258.0272 -42.468985 L-29.329782 132.84477 L-6.2314278 147.54758 L164.14954 283.14319 L166.26278 280.76075 Z "  fill="#B2B2B2" fill-rule="evenodd" stroke="#FFFFFF" fill-opacity="1" stroke-opacity="1"  stroke-width="4" stroke-linecap="round" stroke-linejoin="round" stroke-miterlimit="10" />
</g>
<g transform="matrix(1.3333333 0 0 -1.3333333 389.5 417.5)">
<path d="M166.26278 280.76075 L168.02993 280.78127 L171.44306 276.59041 L168.37281 275.5337 L166.84872 276.93842 L164.59581 275.10348 L164.56069 271.04233 L166.36356 269.38896 L164.20332 264.61545 L165.04095 262.84887 L163.01484 260.25077 L164.18359 258.43958 L166.15236 259.81524 L165.43982 257.12196 L167.73972 257.06248 L168.4092 254.7378 L170.94118 255.46282 L169.81706 253.33148 L168.33973 253.86653 L165.86632 252.00392 L165.90843 250.39737 L163.76714 252.49787 L163.07049 251.0008 L164.38843 248.94518 L162.21221 249.60228 L160.70796 248.459 L160.79758 244.51257 L165.97225 245.24945 L164.93929 243.53602 L166.25219 241.27771 L163.63069 240.15592 L163.62237 238.33323 L166.7278 239.64989 L166.39774 237.6272 L172.57059 233.76955 L172.87762 236.02011 L174.27472 236.26299 L175.18153 233.51865 L176.98676 237.18432 L178.79725 235.35591 L179.13748 238.23059 L183.63568 236.59595 L186.16228 233.31504 L188.37945 233.36474 L188.27307 235.84279 L194.99281 232.28145 L197.28194 232.43618 L198.52629 230.66695 L199.61351 231.27143 L198.52484 234.34735 L204.43492 230.65314 L205.59081 231.7703 L207.46534 226.67727 L209.47693 227.48532 L210.83522 225.73891 L212.06081 226.28991 L210.43711 223.76091 L214.527 221.43692 L214.62369 218.50322 L216.14127 217.84674 L214.80047 214.85182 L216.52238 213.39032 L211.98581 207.39358 L215.38435 200.6119 L215.37189 196.31648 L217.83616 193.40877 L217.33301 190.37232 L216.04366 190.12329 L217.66515 185.48605 L220.56734 186.36671 L221.21004 189.92359 L223.34972 185.85005 L223.19632 187.89236 L225.05719 189.51839 L227.13906 180.87975 L229.7886 183.11851 L232.24498 181.30631 L232.87039 175.85857 L227.25558 171.25783 L223.19312 170.21003 L219.83356 162.19031 L214.75148 158.30929 L215.87627 156.00309 L213.95917 155.13504 L214.37798 151.37611 L219.83676 147.13112 L221.59006 148.8266 L225.86359 148.93352 L227.82636 143.3654 L226.98266 142.25749 L229.20975 140.37474 L230.20456 141.63462 L233.09024 141.51501 L234.02864 143.33484 L237.68446 136.32802 L239.59215 137.25824 L241.0385 131.27176 L243.93832 127.72242 L246.55758 127.29326 L245.5976 124.94173 L243.05383 124.66676 L244.21361 119.47413 L242.72257 118.16525 L244.43474 116.96991 L244.25155 115.04696 L248.08915 113.1653 L244.11104 112.70708 L245.62683 110.52889 L247.56868 111.30133 L247.41356 108.39543 L243.57375 108.95671 L243.0998 107.74747 L245.38971 105.17107 L241.60796 104.64298 L243.84822 102.86472 L241.91332 102.84124 L240.92479 101.11507 L243.64931 95.13719 L244.93644 95.427625 L243.87046 93.170189 L247.07506 89.977078 L247.57636 87.384144 L245.70401 87.365344 L248.11088 82.330598 L251.61023 81.043223 L254.64937 69.753593 L252.65207 69.480792 L253.53763 65.477941 L250.08843 64.116474 L251.01391 58.20395 L253.74596 54.296359 L254.52331 50.830107 L252.8323 47.587642 L254.37752 46.261821 L249.52102 45.727769 L248.52476 41.508006 L251.53855 41.378788 L252.57727 39.050097 L255.4774 40.570546 L257.99925 38.879233 L259.26398 40.497742 L260.31302 37.6418 L174.51834 -66.992369 L-57.615315 -283.14319 L-63.494094 -275.93047 L-73.168777 -273.42684 L-85.031361 -265.32742 L-88.5427 -248.80066 L-94.480436 -240.11472 L-83.232985 -219.85999 L-96.311567 -202.24621 L-100.69087 -199.34066 L-110.12781 -200.0513 L-126.65977 -204.16324 L-135.15242 -202.31682 L-143.6922 -202.67755 L-155.22147 -207.05948 L-156.19115 -209.88902 L-153.57356 -213.80897 L-153.47357 -217.69796 L-158.85646 -225.39249 L-156.59272 -232.46842 L-163.64711 -238.16308 L-165.5408 -243.39866 L-168.25113 -245.63436 L-171.75568 -243.5838 L-177.33734 -231.69064 L-182.42543 -228.93445 L-184.35766 -229.85578 L-188.71377 -236.78822 L-187.96819 -244.54367 L-191.75414 -248.48945 L-200.66493 -249.92446 L-209.0319 -248.4034 L-217.86445 -250.98072 L-229.90415 -245.55267 L-231.15832 -242.6049 L-230.66877 -236.74449 L-224.30298 -227.72816 L-226.19625 -225.06542 L-231.06357 -223.78818 L-231.12274 -221.73687 L-229.00043 -220.59256 L-223.64628 -224.14634 L-218.90306 -225.3957 L-215.40038 -224.6975 L-214.7751 -217.22624 L-217.44618 -215.02739 L-230.32898 -211.17865 L-235.95834 -204.33462 L-236.66817 -197.1666 L-244.3368 -195.45132 L-244.18946 -193.64473 L-240.42639 -190.58453 L-243.15473 -183.90516 L-239.38449 -175.08221 L-240.42949 -171.55756 L-249.55902 -165.34497 L-260.31302 -164.42023 L-258.0272 -42.468985 L-29.329782 132.84477 L-6.2314278 147.54758 L164.14954 283.14319 L166.26278 280.76075 Z "  stroke="#000000" fill="none" stroke-opacity="1" stroke-width="2" stroke-linecap="round" stroke-linejoin="round" stroke-miterlimit="10" />
</g>
</g>
</g>
</svg>
