<?xml version="1.0" encoding="utf-8" standalone="no"?>
<!DOCTYPE svg PUBLIC "-//W3C//DTD SVG 1.1//EN" "http://www.w3.org/Graphics/SVG/1.1/DTD/svg11.dtd">
<svg version="1.1" xmlns="http://www.w3.org/2000/svg" xmlns:xlink="http://www.w3.org/1999/xlink" width="609pt" height="626pt" viewBox="0 0 609 626" xml:space="preserve" enable-background="new 0 0 609 626">
<g color-interpolation="linearRGB" transform="scale(0.75,0.75)">
<g id="DETCOG_County_Boundaries_SIMPLIFIED_100m_DougPeu_20231228">
<g transform="matrix(1.3333333 0 0 -1.3333333 406 417.5)">
<path d="M-182.15412 281.39212 L-178.61296 281.0225 L-179.23461 278.35456 L-174.58337 278.45412 L-173.15842 276.40736 L-169.8316 278.54324 L-167.81093 276.38047 L-163.35668 277.51776 L-162.61303 274.63293 L-159.7169 276.67717 L-160.31092 280.00789 L-155.30523 276.58346 L-153.68147 279.14167 L-153.41326 273.89712 L-150.08166 275.79466 L-151.34742 273.9409 L-149.99271 272.83031 L-150.40494 270.98637 L-148.55786 271.49805 L-148.35841 274.01716 L-145.26236 274.30161 L-140.84716 268.48362 L-138.89852 269.41331 L-137.24903 265.26565 L-134.83965 268.0763 L-132.67773 265.12463 L-131.20678 266.85834 L-129.7674 264.19887 L-125.62145 263.8654 L-122.41763 267.08206 L-121.05835 265.66025 L-121.11271 260.1327 L-116.33473 260.2096 L-115.55728 255.18455 L-116.80177 252.4872 L-105.00108 247.06305 L-96.520904 253.99926 L-91.444242 254.23795 L-93.805575 252.10791 L-92.243482 251.12068 L-79.66575 255.22864 L-77.622426 250.1255 L-85.079332 238.61144 L-85.192371 230.27256 L-87.834869 225.72598 L-85.317179 224.99486 L-85.431514 222.43586 L-70.558175 226.20709 L-71.431881 230.96859 L-68.427669 230.97418 L-68.417366 234.77787 L-64.249503 236.17415 L-63.038985 240.71555 L-56.804378 242.18505 L-55.663936 244.66833 L-51.570294 246.73033 L-42.614519 247.26901 L-38.222207 245.03446 L-35.833729 245.94224 L-35.53846 249.19126 L-27.009391 245.82608 L-25.761489 249.79044 L-23.220448 246.07056 L-20.267524 252.47106 L-16.800664 255.58553 L-15.984512 250.88879 L-12.145856 250.55642 L-0.96174481 254.55221 L1.9405075 251.86585 L3.3518043 255.0131 L1.409546 257.34191 L3.0599569 259.52922 L6.911713 258.16276 L12.258202 259.65726 L11.597391 255.6742 L17.148824 256.70146 L18.544526 252.93854 L17.643308 249.43016 L23.806347 243.90629 L25.435523 240.62815 L29.473714 239.12152 L39.189963 243.16557 L51.948556 253.21318 L53.334808 255.71268 L52.215884 261.18855 L58.146675 262.53095 L64.126041 259.67841 L66.957785 255.87852 L63.598741 246.06789 L68.740503 236.29997 L74.961325 234.84488 L78.410323 237.55152 L81.174791 236.6558 L87.721418 238.241 L90.377591 236.49443 L95.149218 236.86063 L99.911771 229.12011 L106.9203 231.08212 L104.44561 224.3824 L110.49875 211.09351 L111.49475 202.63241 L102.7941 205.11785 L101.80446 197.76839 L105.66309 188.58985 L104.8664 185.60559 L100.8559 183.71346 L100.47681 181.76388 L105.95442 175.10063 L116.09071 172.30466 L112.49542 170.11302 L110.5151 166.38136 L116.67732 164.7422 L112.64981 161.13857 L115.90926 157.56048 L114.92921 153.56033 L118.75025 154.46651 L118.56944 160.87923 L120.01487 161.65144 L122.17125 153.85343 L120.63571 150.87799 L121.39567 149.08509 L128.81108 147.87602 L132.09953 151.57103 L137.69164 147.51634 L134.29939 145.77333 L134.78741 143.28715 L141.4107 141.58487 L133.3512 135.07029 L136.53663 129.71794 L136.35376 127.41802 L133.81642 120.99034 L130.73403 122.74342 L129.04767 122.08694 L126.03146 112.77537 L132.4396 110.37622 L139.83916 103.84251 L140.09112 100.7357 L135.78231 99.775969 L135.55134 97.321438 L145.47024 89.847192 L145.36726 86.679823 L141.46663 85.354515 L141.31927 83.841394 L149.09439 81.781497 L144.69793 78.407805 L145.98386 72.836045 L140.57939 73.861913 L138.88095 72.728024 L142.7833 69.514462 L141.71327 61.705836 L147.33681 53.275993 L146.74484 46.84183 L157.66474 42.176833 L156.91899 41.07503 L153.82083 42.082814 L152.31635 39.153043 L157.96626 37.228007 L155.58568 33.291379 L159.2756 30.282003 L157.80977 29.374234 L150.54511 31.603955 L149.4056 25.075304 L153.44256 23.119965 L153.45287 18.912789 L155.86201 16.973723 L159.69098 18.700839 L159.12174 16.001999 L156.44391 14.193349 L155.54717 9.3587232 L158.65786 6.2086086 L156.05376 3.0803192 L159.29577 -0.063968954 L167.41606 -0.83704888 L172.40648 -4.3940672 L184.37189 -4.448518 L191.45257 -11.272712 L193.66215 -16.596979 L191.03494 -23.076147 L195.2528 -25.278308 L190.83368 -25.961022 L191.33571 -31.922601 L194.65455 -34.816801 L197.16972 -29.419468 L199.8183 -31.462503 L199.25513 -33.988322 L193.26011 -40.781009 L197.15116 -45.413216 L202.64268 -45.826834 L203.95546 -51.712883 L198.41663 -57.981236 L194.58985 -66.623697 L200.81321 -72.660849 L202.50825 -79.582642 L196.7443 -82.216445 L195.32101 -84.343093 L208.19491 -98.742484 L207.45615 -111.12908 L205.38833 -116.23621 L207.81257 -117.9685 L211.48055 -115.55352 L215.75465 -115.75225 L221.88039 -111.93146 L227.46203 -112.90561 L233.16983 -111.16649 L237.651 -112.70567 L238.91296 -115.00791 L236.56584 -119.33748 L238.67793 -128.33922 L245.20996 -134.79577 L241.20428 -145.3951 L243.03656 -146.00635 L245.45294 -143.24087 L248.77578 -142.77275 L247.67389 -138.81939 L252.1754 -133.78748 L255.04467 -138.46626 L260.55509 -139.43564 L264.26129 -145.20534 L268.69521 -147.91364 L271.21082 -154.56931 L270.49554 -158.13127 L273.13503 -165.7792 L268.55671 -171.30213 L270.75009 -175.33476 L266.33261 -174.98604 L265.44356 -179.73144 L261.6694 -180.18343 L260.45856 -183.71221 L255.95992 -182.94398 L249.63148 -186.68242 L249.7671 -189.33383 L255.05782 -191.25348 L255.79004 -194.48386 L252.54746 -197.81049 L247.10168 -196.62253 L244.76063 -197.71834 L244.82888 -199.52243 L247.99244 -202.45615 L246.35492 -207.28808 L244.69586 -208.23505 L241.51838 -206.84968 L240.45476 -208.43592 L243.81584 -213.95988 L239.1513 -216.38966 L239.56411 -221.6174 L233.80196 -221.26157 L233.94943 -226.46684 L231.69891 -229.8298 L232.65314 -231.22011 L237.34899 -230.58806 L238.77228 -232.0894 L238.988 -238.46056 L235.17659 -236.60672 L233.11494 -240.13937 L239.85681 -247.79423 L237.89603 -252.09169 L241.00941 -256.06681 L240.13031 -260.88602 L247.65882 -260.83493 L254.1059 -267.1962 L250.83165 -273.26445 L252.14547 -274.9854 L257.533 -275.81929 L254.64102 -282.85874 L-178.29326 -277.18279 L-273.13503 234.55586 L-185.47978 282.60949 L-183.71617 281.3854 L-182.26699 282.85874 L-182.15412 281.39212 Z "  fill="#B2B2B2" fill-rule="evenodd" stroke="#FFFFFF" fill-opacity="1" stroke-opacity="1"  stroke-width="4" stroke-linecap="round" stroke-linejoin="round" stroke-miterlimit="10" />
</g>
<g transform="matrix(1.3333333 0 0 -1.3333333 406 417.5)">
<path d="M-182.15412 281.39212 L-178.61296 281.0225 L-179.23461 278.35456 L-174.58337 278.45412 L-173.15842 276.40736 L-169.8316 278.54324 L-167.81093 276.38047 L-163.35668 277.51776 L-162.61303 274.63293 L-159.7169 276.67717 L-160.31092 280.00789 L-155.30523 276.58346 L-153.68147 279.14167 L-153.41326 273.89712 L-150.08166 275.79466 L-151.34742 273.9409 L-149.99271 272.83031 L-150.40494 270.98637 L-148.55786 271.49805 L-148.35841 274.01716 L-145.26236 274.30161 L-140.84716 268.48362 L-138.89852 269.41331 L-137.24903 265.26565 L-134.83965 268.0763 L-132.67773 265.12463 L-131.20678 266.85834 L-129.7674 264.19887 L-125.62145 263.8654 L-122.41763 267.08206 L-121.05835 265.66025 L-121.11271 260.1327 L-116.33473 260.2096 L-115.55728 255.18455 L-116.80177 252.4872 L-105.00108 247.06305 L-96.520904 253.99926 L-91.444242 254.23795 L-93.805575 252.10791 L-92.243482 251.12068 L-79.66575 255.22864 L-77.622426 250.1255 L-85.079332 238.61144 L-85.192371 230.27256 L-87.834869 225.72598 L-85.317179 224.99486 L-85.431514 222.43586 L-70.558175 226.20709 L-71.431881 230.96859 L-68.427669 230.97418 L-68.417366 234.77787 L-64.249503 236.17415 L-63.038985 240.71555 L-56.804378 242.18505 L-55.663936 244.66833 L-51.570294 246.73033 L-42.614519 247.26901 L-38.222207 245.03446 L-35.833729 245.94224 L-35.53846 249.19126 L-27.009391 245.82608 L-25.761489 249.79044 L-23.220448 246.07056 L-20.267524 252.47106 L-16.800664 255.58553 L-15.984512 250.88879 L-12.145856 250.55642 L-0.96174481 254.55221 L1.9405075 251.86585 L3.3518043 255.0131 L1.409546 257.34191 L3.0599569 259.52922 L6.911713 258.16276 L12.258202 259.65726 L11.597391 255.6742 L17.148824 256.70146 L18.544526 252.93854 L17.643308 249.43016 L23.806347 243.90629 L25.435523 240.62815 L29.473714 239.12152 L39.189963 243.16557 L51.948556 253.21318 L53.334808 255.71268 L52.215884 261.18855 L58.146675 262.53095 L64.126041 259.67841 L66.957785 255.87852 L63.598741 246.06789 L68.740503 236.29997 L74.961325 234.84488 L78.410323 237.55152 L81.174791 236.6558 L87.721418 238.241 L90.377591 236.49443 L95.149218 236.86063 L99.911771 229.12011 L106.9203 231.08212 L104.44561 224.3824 L110.49875 211.09351 L111.49475 202.63241 L102.7941 205.11785 L101.80446 197.76839 L105.66309 188.58985 L104.8664 185.60559 L100.8559 183.71346 L100.47681 181.76388 L105.95442 175.10063 L116.09071 172.30466 L112.49542 170.11302 L110.5151 166.38136 L116.67732 164.7422 L112.64981 161.13857 L115.90926 157.56048 L114.92921 153.56033 L118.75025 154.46651 L118.56944 160.87923 L120.01487 161.65144 L122.17125 153.85343 L120.63571 150.87799 L121.39567 149.08509 L128.81108 147.87602 L132.09953 151.57103 L137.69164 147.51634 L134.29939 145.77333 L134.78741 143.28715 L141.4107 141.58487 L133.3512 135.07029 L136.53663 129.71794 L136.35376 127.41802 L133.81642 120.99034 L130.73403 122.74342 L129.04767 122.08694 L126.03146 112.77537 L132.4396 110.37622 L139.83916 103.84251 L140.09112 100.7357 L135.78231 99.775969 L135.55134 97.321438 L145.47024 89.847192 L145.36726 86.679823 L141.46663 85.354515 L141.31927 83.841394 L149.09439 81.781497 L144.69793 78.407805 L145.98386 72.836045 L140.57939 73.861913 L138.88095 72.728024 L142.7833 69.514462 L141.71327 61.705836 L147.33681 53.275993 L146.74484 46.84183 L157.66474 42.176833 L156.91899 41.07503 L153.82083 42.082814 L152.31635 39.153043 L157.96626 37.228007 L155.58568 33.291379 L159.2756 30.282003 L157.80977 29.374234 L150.54511 31.603955 L149.4056 25.075304 L153.44256 23.119965 L153.45287 18.912789 L155.86201 16.973723 L159.69098 18.700839 L159.12174 16.001999 L156.44391 14.193349 L155.54717 9.3587232 L158.65786 6.2086086 L156.05376 3.0803192 L159.29577 -0.063968954 L167.41606 -0.83704888 L172.40648 -4.3940672 L184.37189 -4.448518 L191.45257 -11.272712 L193.66215 -16.596979 L191.03494 -23.076147 L195.2528 -25.278308 L190.83368 -25.961022 L191.33571 -31.922601 L194.65455 -34.816801 L197.16972 -29.419468 L199.8183 -31.462503 L199.25513 -33.988322 L193.26011 -40.781009 L197.15116 -45.413216 L202.64268 -45.826834 L203.95546 -51.712883 L198.41663 -57.981236 L194.58985 -66.623697 L200.81321 -72.660849 L202.50825 -79.582642 L196.7443 -82.216445 L195.32101 -84.343093 L208.19491 -98.742484 L207.45615 -111.12908 L205.38833 -116.23621 L207.81257 -117.9685 L211.48055 -115.55352 L215.75465 -115.75225 L221.88039 -111.93146 L227.46203 -112.90561 L233.16983 -111.16649 L237.651 -112.70567 L238.91296 -115.00791 L236.56584 -119.33748 L238.67793 -128.33922 L245.20996 -134.79577 L241.20428 -145.3951 L243.03656 -146.00635 L245.45294 -143.24087 L248.77578 -142.77275 L247.67389 -138.81939 L252.1754 -133.78748 L255.04467 -138.46626 L260.55509 -139.43564 L264.26129 -145.20534 L268.69521 -147.91364 L271.21082 -154.56931 L270.49554 -158.13127 L273.13503 -165.7792 L268.55671 -171.30213 L270.75009 -175.33476 L266.33261 -174.98604 L265.44356 -179.73144 L261.6694 -180.18343 L260.45856 -183.71221 L255.95992 -182.94398 L249.63148 -186.68242 L249.7671 -189.33383 L255.05782 -191.25348 L255.79004 -194.48386 L252.54746 -197.81049 L247.10168 -196.62253 L244.76063 -197.71834 L244.82888 -199.52243 L247.99244 -202.45615 L246.35492 -207.28808 L244.69586 -208.23505 L241.51838 -206.84968 L240.45476 -208.43592 L243.81584 -213.95988 L239.1513 -216.38966 L239.56411 -221.6174 L233.80196 -221.26157 L233.94943 -226.46684 L231.69891 -229.8298 L232.65314 -231.22011 L237.34899 -230.58806 L238.77228 -232.0894 L238.988 -238.46056 L235.17659 -236.60672 L233.11494 -240.13937 L239.85681 -247.79423 L237.89603 -252.09169 L241.00941 -256.06681 L240.13031 -260.88602 L247.65882 -260.83493 L254.1059 -267.1962 L250.83165 -273.26445 L252.14547 -274.9854 L257.533 -275.81929 L254.64102 -282.85874 L-178.29326 -277.18279 L-273.13503 234.55586 L-185.47978 282.60949 L-183.71617 281.3854 L-182.26699 282.85874 L-182.15412 281.39212 Z "  stroke="#000000" fill="none" stroke-opacity="1" stroke-width="2" stroke-linecap="round" stroke-linejoin="round" stroke-miterlimit="10" />
</g>
</g>
</g>
</svg>
